<svg width="165" height="33" viewBox="0 0 165 33" fill="none" xmlns="http://www.w3.org/2000/svg">
<path d="M128.52 16.686H120.508V8.69896H117.625V16.686H109.612V19.5448H117.625V27.5207H120.508V19.5448H128.52V16.686Z" fill="#0036AF"/>
<path d="M69.216 31.1027C68.6908 21.08 63.5392 11.6802 55.4041 5.97358C50.3978 2.4584 44.4752 0.422711 38.2174 0.0778676L37.5469 0.044497L36.4518 0V32.66H67.9085C67.942 32.66 67.9644 32.66 67.9979 32.66C68.0314 32.66 68.065 32.66 68.0985 32.66L69.2271 32.7045V31.2473C69.2271 31.2028 69.216 31.1583 69.216 31.1027ZM54.823 8.24287C54.8453 8.254 54.8677 8.27625 54.89 8.28737C55.0912 8.44311 55.2923 8.59884 55.4934 8.75458C55.5493 8.79907 55.6052 8.84357 55.6611 8.89919C55.8175 9.03268 55.9851 9.15504 56.1416 9.28853C56.2198 9.35527 56.298 9.42202 56.3762 9.48876C56.5103 9.6 56.6444 9.72237 56.7785 9.8336C56.8679 9.91147 56.9573 10.0005 57.0467 10.0783C57.1585 10.1896 57.2814 10.2897 57.3931 10.4009C57.4937 10.4899 57.5943 10.59 57.6949 10.6902C57.7954 10.7903 57.896 10.8904 57.9966 10.9905C58.0971 11.0906 58.1977 11.2019 58.3095 11.302C58.3989 11.4021 58.4994 11.4911 58.5888 11.5801C58.7006 11.6913 58.8123 11.8137 58.9129 11.936C58.9911 12.025 59.0694 12.114 59.1587 12.1919C59.2705 12.3143 59.3822 12.4477 59.494 12.5812C59.561 12.6591 59.6393 12.7481 59.7063 12.826C59.818 12.9594 59.941 13.1041 60.0527 13.2375C60.1198 13.3154 60.1756 13.3933 60.2427 13.4711C60.3544 13.6158 60.4662 13.7604 60.5779 13.905C60.6338 13.9829 60.7008 14.0496 60.7567 14.1275C60.8685 14.2832 60.9802 14.4389 61.1031 14.5947C61.159 14.6614 61.2037 14.7393 61.2596 14.806C61.3825 14.9729 61.4942 15.1397 61.606 15.3066C61.6507 15.3733 61.6954 15.429 61.7401 15.4957C61.8518 15.6626 61.9636 15.8406 62.0753 16.0074C62.12 16.0742 62.1536 16.1298 62.1983 16.1965C62.31 16.3745 62.4217 16.5525 62.5335 16.7305C62.567 16.7861 62.6117 16.8528 62.6452 16.9085C62.757 17.0864 62.8576 17.2756 62.9693 17.4535C63.0028 17.5092 63.0364 17.5759 63.0699 17.6315C63.1705 17.8095 63.271 17.9986 63.3716 18.1877C63.4051 18.2433 63.4386 18.3101 63.4722 18.3657C63.5727 18.5548 63.6621 18.7439 63.7627 18.933C63.7962 18.9886 63.8298 19.0554 63.8521 19.111C63.9415 19.3001 64.0309 19.4892 64.1203 19.6783C64.1538 19.7451 64.1873 19.8118 64.2097 19.8674C64.2991 20.0565 64.3773 20.2457 64.4667 20.4348C64.5002 20.5015 64.5226 20.5683 64.5561 20.635C64.6343 20.8241 64.7126 21.0132 64.7908 21.2023C64.8131 21.2691 64.8467 21.3358 64.8802 21.4026C64.9584 21.5917 65.0255 21.7808 65.0925 21.9699C65.1148 22.0477 65.1484 22.1145 65.1819 22.1924C65.2489 22.3815 65.316 22.5594 65.383 22.7486C65.4054 22.8264 65.4389 22.9043 65.4613 22.9822C65.5171 23.1601 65.5842 23.3492 65.6401 23.5272C65.6624 23.6162 65.6959 23.6941 65.7183 23.7831C65.7741 23.9611 65.8189 24.139 65.8747 24.317C65.8971 24.406 65.9306 24.495 65.9529 24.5951C65.9977 24.7731 66.0424 24.9511 66.0871 25.118C66.1094 25.2181 66.1429 25.3071 66.1653 25.4072C66.21 25.574 66.2435 25.752 66.2882 25.9189C66.3105 26.019 66.3329 26.1191 66.3552 26.2304C66.3888 26.3972 66.4223 26.5641 66.4558 26.7309C66.4782 26.8422 66.5005 26.9534 66.5229 27.0647C66.5564 27.2315 66.5787 27.3873 66.6123 27.5541C66.6346 27.6654 66.657 27.7877 66.6681 27.899C66.6905 28.0547 66.7128 28.2104 66.7352 28.3662C66.7575 28.4885 66.7687 28.6109 66.791 28.7333C66.8134 28.889 66.8246 29.0336 66.8469 29.1893C66.8581 29.3228 66.8804 29.4452 66.8916 29.5787C66.9028 29.7233 66.914 29.8679 66.9363 30.0236C66.9475 30.146 66.9587 30.2795 66.9698 30.4019C61.349 29.9791 56.0298 28.1103 51.5264 24.94C44.1511 19.7562 39.4019 11.3353 38.6867 2.26929L38.832 2.28042V2.26929C38.9884 2.28042 39.1337 2.29154 39.2902 2.31379C39.4578 2.32491 39.6366 2.34716 39.8042 2.35828C39.983 2.38053 40.1506 2.40278 40.3294 2.42503C40.497 2.44728 40.6758 2.46953 40.8434 2.49177C41.0222 2.51402 41.1899 2.54739 41.3687 2.56964C41.5363 2.59189 41.7039 2.62526 41.8715 2.64751C42.0503 2.68088 42.2179 2.71425 42.3967 2.74762C42.5644 2.781 42.7208 2.81437 42.8884 2.84774C43.0672 2.88111 43.2348 2.92561 43.4136 2.9701C43.5701 3.00348 43.7377 3.03685 43.8941 3.08134C44.0729 3.12584 44.2405 3.17034 44.4193 3.21483C44.5758 3.25933 44.7322 3.2927 44.8887 3.3372C45.0675 3.38169 45.2351 3.43731 45.4139 3.49293C45.5703 3.53743 45.7268 3.58192 45.8721 3.63754C46.0508 3.69316 46.2185 3.74878 46.3973 3.81553C46.5425 3.87115 46.699 3.91564 46.8442 3.97126C47.023 4.03801 47.1907 4.10475 47.3695 4.17149C47.5147 4.22711 47.66 4.28273 47.8053 4.33835C47.9841 4.4051 48.1517 4.48297 48.3305 4.54971C48.4757 4.60533 48.6098 4.66095 48.7551 4.7277C48.9339 4.80556 49.1015 4.88343 49.2803 4.9613C49.4144 5.02804 49.5485 5.08366 49.6826 5.15041C49.8614 5.2394 50.0402 5.32839 50.2078 5.40626C50.3419 5.473 50.4648 5.52862 50.5989 5.59537C50.7777 5.68436 50.9565 5.78447 51.1353 5.88459C51.2582 5.95133 51.3812 6.01808 51.5041 6.08482C51.6941 6.18494 51.8729 6.29618 52.0628 6.40742C52.1746 6.47416 52.2863 6.52978 52.3981 6.59652C52.5992 6.71889 52.8004 6.84125 52.9903 6.97474C53.0797 7.03036 53.1691 7.08598 53.2585 7.1416C53.5491 7.33071 53.8284 7.51982 54.1078 7.72005C54.376 7.90916 54.5995 8.07601 54.823 8.24287ZM38.642 11.7469C40.9552 17.7428 44.9893 23.0155 50.286 26.7421C52.4875 28.2883 54.8677 29.5453 57.3708 30.502H38.642V11.7469Z" fill="#0036AF"/>
<path d="M53.5602 22.248C56.6892 22.248 59.2258 19.7229 59.2258 16.6081C59.2258 13.4933 56.6892 10.9682 53.5602 10.9682C50.4312 10.9682 47.8947 13.4933 47.8947 16.6081C47.8947 19.7229 50.4312 22.248 53.5602 22.248Z" fill="#0036AF"/>
<path d="M32.7642 0.0889922H0V2.15805H18.5164L0.223494 5.05029L0.547558 7.08598L18.8517 4.20487L1.22921 9.90035L1.87735 11.8693L19.4886 6.17381L2.98364 14.539L3.93349 16.3856L20.4273 8.02039L5.44207 18.8552L6.67128 20.5238L21.6565 9.68899L8.5598 22.7263L10.0237 24.1947L23.1204 11.1574L12.2363 26.0746L13.9125 27.2871L24.8078 12.3699L16.3933 28.8L18.2482 29.7344L26.6516 13.3043L20.9302 30.8468L22.9081 31.4809L28.6295 13.9495L25.7353 32.1594L27.7914 32.482L30.6857 14.2721V32.7045H32.7642V0.0889922Z" fill="#0036AF"/>
<path d="M98.6277 32.7046H95.2194V20.179H79.8542V16.7862H95.2306V3.48193H84.9834C83.4413 3.48193 82.0221 3.86014 80.7259 4.61658C79.4296 5.37301 78.4015 6.39641 77.6417 7.68679C76.8818 8.97717 76.5018 10.401 76.5018 11.9584V32.7046H73.0824V11.9584C73.0824 10.3343 73.3841 8.79919 73.9987 7.3642C74.6133 5.9292 75.4626 4.66107 76.5577 3.57092C77.6528 2.46965 78.9156 1.62422 80.3571 1.0124C81.7986 0.400584 83.3407 0.100236 84.9722 0.100236H98.6277V32.7046Z" fill="#0036AF"/>
<path d="M105.847 32.6823H102.472V7.20834H105.847V32.6823Z" fill="#0036AF"/>
<path d="M105.852 3.45124V0.0918065H102.477V3.45124H105.852Z" fill="#0036AF"/>
<path d="M164.994 32.6711H161.619V7.19722H164.994V32.6711Z" fill="#0036AF"/>
<path d="M165 3.43682V0.0773838H161.625V3.43682H165Z" fill="#0036AF"/>
<path d="M135.672 32.7045H132.263V0.122365H140.533C150.087 0.122365 157.865 7.43082 157.865 16.419C157.865 25.4072 150.087 32.7156 140.533 32.7156H139.035V29.5564H140.533C148.333 29.5564 154.68 23.6718 154.68 16.4301C154.68 9.18841 148.333 3.30382 140.533 3.30382H135.672V32.7045Z" fill="#0036AF"/>
</svg>
