<svg width="70" height="70" viewBox="0 0 70 70" fill="none" xmlns="http://www.w3.org/2000/svg">
<path d="M69.8418 65.4782C69.4727 66.059 69.2618 66.3759 68.5764 66.4287H40.6321C40.263 66.4815 40.0521 67.1679 39.7885 67.4848C37.3631 70.4418 32.8815 70.653 30.3506 67.696C30.0343 67.3791 29.6652 66.4815 29.3489 66.3759L1.19361 66.323C0.61363 66.1646 0.244553 65.795 0.139103 65.1613C-0.0717981 63.9468 -0.0190729 60.1977 0.139103 58.8776C0.297278 57.399 1.45723 57.5574 1.50996 57.3462C1.82631 55.6565 0.560904 52.1185 2.93354 51.8545C3.93532 51.7489 5.09527 51.8545 6.2025 51.6961C13.5313 50.7984 18.962 45.0427 26.7126 46.8908C30.1925 47.7357 32.9869 50.1647 34.9905 53.069L36.3613 51.4321C40.6848 46.6268 45.6937 45.4123 51.9153 47.4717C56.9242 49.1086 59.6131 51.3265 65.4129 51.8545C66.4147 51.9601 67.891 51.4849 68.471 52.5938C68.9455 53.5443 68.471 56.1845 68.6291 57.3462C69.3146 57.5574 69.6837 57.7158 70 58.4023V65.4782H69.8418ZM33.6196 58.2439V56.1317C33.6196 55.3924 30.2452 51.8545 29.4543 51.3265C22.6528 46.4684 16.8003 51.8545 10.3678 53.7027C8.36423 54.2835 6.30795 54.6004 4.19894 54.706V57.5574H31.3524C31.9851 57.5574 32.9869 58.0855 33.6196 58.2439ZM65.7293 54.706C63.673 54.6004 61.564 54.2835 59.5604 53.7027C53.0752 51.8545 47.2754 46.4684 40.4739 51.3265C39.683 51.9073 36.3086 55.3924 36.3086 56.1317V58.2439C36.9413 58.0855 37.9431 57.5574 38.5758 57.5574H65.7293V54.706ZM67.1001 60.3033H38.8394C38.5231 60.3033 37.3631 60.7785 37.0995 60.9898C36.2559 61.5706 36.2031 62.7323 35.0432 62.7323C33.7251 62.7851 33.7251 61.6234 32.8287 60.9898C32.5124 60.7785 31.4052 60.3033 31.0888 60.3033H2.82809V63.7356H30.8252C31.4052 63.7356 31.7742 65.0557 31.9851 65.4254C33.3033 67.7488 36.6249 67.7488 37.9431 65.4254C38.154 65.0557 38.5231 63.7356 39.103 63.7356H67.1001V60.3033Z" fill="white"/>
<path d="M36.3087 0C47.4865 1.26732 53.708 13.5709 47.4865 23.287C46.0629 25.452 43.3212 27.9866 43.1103 30.6268C42.8994 33.4783 43.4266 36.8578 43.1103 39.6565C43.0576 40.0261 42.9521 40.2373 42.7412 40.5542C42.4249 41.0294 40.5795 42.8776 40.1049 43.2472C39.8413 43.4584 39.6304 43.6169 39.3141 43.6697C36.6251 43.5112 33.5143 43.9865 30.878 43.7225C30.3508 43.6697 30.1399 43.564 29.7181 43.2472C29.1908 42.8248 27.6091 41.2406 27.1873 40.7126C27.0291 40.5014 26.8709 40.2901 26.7655 40.0261C26.4491 36.9634 26.9237 33.6895 26.7127 30.6796C26.4491 27.617 22.3366 24.079 21.0712 20.9107C17.2749 11.6171 23.5492 0.844878 33.6198 0H36.3087ZM40.5268 29.9932C40.9486 25.8216 44.9557 23.2342 46.3792 19.4322C50.2282 9.18805 39.9468 -0.633659 29.929 3.80195C23.2329 6.75903 20.6494 14.9438 24.3928 21.2804C26.0273 24.1318 29.0854 26.5609 29.349 30.046H33.567V18.3233C32.7761 17.32 29.8235 15.5246 31.1944 14.0461C32.7234 12.4092 34.4634 15.7359 34.9906 15.6831C35.8869 14.9438 37.416 12.6732 38.6814 14.0461C40.0522 15.5246 37.0996 17.32 36.3087 18.3233V29.9932H40.5268ZM40.4213 32.739H29.5072V35.4849H40.4213V32.739ZM40.4213 38.1779H29.5072C29.5072 38.4948 29.4545 38.7588 29.6126 39.0756C29.6654 39.1812 31.1944 40.7126 31.2998 40.7654C32.1434 41.2406 37.0469 40.6598 38.365 40.871C38.8395 40.5014 40.9486 38.7588 40.4213 38.1779Z" fill="white"/>
<path d="M12.1606 13.6766C12.6879 13.571 15.0605 13.571 15.5878 13.7294C16.9059 14.0991 16.8532 16.1585 15.3769 16.3697C14.7969 16.4753 12.5824 16.4753 12.0552 16.3169C10.7898 15.9472 10.8425 13.9407 12.1606 13.6766Z" fill="white"/>
<path d="M54.3936 13.6766C54.9208 13.571 57.2934 13.571 57.8207 13.7294C59.1388 14.0991 59.0861 16.1585 57.6098 16.3697C57.0298 16.4753 54.8154 16.4753 54.2881 16.3169C53.0227 15.9472 53.0754 13.9407 54.3936 13.6766Z" fill="white"/>
<path d="M18.8566 4.11864C19.8057 5.06913 19.0148 6.65328 17.4858 6.38926C17.1694 6.33645 14.7441 4.96352 14.5332 4.6995C13.6368 3.74901 14.3223 2.32328 15.6931 2.42889C16.1149 2.48169 18.5403 3.85462 18.8566 4.11864Z" fill="white"/>
<path d="M18.8567 23.9205C19.3313 24.3957 19.3313 25.4518 18.804 25.9271C18.5404 26.1383 16.2205 27.4584 15.9569 27.5112C14.3224 27.8281 13.5315 26.1911 14.6915 25.1878C14.9024 24.9766 17.1168 23.7093 17.3804 23.6565C17.855 23.4981 18.4877 23.5509 18.8567 23.9205Z" fill="white"/>
<path d="M51.0716 25.8746C50.1225 24.9241 50.9134 23.3399 52.4424 23.604C52.7061 23.6568 55.1841 25.0825 55.395 25.2937C56.2914 26.2442 55.606 27.6699 54.2351 27.5643C53.8133 27.5115 51.3879 26.1914 51.0716 25.8746Z" fill="white"/>
<path d="M51.0717 6.07279C50.5972 5.59754 50.5972 4.54144 51.1245 4.0662C51.3881 3.85498 53.708 2.53486 53.9716 2.48205C55.5534 2.16522 56.397 3.74937 55.237 4.80547C55.0261 4.96388 52.7589 6.28401 52.548 6.33681C52.0735 6.49523 51.4408 6.44242 51.0717 6.07279Z" fill="white"/>
</svg>
