<svg width="77" height="77" viewBox="0 0 77 77" fill="none" xmlns="http://www.w3.org/2000/svg">
<g clip-path="url(#clip0_1049_1848)">
<path d="M31.7756 17.3596C31.4707 16.5869 30.5976 16.2075 29.8247 16.5128C25.4626 18.2343 21.7397 21.189 19.0588 25.0577C16.3136 29.0187 14.8628 33.6688 14.8628 38.505C14.8628 39.3356 15.5362 40.0088 16.3665 40.0088C17.1969 40.0088 17.8703 39.3355 17.8703 38.505C17.8703 29.9756 22.9961 22.4413 30.9287 19.3107C31.7014 19.0057 32.0804 18.1324 31.7756 17.3596Z" fill="white"/>
<path d="M48.4059 37.0155C47.5754 37.0155 46.9021 37.6888 46.9021 38.5193C46.9021 43.1627 43.1243 46.9407 38.4807 46.9407C33.8371 46.9407 30.0593 43.1629 30.0593 38.5193C30.0593 33.8758 33.8371 30.0978 38.4807 30.0978C39.3111 30.0978 39.9844 29.4245 39.9844 28.5941C39.9844 27.7635 39.311 27.0903 38.4807 27.0903C32.1787 27.0903 27.0518 32.2173 27.0518 38.5193C27.0518 44.8212 32.1789 49.9482 38.4807 49.9482C44.7825 49.9482 49.9096 44.8212 49.9096 38.5193C49.9096 37.6888 49.2363 37.0155 48.4059 37.0155Z" fill="white"/>
<path d="M53.9808 36.9585C53.1504 36.9585 52.4771 37.6318 52.4771 38.4623V38.519C52.4771 39.3496 53.1505 40.0227 53.9808 40.0227C54.8111 40.0227 55.4846 39.3494 55.4846 38.519V38.4623C55.4846 37.6318 54.8111 36.9585 53.9808 36.9585Z" fill="white"/>
<path d="M47.8956 50.6736C47.6161 50.3923 47.228 50.2329 46.8325 50.2329C46.437 50.2331 46.0491 50.3925 45.7693 50.6736C45.4895 50.9533 45.3286 51.3398 45.3286 51.7368C45.3286 52.1323 45.4894 52.5203 45.7693 52.8001C46.0491 53.0798 46.4355 53.2392 46.8325 53.2392C47.228 53.2392 47.6161 53.0798 47.8956 52.8001C48.1754 52.5203 48.3364 52.1323 48.3364 51.7368C48.3364 51.3396 48.1755 50.9533 47.8956 50.6736Z" fill="white"/>
<path d="M71.885 54.5268C71.0211 54.5268 70.2072 54.7429 69.4929 55.1228L65.0425 50.6724C64.7604 50.3904 64.3779 50.2319 63.9791 50.2319H53.0135C52.1831 50.2319 51.5098 50.9052 51.5098 51.7357C51.5098 52.5663 52.1832 53.2394 53.0135 53.2394H63.356L67.3665 57.2499C66.9875 57.9637 66.7719 58.7767 66.7719 59.6395C66.7719 62.4588 69.0655 64.7524 71.8848 64.7524C74.7042 64.7524 76.9978 62.4588 76.9978 59.6395C76.998 56.8202 74.7042 54.5268 71.885 54.5268ZM71.885 61.7451C70.724 61.7451 69.7797 60.8006 69.7797 59.6398C69.7797 58.4788 70.7241 57.5345 71.885 57.5345C73.0459 57.5345 73.9903 58.4789 73.9903 59.6398C73.9903 60.8006 73.0457 61.7451 71.885 61.7451Z" fill="white"/>
<path d="M71.8848 12.2519C69.0654 12.2519 66.7718 14.5455 66.7718 17.3649C66.7718 18.2278 66.9875 19.0408 67.3666 19.7546L63.3561 23.765H46.9009C44.8103 22.5697 42.4625 21.8102 40.0012 21.5869V18.8686H55.8586C56.4063 18.8686 56.9107 18.5708 57.1752 18.0914L61.7452 9.80953C62.3651 10.0769 63.0474 10.2258 63.7645 10.2258C66.5838 10.2258 68.8774 7.9322 68.8774 5.11283C68.8774 2.29361 66.5838 0 63.7645 0C60.9451 0 58.6515 2.29361 58.6515 5.11298C58.6515 6.09894 58.9327 7.01978 59.418 7.80151L54.9708 15.8609H40.0012V1.51007C40.0012 0.679465 39.3278 0.00631641 38.4975 0.00631641H31.7543C30.9238 0.00631641 30.2505 0.679615 30.2505 1.51007V6.16361C27.1434 6.95075 24.1851 8.17659 21.4283 9.81976L18.1504 6.54199C17.8682 6.26001 17.4857 6.1015 17.0867 6.1015C16.6878 6.1015 16.3052 6.26016 16.0233 6.54244L6.51812 16.0546C5.93114 16.6421 5.93129 17.5937 6.51842 18.1809L9.79257 21.4552C8.14955 24.2123 6.92372 27.1705 6.13672 30.2774H1.5062C0.67574 30.2774 0.00244141 30.9507 0.00244141 31.7811V45.2286C0.00244141 46.0592 0.675891 46.7324 1.5062 46.7324H6.13703C6.92387 49.8393 8.1497 52.7975 9.79287 55.5544L6.51872 58.8288C5.93159 59.4159 5.93144 60.3675 6.51842 60.955L16.0236 70.4672C16.3055 70.7493 16.6881 70.908 17.087 70.9081H17.0873C17.4861 70.9081 17.8685 70.7496 18.1507 70.4676L21.4284 67.19C24.1856 68.833 27.1437 70.059 30.2505 70.8462V75.4923C30.2505 76.3226 30.9234 76.9956 31.7534 76.9961H38.4964H38.4973C38.896 76.9961 39.2785 76.8415 39.5604 76.5597C39.8426 76.2775 40.0012 75.8949 40.0012 75.4959V61.0751H54.9681L59.4198 69.1955C58.9335 69.9778 58.6516 70.8997 58.6516 71.8867C58.6516 74.7061 60.9452 76.9997 63.7646 76.9997C66.584 76.9997 68.8776 74.7061 68.8776 71.8867C68.8776 69.0673 66.5838 66.7737 63.7645 66.7737C63.0492 66.7737 62.3681 66.9219 61.7494 67.1884L57.1773 58.8483C56.9134 58.3668 56.4078 58.0673 55.8587 58.0673H40.0009V54.0187C40.0009 53.188 39.3275 52.5149 38.4972 52.5149C30.7719 52.5149 24.4871 46.2301 24.4871 38.5048C24.4871 30.8731 30.6211 24.648 38.2176 24.4983C38.3032 24.5135 38.3909 24.5228 38.4809 24.5228C44.3012 24.5228 49.5746 28.1864 51.6033 33.6388C51.8286 34.2444 52.4024 34.6187 53.0127 34.6187C53.1869 34.6187 53.3642 34.5882 53.537 34.524C54.3154 34.2343 54.7117 33.3687 54.422 32.5902C53.5999 30.3803 52.3372 28.4142 50.7591 26.7725H63.9789C64.3778 26.7725 64.7602 26.614 65.0423 26.332L69.4927 21.8817C70.207 22.2616 71.021 22.4777 71.8848 22.4777C74.7042 22.4777 76.9978 20.1841 76.9978 17.3647C76.9978 14.5455 74.704 12.2519 71.8848 12.2519ZM63.7645 3.00766C64.9255 3.00766 65.8698 3.95212 65.8698 5.11298C65.8698 6.27385 64.9253 7.2183 63.7645 7.2183C62.6036 7.2183 61.6591 6.27385 61.6591 5.11298C61.6591 3.95212 62.6034 3.00766 63.7645 3.00766ZM63.7645 69.7817C64.9255 69.7817 65.8698 70.7262 65.8698 71.887C65.8698 73.0479 64.9252 73.9923 63.7645 73.9923C62.6034 73.9923 61.6591 73.0479 61.6591 71.887C61.6591 70.7262 62.6034 69.7817 63.7645 69.7817ZM36.9936 21.5531C28.312 22.3171 21.4794 29.6283 21.4794 38.505C21.4794 47.3816 28.3117 54.6929 36.9934 55.4568V73.9916L33.2579 73.9895V69.654C33.2579 68.9452 32.7629 68.3327 32.0699 68.1838C28.4873 67.4141 25.1074 66.0135 22.024 64.0208C21.4287 63.6363 20.6458 63.7193 20.1444 64.2206L17.0874 67.2777L9.7082 59.8929L12.7626 56.8385C13.2637 56.3372 13.3471 55.5543 12.9622 54.9589C10.9697 51.8754 9.56909 48.4957 8.79969 44.9131C8.65081 44.2201 8.03826 43.7252 7.32947 43.7252H3.00995V33.2854H7.32932C8.03826 33.2854 8.65065 32.7903 8.79954 32.0974C9.56909 28.5148 10.9695 25.1351 12.9621 22.0516C13.3469 21.4564 13.2636 20.6733 12.7625 20.172L9.70805 17.1176L17.0873 9.73283L20.1443 12.79C20.6457 13.2914 21.4286 13.3742 22.0238 12.9897C25.1071 10.9972 28.487 9.59643 32.0698 8.82673C32.7628 8.67784 33.2577 8.0653 33.2577 7.35651V3.01398H36.9933V21.5531H36.9936ZM71.8848 19.47C70.7238 19.47 69.7795 18.5256 69.7795 17.3647C69.7795 16.2038 70.7239 15.2594 71.8848 15.2594C73.0457 15.2594 73.9901 16.2038 73.9901 17.3647C73.9901 18.5256 73.0457 19.47 71.8848 19.47Z" fill="white"/>
<path d="M71.8847 33.4106C69.5885 33.4106 67.6414 34.9321 66.9977 37.0199H62.5609C61.7304 37.0199 61.0571 37.6932 61.0571 38.5236C61.0571 39.3541 61.7306 40.0274 62.5609 40.0274H66.9976C67.6412 42.115 69.5883 43.6366 71.8845 43.6366C74.7039 43.6366 76.9975 41.343 76.9975 38.5236C76.9976 35.7042 74.7039 33.4106 71.8847 33.4106ZM71.8847 40.6289C70.7236 40.6289 69.7793 39.6845 69.7793 38.5236C69.7793 37.3628 70.7238 36.4183 71.8847 36.4183C73.0455 36.4183 73.99 37.3628 73.99 38.5236C73.99 39.6845 73.0454 40.6289 71.8847 40.6289Z" fill="white"/>
</g>
<defs>
<clipPath id="clip0_1049_1848">
<rect width="77" height="77" fill="white"/>
</clipPath>
</defs>
</svg>
