<svg width="157" height="32" viewBox="0 0 157 32" fill="none" xmlns="http://www.w3.org/2000/svg">
<path d="M122.066 15.8481H114.456V8.26213H111.718V15.8481H104.108V18.5634H111.718V26.1387H114.456V18.5634H122.066V15.8481Z" fill="#A0DCDD"/>
<path d="M65.7402 29.5408C65.2413 20.0214 60.3485 11.0936 52.6219 5.67361C47.867 2.33495 42.2418 0.401484 36.2983 0.0739573L35.6614 0.0422625L34.6213 0V31.0199H64.4984C64.5302 31.0199 64.5515 31.0199 64.5833 31.0199C64.6151 31.0199 64.647 31.0199 64.6788 31.0199L65.7508 31.0622V29.6782C65.7508 29.6359 65.7402 29.5936 65.7402 29.5408ZM52.0699 7.82894C52.0912 7.83951 52.1124 7.86064 52.1336 7.87121C52.3247 8.01912 52.5157 8.16704 52.7068 8.31495C52.7598 8.35721 52.8129 8.39948 52.866 8.4523C53.0146 8.57909 53.1738 8.69531 53.3223 8.82209C53.3966 8.88549 53.4709 8.94888 53.5452 9.01227C53.6726 9.11792 53.8 9.23414 53.9273 9.3398C54.0122 9.41375 54.0971 9.49828 54.182 9.57223C54.2882 9.67789 54.4049 9.77298 54.5111 9.87863C54.6066 9.96315 54.7021 10.0582 54.7976 10.1533C54.8932 10.2484 54.9887 10.3435 55.0842 10.4386C55.1797 10.5337 55.2752 10.6393 55.3814 10.7344C55.4663 10.8295 55.5618 10.914 55.6467 10.9986C55.7528 11.1042 55.859 11.2204 55.9545 11.3367C56.0288 11.4212 56.1031 11.5057 56.188 11.5797C56.2941 11.6959 56.4003 11.8227 56.5064 11.9494C56.5701 12.0234 56.6444 12.1079 56.7081 12.1819C56.8142 12.3087 56.931 12.446 57.0371 12.5728C57.1008 12.6468 57.1538 12.7207 57.2175 12.7947C57.3236 12.932 57.4298 13.0694 57.5359 13.2067C57.589 13.2807 57.6527 13.3441 57.7057 13.418C57.8119 13.5659 57.918 13.7139 58.0347 13.8618C58.0878 13.9252 58.1303 13.9991 58.1833 14.0625C58.3001 14.221 58.4062 14.3795 58.5124 14.538C58.5548 14.6014 58.5973 14.6542 58.6397 14.7176C58.7459 14.8761 58.852 15.0451 58.9581 15.2036C59.0006 15.267 59.0324 15.3198 59.0749 15.3832C59.181 15.5522 59.2871 15.7213 59.3933 15.8903C59.4251 15.9432 59.4676 16.0066 59.4994 16.0594C59.6055 16.2284 59.7011 16.408 59.8072 16.5771C59.8391 16.6299 59.8709 16.6933 59.9027 16.7461C59.9983 16.9152 60.0938 17.0948 60.1893 17.2744C60.2211 17.3272 60.253 17.3906 60.2848 17.4434C60.3803 17.6231 60.4652 17.8027 60.5608 17.9823C60.5926 18.0351 60.6245 18.0985 60.6457 18.1513C60.7306 18.3309 60.8155 18.5105 60.9004 18.6902C60.9322 18.7535 60.9641 18.8169 60.9853 18.8698C61.0702 19.0494 61.1445 19.229 61.2294 19.4086C61.2613 19.472 61.2825 19.5354 61.3143 19.5988C61.3886 19.7784 61.4629 19.958 61.5372 20.1376C61.5584 20.201 61.5903 20.2644 61.6221 20.3278C61.6964 20.5074 61.7601 20.687 61.8238 20.8666C61.845 20.9406 61.8768 21.004 61.9087 21.0779C61.9724 21.2575 62.0361 21.4266 62.0997 21.6062C62.121 21.6802 62.1528 21.7541 62.174 21.8281C62.2271 21.9971 62.2908 22.1767 62.3438 22.3458C62.3651 22.4303 62.3969 22.5043 62.4181 22.5888C62.4712 22.7578 62.5137 22.9269 62.5667 23.0959C62.588 23.1804 62.6198 23.265 62.641 23.3601C62.6835 23.5291 62.7259 23.6981 62.7684 23.8566C62.7896 23.9517 62.8215 24.0362 62.8427 24.1313C62.8851 24.2898 62.917 24.4589 62.9594 24.6173C62.9807 24.7124 63.0019 24.8075 63.0231 24.9132C63.0549 25.0716 63.0868 25.2301 63.1186 25.3886C63.1399 25.4943 63.1611 25.5999 63.1823 25.7056C63.2141 25.864 63.2354 26.012 63.2672 26.1704C63.2884 26.2761 63.3097 26.3923 63.3203 26.498C63.3415 26.6459 63.3627 26.7938 63.384 26.9417C63.4052 27.0579 63.4158 27.1742 63.437 27.2904C63.4583 27.4383 63.4689 27.5756 63.4901 27.7236C63.5007 27.8503 63.5219 27.9666 63.5326 28.0933C63.5432 28.2307 63.5538 28.368 63.575 28.516C63.5856 28.6322 63.5962 28.759 63.6068 28.8752C58.2682 28.4737 53.2162 26.6987 48.939 23.6876C41.934 18.7641 37.4233 10.7661 36.744 2.15534L36.882 2.1659V2.15534C37.0306 2.1659 37.1686 2.17647 37.3171 2.1976C37.4763 2.20816 37.6462 2.22929 37.8054 2.23986C37.9752 2.26099 38.1344 2.28212 38.3042 2.30325C38.4634 2.32438 38.6332 2.34552 38.7924 2.36665C38.9622 2.38778 39.1215 2.41947 39.2913 2.4406C39.4505 2.46173 39.6097 2.49343 39.7689 2.51456C39.9387 2.54626 40.0979 2.57795 40.2677 2.60965C40.4269 2.64134 40.5755 2.67304 40.7347 2.70474C40.9045 2.73643 41.0637 2.77869 41.2335 2.82096C41.3821 2.85265 41.5413 2.88435 41.6899 2.92661C41.8597 2.96887 42.0189 3.01113 42.1888 3.0534C42.3373 3.09566 42.4859 3.12735 42.6345 3.16961C42.8043 3.21188 42.9635 3.2647 43.1334 3.31753C43.282 3.35979 43.4305 3.40205 43.5685 3.45488C43.7383 3.50771 43.8975 3.56053 44.0674 3.62393C44.2053 3.67675 44.3539 3.71901 44.4919 3.77184C44.6617 3.83523 44.8209 3.89863 44.9907 3.96202C45.1287 4.01484 45.2667 4.06767 45.4047 4.1205C45.5745 4.18389 45.7337 4.25785 45.9035 4.32124C46.0415 4.37407 46.1688 4.4269 46.3068 4.49029C46.4766 4.56425 46.6358 4.6382 46.8056 4.71216C46.933 4.77555 47.0604 4.82838 47.1877 4.89177C47.3575 4.97629 47.5274 5.06082 47.6866 5.13477C47.8139 5.19817 47.9307 5.25099 48.058 5.31439C48.2279 5.39891 48.3977 5.494 48.5675 5.58909C48.6842 5.65248 48.801 5.71587 48.9177 5.77926C49.0982 5.87435 49.268 5.98 49.4484 6.08566C49.5545 6.14905 49.6607 6.20188 49.7668 6.26527C49.9579 6.38149 50.1489 6.49771 50.3293 6.62449C50.4142 6.67732 50.4991 6.73015 50.5841 6.78297C50.86 6.96258 51.1253 7.1422 51.3907 7.33237C51.6454 7.51199 51.8577 7.67046 52.0699 7.82894ZM36.7016 11.157C38.8986 16.8518 42.73 21.8598 47.7609 25.3992C49.8517 26.8678 52.1124 28.0616 54.4898 28.9703H36.7016V11.157Z" fill="#A0DCDD"/>
<path d="M50.8706 21.1308C53.8425 21.1308 56.2517 18.7325 56.2517 15.7741C56.2517 12.8157 53.8425 10.4175 50.8706 10.4175C47.8987 10.4175 45.4896 12.8157 45.4896 15.7741C45.4896 18.7325 47.8987 21.1308 50.8706 21.1308Z" fill="#A0DCDD"/>
<path d="M31.1189 0.0845234H0V2.04968H17.5866L0.21227 4.79668L0.520062 6.73015L17.905 3.99371L1.16749 9.40319L1.78307 11.2733L18.51 5.86379L2.83381 13.8089L3.73596 15.5628L19.4015 7.61764L5.16879 17.9083L6.33627 19.4931L20.569 9.20244L8.12996 21.5851L9.52033 22.9797L21.9594 10.5971L11.6218 24.7652L13.2138 25.9169L23.562 11.7487L15.57 27.3538L17.3319 28.2413L25.3133 12.6362L19.8791 29.2978L21.7577 29.9L27.1919 13.249L24.4429 30.5445L26.3958 30.8509L29.1447 13.5554V31.0622H31.1189V0.0845234Z" fill="#A0DCDD"/>
<path d="M93.675 31.0623H90.4378V19.1657H75.8442V15.9433H90.4484V3.30708H80.7158C79.2512 3.30708 77.9033 3.6663 76.6721 4.38475C75.4409 5.10319 74.4645 6.07521 73.7428 7.30079C73.021 8.52637 72.6602 9.87874 72.6602 11.3579V31.0623H69.4124V11.3579C69.4124 9.81535 69.699 8.35733 70.2828 6.99439C70.8665 5.63146 71.6731 4.42701 72.7132 3.3916C73.7534 2.34563 74.9527 1.54266 76.3218 0.961564C77.691 0.380468 79.1557 0.095203 80.7052 0.095203H93.675V31.0623Z" fill="#A0DCDD"/>
<path d="M100.531 31.0411H97.326V6.84637H100.531V31.0411Z" fill="#A0DCDD"/>
<path d="M100.537 3.27794V0.0871963H97.3313V3.27794H100.537Z" fill="#A0DCDD"/>
<path d="M156.709 31.0305H153.503V6.8358H156.709V31.0305Z" fill="#A0DCDD"/>
<path d="M156.714 3.26424V0.0734979H153.509V3.26424H156.714Z" fill="#A0DCDD"/>
<path d="M128.859 31.0622H125.622V0.11622H133.476C142.55 0.11622 149.937 7.05767 149.937 15.5945C149.937 24.1313 142.55 31.0728 133.476 31.0728H132.053V28.0722H133.476C140.884 28.0722 146.912 22.4831 146.912 15.6051C146.912 8.727 140.884 3.13792 133.476 3.13792H128.859V31.0622Z" fill="#A0DCDD"/>
</svg>
