<?xml version="1.0" encoding="UTF-8"?>
<svg id="Layer_1" xmlns="http://www.w3.org/2000/svg" version="1.1" viewBox="0 0 395.42 395.42">
  <!-- Generator: Adobe Illustrator 29.5.1, SVG Export Plug-In . SVG Version: 2.1.0 Build 141)  -->
  <defs>
    <style>
      .st0 {
        fill: #97d8d9;
      }

      .st1 {
        fill: #2239aa;
      }
    </style>
  </defs>
  <rect class="st1" width="395.42" height="395.42"/>
  <g>
    <rect class="st0" x="32.95" y="191.13" width="329.51" height="13.16"/>
    <rect class="st0" x="191.09" y="32.96" width="13.24" height="329.51"/>
  </g>
  <g>
    <g>
      <rect class="st0" x="153.94" y="238.93" width="8.16" height="124.61"/>
      <rect class="st0" x="85.97" y="296.38" width="124.61" height="8.16" transform="translate(-171.69 399.9) rotate(-81)"/>
      <rect class="st0" x="76.47" y="294.1" width="124.61" height="8.16" transform="translate(-187.7 338) rotate(-72)"/>
      <rect class="st0" x="67.43" y="290.36" width="124.61" height="8.16" transform="translate(-191.51 276.37) rotate(-63)"/>
      <rect class="st0" x="59.1" y="285.25" width="124.61" height="8.16" transform="translate(-184.02 217.46) rotate(-54)"/>
      <rect class="st0" x="51.66" y="278.9" width="124.61" height="8.16" transform="translate(-166.72 163.47) rotate(-45)"/>
      <rect class="st0" x="45.32" y="271.46" width="124.61" height="8.16" transform="translate(-141.42 115.9) rotate(-36)"/>
      <rect class="st0" x="40.21" y="263.13" width="124.61" height="8.16" transform="translate(-110.13 75.66) rotate(-27)"/>
      <rect class="st0" x="36.47" y="254.1" width="124.61" height="8.16" transform="translate(-74.96 43.16) rotate(-18)"/>
      <rect class="st0" x="34.18" y="244.59" width="124.61" height="8.16" transform="translate(-37.72 18.16) rotate(-9)"/>
      <rect class="st0" x="33.42" y="234.84" width="128.68" height="8.16"/>
    </g>
    <g>
      <path class="st0" d="M355.64,160.88h-122.63V32.96l4.26.15,2.61.13c24.37,1.36,47.5,9.33,66.99,23.09,31.7,22.38,51.82,59.17,53.85,98.44.02.19.04.39.04.58,0,2.22-1.52,4.2-3.01,5l-.94.5h-.59c-.19.02-.38.04-.58.04ZM241.52,152.37h110.53c-2.69-35.62-21.25-68.75-50.08-89.1-17.42-12.29-37.97-19.63-59.69-21.35v.05l-.77-.06v110.46Z"/>
      <g>
        <path class="st0" d="M360.76,161.03l-4.41-.16c-.28-.01-.56-.02-.84-.04-24.95-1.1-48.68-9.11-68.61-23.17-31.67-22.37-51.78-59.09-53.85-98.29l-.03-.12v-.85s.01-.18.01-.18c.07-.78.34-1.58.75-2.3v-1.36l6.11-1.32c24.37,1.36,47.5,9.33,66.99,23.09,31.7,22.38,51.82,59.17,53.85,98.44.02.19.04.39.04.58v5.69ZM241.73,41.88c2.76,35.51,21.31,68.53,50.07,88.84,17.57,12.4,38.32,19.75,60.23,21.39-2.76-35.52-21.31-68.54-50.06-88.84-17.56-12.4-38.32-19.75-60.24-21.39Z"/>
        <circle class="st0" cx="299.71" cy="97.96" r="22.11"/>
      </g>
    </g>
    <g>
      <path class="st0" d="M133.56,161.45h-13.27v-49.01h-59.87v-13.27h59.87v-52.06h-40.49c-6.02,0-11.54,1.48-16.59,4.45-5.04,2.96-9.05,6.97-12.01,12.01-2.96,5.04-4.45,10.61-4.45,16.72v81.17h-13.27v-81.17c0-6.37,1.19-12.36,3.58-17.98,2.39-5.62,5.71-10.57,9.95-14.86,4.25-4.29,9.18-7.63,14.79-10.02,5.62-2.39,11.61-3.58,17.98-3.58h53.75v127.61Z"/>
      <path class="st0" d="M161.28,161.45h-13.14V61.92h13.14v99.53Z"/>
      <rect class="st0" x="148.14" y="33.85" width="13.14" height="13.14"/>
    </g>
    <g>
      <path class="st0" d="M361.99,363.53h-13.33v-100.98h13.33v100.98Z"/>
      <rect class="st0" x="348.67" y="234.39" width="13.33" height="13.33" transform="translate(596.38 -114.28) rotate(90)"/>
      <path class="st0" d="M246.14,362.41h-12.43v-127.99h37.98c37.36,0,67.76,28.71,67.76,63.99s-30.4,63.99-67.76,63.99h-10.32v-12.43h10.32c30.51,0,55.33-23.13,55.33-51.57s-24.82-51.57-55.33-51.57h-25.56v115.56Z"/>
    </g>
  </g>
</svg>