<svg width="278" height="66" viewBox="0 0 278 66" fill="none" xmlns="http://www.w3.org/2000/svg">
<g opacity="0.55">
<g style="mix-blend-mode:overlay">
<rect x="90.9399" y="17.2173" width="4.26087" height="31.5652" rx="2.13043" fill="white"/>
</g>
<g style="mix-blend-mode:overlay">
<rect x="102.201" y="7.65234" width="4.26087" height="49.7391" rx="2.13043" fill="white"/>
</g>
<g style="mix-blend-mode:overlay">
<rect x="113.462" width="5.11304" height="65.9999" rx="2.55652" fill="white"/>
</g>
<g style="mix-blend-mode:overlay">
<rect x="83.9399" y="57.3911" width="4.26087" height="48.7826" rx="2.13044" transform="rotate(-180 83.9399 57.3911)" fill="white"/>
</g>
<g style="mix-blend-mode:overlay">
<rect x="141.097" y="48.7827" width="4.26087" height="31.5652" rx="2.13044" transform="rotate(-180 141.097 48.7827)" fill="white"/>
</g>
<g style="mix-blend-mode:overlay">
<rect x="129.836" y="57.3911" width="4.26087" height="49.7391" rx="2.13044" transform="rotate(-180 129.836 57.3911)" fill="white"/>
</g>
<g style="mix-blend-mode:overlay">
<rect x="50.1567" y="48.7827" width="4.26087" height="31.5652" rx="2.13044" transform="rotate(-180 50.1567 48.7827)" fill="white"/>
</g>
<g style="mix-blend-mode:overlay">
<rect x="38.896" y="57.3911" width="4.26087" height="49.7391" rx="2.13044" transform="rotate(-180 38.896 57.3911)" fill="white"/>
</g>
<g style="mix-blend-mode:overlay">
<rect x="27.635" y="66" width="5.11305" height="65.9999" rx="2.55652" transform="rotate(-180 27.635 66)" fill="white"/>
</g>
<g style="mix-blend-mode:overlay">
<rect x="57.157" y="8.60889" width="4.26087" height="48.7826" rx="2.13044" fill="white"/>
</g>
<g style="mix-blend-mode:overlay">
<rect x="68.418" width="4.26088" height="65.9999" rx="2.13044" fill="white"/>
</g>
<g style="mix-blend-mode:overlay">
<rect y="17.2173" width="4.26087" height="31.5652" rx="2.13044" fill="white"/>
</g>
<g style="mix-blend-mode:overlay">
<rect x="11.261" y="7.65234" width="4.26087" height="49.7391" rx="2.13044" fill="white"/>
</g>
<g style="mix-blend-mode:overlay">
<rect x="227.776" y="17.2173" width="4.26087" height="31.5652" rx="2.13043" fill="white"/>
</g>
<g style="mix-blend-mode:overlay">
<rect x="239.037" y="7.65234" width="4.26087" height="49.7391" rx="2.13043" fill="white"/>
</g>
<g style="mix-blend-mode:overlay">
<rect x="250.298" width="5.11304" height="65.9999" rx="2.55652" fill="white"/>
</g>
<g style="mix-blend-mode:overlay">
<rect x="220.776" y="57.3911" width="4.26087" height="48.7826" rx="2.13044" transform="rotate(-180 220.776 57.3911)" fill="white"/>
</g>
<g style="mix-blend-mode:overlay">
<rect x="277.933" y="48.7827" width="4.26087" height="31.5652" rx="2.13044" transform="rotate(-180 277.933 48.7827)" fill="white"/>
</g>
<g style="mix-blend-mode:overlay">
<rect x="266.672" y="57.3911" width="4.26087" height="49.7391" rx="2.13044" transform="rotate(-180 266.672 57.3911)" fill="white"/>
</g>
<g style="mix-blend-mode:overlay">
<rect x="186.993" y="48.7827" width="4.26087" height="31.5652" rx="2.13044" transform="rotate(-180 186.993 48.7827)" fill="white"/>
</g>
<g style="mix-blend-mode:overlay">
<rect x="175.732" y="57.3911" width="4.26087" height="49.7391" rx="2.13044" transform="rotate(-180 175.732 57.3911)" fill="white"/>
</g>
<g style="mix-blend-mode:overlay">
<rect x="164.471" y="66" width="5.11305" height="65.9999" rx="2.55652" transform="rotate(-180 164.471 66)" fill="white"/>
</g>
<g style="mix-blend-mode:overlay">
<rect x="193.993" y="8.60889" width="4.26087" height="48.7826" rx="2.13044" fill="white"/>
</g>
<g style="mix-blend-mode:overlay">
<rect x="205.254" width="4.26088" height="65.9999" rx="2.13044" fill="white"/>
</g>
<g style="mix-blend-mode:overlay">
<rect x="148.097" y="7.65234" width="4.26087" height="49.7391" rx="2.13044" fill="white"/>
</g>
</g>
</svg>
