<svg width="1440" height="718" viewBox="0 0 1440 718" fill="none" xmlns="http://www.w3.org/2000/svg">
<rect width="1440" height="615" fill="#DAF3F4"/>
<rect width="1440" height="615" fill="white"/>
<rect width="1440" height="615" fill="#DAF3F4"/>
<path d="M0 0.000976562L0 615L644 615L1106 0.00119558L0 0.000976562Z" fill="#C7EFF0"/>
<path d="M0 0.000976562L0 615L644 615L1106 0.00119558L0 0.000976562Z" fill="#0036AF"/>
<path d="M0 0.000976562L0 615L644 615L1106 0.00119558L0 0.000976562Z" fill="url(#paint0_linear_1053_682)" fill-opacity="0.2"/>
<g style="mix-blend-mode:color-burn" opacity="0.4">
<path d="M1106 0L720 513L333 0H1106Z" fill="#C7EFF0"/>
<path d="M1106 0L720 513L333 0H1106Z" fill="#0036AF"/>
</g>
<path d="M644 615L720 513L797 615L644 615Z" fill="#C7EFF0"/>
<path d="M644 615L720 513L797 615L644 615Z" fill="url(#paint1_linear_1053_682)" fill-opacity="0.11" style="mix-blend-mode:overlay"/>
<path d="M797 615L720 717.16L644 615H797Z" fill="#DAF3F4"/>
<path d="M797 615L720 717.16L644 615H797Z" fill="url(#paint2_linear_1053_682)" fill-opacity="0.15" style="mix-blend-mode:color-burn"/>
<path d="M719.918 547.068L770.539 614.952L719.918 683.259L669.574 614.952L719.918 547.068Z" fill="#C7EFF0"/>
<path d="M719.918 547.068L770.539 614.952L719.918 683.259L669.574 614.952L719.918 547.068Z" fill="#A0DCDD"/>
<defs>
<linearGradient id="paint0_linear_1053_682" x1="477.5" y1="4.17446e-05" x2="477.5" y2="635" gradientUnits="userSpaceOnUse">
<stop stop-opacity="0"/>
<stop offset="1"/>
</linearGradient>
<linearGradient id="paint1_linear_1053_682" x1="687.034" y1="552.7" x2="764.125" y2="632.585" gradientUnits="userSpaceOnUse">
<stop stop-color="#6DC9CB"/>
<stop offset="1" stop-color="#DAF3F4"/>
</linearGradient>
<linearGradient id="paint2_linear_1053_682" x1="720.124" y1="513.182" x2="720.124" y2="716.818" gradientUnits="userSpaceOnUse">
<stop stop-opacity="0.64"/>
<stop offset="0.498552" stop-opacity="0.57"/>
<stop offset="1" stop-opacity="0.41"/>
</linearGradient>
</defs>
</svg>
