<svg width="121" height="146" viewBox="0 0 121 146" fill="none" xmlns="http://www.w3.org/2000/svg">
<path d="M77.5648 51.5918C84.2848 54.2942 90.022 57.9608 95.0293 62.811C95.5431 63.3076 96.7297 63.4938 97.4514 63.2828C99.5147 62.6868 101.488 61.7681 103.523 61.0522C107.177 59.7734 109.656 61.4701 109.754 65.4306C109.86 69.6187 109.835 73.8109 109.758 77.999C109.729 79.5385 110.174 80.2916 111.699 80.8793C117.566 83.1513 120.963 88.1712 121 94.1926C121.036 100.293 117.562 105.205 111.621 107.833C110.802 108.197 109.909 109.492 109.872 110.39C109.692 114.86 109.745 119.338 109.798 123.811C109.831 126.53 108.738 128.239 106.157 129.212C91.6693 134.666 77.2264 140.249 62.7182 145.645C61.3685 146.146 59.5132 146.105 58.1513 145.596C43.7328 140.22 29.3836 134.658 14.9774 129.253C12.2657 128.235 11.1566 126.497 11.2055 123.662C11.2789 119.284 11.1688 114.901 11.2504 110.523C11.2789 108.975 10.8222 108.234 9.30537 107.647C3.43767 105.383 0.0328487 100.355 0.000227693 94.3333C-0.0323933 88.225 3.44175 83.3168 9.38285 80.6972C10.2024 80.3372 11.0914 79.0418 11.1321 78.1397C11.3197 74.0551 11.1729 69.9539 11.2341 65.861C11.3034 61.3832 13.9661 59.2727 17.8398 61.2715C22.7045 63.7794 26.5048 63.7173 30.2358 59.2644C31.8098 57.3855 34.289 56.2226 36.4787 54.948C38.6398 53.6858 40.9518 52.6884 43.4718 51.4428C35.6917 44.8089 31.7119 36.5321 32.4418 26.3226C32.9882 18.6873 36.2422 12.2727 41.8856 7.15767C53.0298 -2.93591 69.9927 -2.24893 80.5986 8.55231C90.2136 18.3438 93.3575 37.6081 77.5689 51.5959L77.5648 51.5918ZM55.9901 135.585C56.1043 134.641 56.247 133.996 56.247 133.354C56.2592 117.93 56.2266 102.511 56.3 87.0869C56.3082 85.2826 55.5294 84.6204 54.0451 84.0659C44.8174 80.6186 35.6183 77.1009 26.4069 73.6122C24.3233 72.8218 22.2355 72.0521 19.6992 71.1044C19.6992 73.6164 19.7604 75.6897 19.6789 77.7548C19.6218 79.2363 19.9806 80.1427 21.473 80.8338C23.9767 81.9884 25.2407 84.2397 25.2774 87.0331C25.3427 91.8875 25.5099 96.7584 25.1755 101.588C25.0491 103.388 24.0664 106.037 22.733 106.662C19.2956 108.271 19.6177 110.899 19.687 113.726C19.7319 115.534 19.8134 117.355 19.6625 119.151C19.4954 121.175 20.2171 122.148 22.1581 122.859C32.4581 126.65 42.693 130.611 52.9523 134.509C53.8942 134.865 54.8525 135.184 55.982 135.585H55.9901ZM64.8834 135.734C76.9614 131.132 88.5255 126.749 100.049 122.255C100.648 122.019 101.207 120.84 101.24 120.078C101.37 116.846 101.411 113.598 101.219 110.374C101.166 109.496 100.375 108.371 99.6003 107.887C97.1497 106.359 95.7388 104.286 95.7062 101.377C95.6532 96.6177 95.6491 91.8544 95.7144 87.0952C95.7551 84.1859 97.1497 82.0629 99.6819 80.6558C100.281 80.3247 101.154 79.7495 101.182 79.2405C101.337 76.6664 101.252 74.0757 101.252 71.1747C99.8124 71.6713 98.9316 71.9527 98.0631 72.2797C87.8935 76.1491 77.7483 80.1013 67.5339 83.8424C65.4217 84.6163 64.6673 85.564 64.6836 87.8815C64.7937 102.734 64.7366 117.587 64.7448 132.44C64.7448 133.371 64.8223 134.302 64.8834 135.73V135.734ZM60.398 8.56887C49.5679 8.61025 40.7683 17.6403 40.8091 28.6567C40.8499 39.6442 49.7514 48.5831 60.6019 48.5418C71.428 48.4962 80.2357 39.4662 80.1949 28.4498C80.1541 17.4582 71.2608 8.52748 60.398 8.56887ZM86.9638 67.3177C70.9876 52.4981 45.9061 55.2336 34.2645 67.3922C42.6359 70.5871 50.9461 73.7819 59.2848 76.8981C60.0066 77.1671 60.9974 77.1796 61.7192 76.9106C70.0579 73.7943 78.3641 70.5995 86.9678 67.3177H86.9638ZM16.6736 88.7423C13.5787 88.2622 10.8997 88.5395 9.24421 91.4364C8.01276 93.5925 8.14325 95.8396 9.70498 97.793C11.5603 100.119 14.0232 100.355 16.6736 99.6884V88.7423ZM104.363 88.7174V99.796C107.393 100.264 110.271 100.098 111.556 97.2177C112.29 95.5706 112.306 93.0669 111.605 91.4033C110.369 88.4816 107.474 88.2953 104.363 88.7174Z" fill="white"/>
</svg>
