<svg width="130" height="180" viewBox="0 0 130 180" fill="none" xmlns="http://www.w3.org/2000/svg">
<path d="M36.0914 148.361C21.8088 127.268 1.25571 103.187 0.0364624 76.2936C-0.137716 73.4812 0.210641 71.3719 3.34586 71.0204C6.13271 70.6689 16.4093 70.6688 18.8478 71.1962C19.3703 71.3719 20.4154 71.7235 20.5895 72.2508C21.983 74.0086 24.0731 83.5003 25.2924 86.4885C27.2083 91.4101 29.9952 96.3318 32.782 100.726C34.8722 104.242 42.7102 116.37 45.8454 117.6C46.5421 117.952 47.9356 118.479 48.6323 117.952C35.3947 103.187 47.5872 79.8091 67.2694 81.9184C84.5131 83.8519 92.5253 104.769 81.2037 117.952C82.9455 118.479 85.5582 116.897 86.6032 115.667C91.8286 110.042 101.06 94.5741 104.021 87.3673C105.24 84.3792 107.853 73.3055 109.421 71.8993C110.117 71.1962 110.814 71.0204 111.685 71.0204C113.949 70.6689 125.968 70.6688 127.709 71.1962C129.451 71.7235 129.974 73.4812 129.974 75.239C128.929 102.66 108.201 126.916 93.7446 148.361V180H86.6032V146.251C100.712 124.807 118.826 104.945 122.136 78.4029H114.646C112.73 82.6214 111.859 87.1916 109.943 91.4101C106.285 100.023 99.4924 110.569 93.7446 117.776C90.6093 121.995 88.1708 124.983 82.2488 125.51C73.5398 126.389 57.167 126.213 48.4581 125.51C39.9234 124.807 37.4849 120.061 32.9562 113.909C28.2534 107.406 23.2022 99.8473 20.067 92.4648C18.151 87.8947 16.9318 82.973 15.0158 78.4029H7.70032C10.8355 105.296 29.6468 124.807 43.4069 146.603V180H36.2656V148.361H36.0914ZM62.5666 89.3008C42.536 91.9375 49.5032 124.807 70.0563 117.249C85.9065 111.448 79.9844 87.0158 62.5666 89.3008Z" fill="white"/>
<path d="M50.7817 20.9897C55.9904 20.3637 61.3261 22.3669 64.8832 25.9977C66.4077 24.9961 67.6781 23.6189 69.3296 22.7425C80.0009 17.3589 91.9427 23.7441 91.3075 35.8884C90.7993 46.6556 79.3657 57.5479 71.2352 63.6827C70.2189 64.4339 66.6617 67.1883 65.7725 67.3135C63.8669 67.6891 60.4368 64.8095 58.7853 63.6827C49.3843 56.6715 35.791 43.5256 39.2211 30.6301C40.6185 25.4969 45.319 21.6157 50.7817 20.9897ZM51.4169 26.1229C47.0976 26.6237 44.3027 29.7537 43.9216 34.0104C43.0323 44.6524 56.8797 56.2959 65.0102 61.5543C73.0137 55.9203 86.7341 44.6524 85.9718 34.0104C85.2096 24.8709 73.903 23.6189 68.5673 30.1293C67.6781 31.2561 67.1699 33.134 65.6454 33.5096C62.8505 34.1356 62.4694 31.6316 61.072 30.0041C58.7853 26.9993 55.2281 25.7473 51.4169 26.1229Z" fill="white"/>
<path d="M35.5965 8.61683C36.0469 8.50075 36.1595 8.61683 36.3847 8.84898C36.9477 9.19721 42.2397 14.6528 42.3523 15.001L39.3122 18.3672L32.5564 11.6348L35.5965 8.61683Z" fill="white"/>
<path d="M94.1036 9.80733C94.7942 9.60595 97.6715 12.1232 97.4413 12.7273C97.3262 13.1301 91.2263 18.4666 90.7659 18.3659L87.6584 15.4459L94.1036 9.80733Z" fill="white"/>
<path d="M66.8422 0H63.1687V11.0204H66.8422V0Z" fill="white"/>
<path d="M32.5563 36.7349H21.5359V41.6328H32.5563V36.7349Z" fill="white"/>
<path d="M108.475 36.7349H97.4543V41.6328H108.475V36.7349Z" fill="white"/>
</svg>
