<svg width="139" height="138" viewBox="0 0 139 138" fill="none" xmlns="http://www.w3.org/2000/svg">
<path d="M138.124 128.14C136.455 121.575 131.84 116.196 126.135 112.761C136.157 103.613 130.775 85.5648 117.227 83.9539C100.349 81.9479 91.356 100.877 102.973 112.761L95.0824 118.53C92.7808 113.442 87.4288 108.962 82.2838 106.974C100.118 92.2331 85.3769 64.0277 62.9338 70.9453C47.2857 75.7719 43.876 96.932 56.7111 106.974C51.5661 108.956 46.2141 113.442 43.9125 118.53L36.0215 112.761C45.7026 104.002 41.0447 86.4097 28.1305 84.1606C10.8019 81.1394 0.932069 100.439 12.866 112.761C7.16086 116.196 2.55168 121.569 0.877271 128.14C-0.13955 132.128 -1.33903 137.368 4.03733 138H134.97C140.346 137.368 139.141 132.128 138.13 128.14H138.124ZM111.954 91.3213C127.334 88.1361 127.907 111.849 113.093 109.977C102.833 108.682 102.754 93.2301 111.954 91.3213ZM79.0263 81.0665C91.5083 93.5279 72.4627 112.548 59.9746 100.087C47.4927 87.6254 66.5383 68.605 79.0263 81.0665ZM91.971 130.347C79.9762 130.408 65.5459 130.56 52.0471 130.693H46.9752C50.671 105.047 87.9707 104.926 91.971 130.347ZM21.8408 91.3213C37.221 88.1361 37.7933 111.849 22.9794 109.977C12.7199 108.682 12.6407 93.2301 21.8408 91.3213ZM8.0011 131.107C10.1809 117.369 29.6405 112.542 37.836 123.709C39.6078 126.122 40.5637 127.952 40.9047 130.815C24.5869 130.955 8.0011 131.107 8.0011 131.107ZM99.1496 130.317C99.1923 128.28 100.02 126.189 101.457 124.037C109.178 112.481 129.003 116.773 130.994 130.693C130.994 130.693 111.376 130.298 99.1496 130.317Z" fill="white"/>
<path d="M34.1828 42.5513L7.45318 51.1224L7.34967 83.5465H0.128418L0.35979 47.3779C0.35979 47.3779 17.0734 40.6669 17.0795 40.6669L17.116 23.4762L33.8966 15.2091L33.9088 0L104.818 0.0607876V15.1969L121.867 23.7072L121.928 40.6669L138.927 46.1986L138.879 83.5465L131.597 82.9872L131.548 51.1224L104.818 42.5513V76.8963H97.5118V6.68664H41.4954V76.8963H34.1889V42.5513H34.1828ZM34.1828 34.6489V23.0993L24.4408 27.5976V38.2232L34.1828 34.655V34.6489ZM114.554 38.2962V27.6584L104.812 23.0993V34.6489L114.554 38.2962Z" fill="white"/>
<path d="M53.356 13.4341H53.3499C51.3054 13.4341 49.6479 15.0888 49.6479 17.13V22.6981C49.6479 24.7393 51.3054 26.394 53.3499 26.394H53.356C55.4005 26.394 57.058 24.7393 57.058 22.6981V17.13C57.058 15.0888 55.4005 13.4341 53.356 13.4341Z" fill="white"/>
<path d="M70.3863 13.4341H70.3802C68.3356 13.4341 66.6782 15.0888 66.6782 17.13V22.6981C66.6782 24.7393 68.3356 26.394 70.3802 26.394H70.3863C72.4308 26.394 74.0882 24.7393 74.0882 22.6981V17.13C74.0882 15.0888 72.4308 13.4341 70.3863 13.4341Z" fill="white"/>
<path d="M87.4166 13.4341H87.4105C85.3659 13.4341 83.7085 15.0888 83.7085 17.13V22.6981C83.7085 24.7393 85.3659 26.394 87.4105 26.394H87.4166C89.4611 26.394 91.1185 24.7393 91.1185 22.6981V17.13C91.1185 15.0888 89.4611 13.4341 87.4166 13.4341Z" fill="white"/>
<path d="M53.356 32.3936H53.3499C51.3054 32.3936 49.6479 34.0483 49.6479 36.0894V41.6576C49.6479 43.6988 51.3054 45.3535 53.3499 45.3535H53.356C55.4005 45.3535 57.058 43.6988 57.058 41.6576V36.0894C57.058 34.0483 55.4005 32.3936 53.356 32.3936Z" fill="white"/>
<path d="M70.3863 32.3936H70.3802C68.3356 32.3936 66.6782 34.0483 66.6782 36.0894V41.6576C66.6782 43.6988 68.3356 45.3535 70.3802 45.3535H70.3863C72.4308 45.3535 74.0882 43.6988 74.0882 41.6576V36.0894C74.0882 34.0483 72.4308 32.3936 70.3863 32.3936Z" fill="white"/>
<path d="M87.4166 32.3936H87.4105C85.3659 32.3936 83.7085 34.0483 83.7085 36.0894V41.6576C83.7085 43.6988 85.3659 45.3535 87.4105 45.3535H87.4166C89.4611 45.3535 91.1185 43.6988 91.1185 41.6576V36.0894C91.1185 34.0483 89.4611 32.3936 87.4166 32.3936Z" fill="white"/>
<path d="M53.356 51.3535H53.3499C51.3054 51.3535 49.6479 53.0082 49.6479 55.0494V60.6175C49.6479 62.6587 51.3054 64.3134 53.3499 64.3134H53.356C55.4005 64.3134 57.058 62.6587 57.058 60.6175V55.0494C57.058 53.0082 55.4005 51.3535 53.356 51.3535Z" fill="white"/>
<path d="M70.3863 51.3535H70.3802C68.3356 51.3535 66.6782 53.0082 66.6782 55.0494V60.6175C66.6782 62.6587 68.3356 64.3134 70.3802 64.3134H70.3863C72.4308 64.3134 74.0882 62.6587 74.0882 60.6175V55.0494C74.0882 53.0082 72.4308 51.3535 70.3863 51.3535Z" fill="white"/>
<path d="M87.4166 51.3535H87.4105C85.3659 51.3535 83.7085 53.0082 83.7085 55.0494V60.6175C83.7085 62.6587 85.3659 64.3134 87.4105 64.3134H87.4166C89.4611 64.3134 91.1185 62.6587 91.1185 60.6175V55.0494C91.1185 53.0082 89.4611 51.3535 87.4166 51.3535Z" fill="white"/>
<path d="M118.652 58.2954H118.646C116.601 58.2954 114.944 59.9501 114.944 61.9913V67.5594C114.944 69.6006 116.601 71.2553 118.646 71.2553H118.652C120.696 71.2553 122.354 69.6006 122.354 67.5594V61.9913C122.354 59.9501 120.696 58.2954 118.652 58.2954Z" fill="white"/>
<path d="M21.5728 58.2954H21.5667C19.5222 58.2954 17.8647 59.9501 17.8647 61.9913V67.5594C17.8647 69.6006 19.5222 71.2553 21.5667 71.2553H21.5728C23.6173 71.2553 25.2748 69.6006 25.2748 67.5594V61.9913C25.2748 59.9501 23.6173 58.2954 21.5728 58.2954Z" fill="white"/>
</svg>
