<svg width="163" height="156" viewBox="0 0 163 156" fill="none" xmlns="http://www.w3.org/2000/svg">
<path d="M77.6455 108.029H84.3981V155.292H77.6455V108.029Z" fill="white"/>
<path d="M30.3831 94.5259H131.66V101.277H30.3831V94.5259Z" fill="white"/>
<path d="M145.165 50.6388C135.856 50.6388 128.284 43.0665 128.284 33.7597C128.284 24.4517 135.856 16.8794 145.165 16.8794C154.471 16.8794 162.044 24.4517 162.044 33.7597C162.044 43.0665 154.471 50.6388 145.165 50.6388ZM145.165 23.632C139.58 23.632 135.037 28.1754 135.037 33.7597C135.037 39.3428 139.58 43.8874 145.165 43.8874C150.748 43.8874 155.292 39.3428 155.292 33.7597C155.292 28.1754 150.748 23.632 145.165 23.632Z" fill="white"/>
<path d="M111.405 155.292C110.96 155.292 110.507 155.207 110.075 155.018C108.36 154.282 107.566 152.298 108.303 150.586L118.431 126.954C118.96 125.713 120.183 124.909 121.533 124.909H145.164C150.748 124.909 155.292 120.364 155.292 114.781V70.8942C155.292 67.1704 152.263 64.1428 148.539 64.1428H145.164C142.794 64.1428 140.637 65.7091 137.731 69.5577C134.469 73.865 124.571 86.0177 124.152 86.5308C123.507 87.3183 122.549 87.7733 121.533 87.7733H104.654C102.789 87.7733 101.277 89.2865 101.277 91.1496V97.901C101.277 99.7678 99.7678 101.277 97.901 101.277C96.0342 101.277 94.5259 99.7678 94.5259 97.901V91.1496C94.5259 85.5652 99.0693 81.0219 104.654 81.0219H119.926C122.586 77.7469 129.757 68.9025 132.343 65.4829C135.195 61.7147 139.225 57.3901 145.164 57.3901H148.539C155.987 57.3901 162.044 63.4467 162.044 70.8942V114.781C162.044 124.088 154.471 131.66 145.164 131.66H123.758L114.507 153.246C113.96 154.526 112.714 155.292 111.405 155.292Z" fill="white"/>
<path d="M97.901 155.292C97.5499 155.292 97.1889 155.234 96.8341 155.117C95.0686 154.529 94.1105 152.618 94.7015 150.845L105.896 117.259C107.728 111.742 112.88 108.029 118.704 108.029H128.284V97.901C128.284 96.0342 129.794 94.5259 131.66 94.5259C133.527 94.5259 135.037 96.0342 135.037 97.901V111.405C135.037 113.272 133.527 114.781 131.66 114.781H118.704C115.794 114.781 113.217 116.634 112.303 119.393L101.105 152.983C100.632 154.397 99.3153 155.292 97.901 155.292Z" fill="white"/>
<path d="M131.657 101.277C130.952 101.277 130.242 101.058 129.635 100.602C128.143 99.4846 127.839 97.3681 128.959 95.8796L139.087 82.3756C140.204 80.8834 142.321 80.583 143.811 81.7006C145.303 82.8182 145.606 84.9347 144.486 86.4232L134.358 99.9272C133.699 100.811 132.686 101.277 131.657 101.277Z" fill="white"/>
<path d="M16.8791 50.6388C7.57229 50.6388 0 43.0665 0 33.7597C0 24.4517 7.57229 16.8794 16.8791 16.8794C26.1871 16.8794 33.7594 24.4517 33.7594 33.7597C33.7594 43.0665 26.1871 50.6388 16.8791 50.6388ZM16.8791 23.632C11.296 23.632 6.75139 28.1754 6.75139 33.7597C6.75139 39.3428 11.296 43.8874 16.8791 43.8874C22.4634 43.8874 27.0068 39.3428 27.0068 33.7597C27.0068 28.1754 22.4634 23.632 16.8791 23.632Z" fill="white"/>
<path d="M50.6385 155.292C49.3293 155.292 48.0831 154.526 47.5367 153.246L38.2855 131.66H16.8791C7.57229 131.66 0 124.088 0 114.781V70.8942C0 63.4467 6.0566 57.3901 13.504 57.3901H16.8791C22.8182 57.3901 26.8523 61.7147 29.6982 65.4829C32.287 68.9025 39.4538 77.7469 42.1143 81.0219H57.3899C62.9743 81.0219 67.5176 85.5652 67.5176 91.1496V97.901C67.5176 99.7678 66.0057 101.277 64.1426 101.277C62.2782 101.277 60.7662 99.7678 60.7662 97.901V91.1496C60.7662 89.2865 59.2505 87.7733 57.3899 87.7733H40.5108C39.4946 87.7733 38.5365 87.3183 37.8948 86.5308C37.4757 86.0177 27.5743 73.865 24.3166 69.554C21.4064 65.7091 19.2528 64.1428 16.8791 64.1428H13.504C9.78031 64.1428 6.75139 67.1704 6.75139 70.8942V114.781C6.75139 120.364 11.296 124.909 16.8791 124.909H40.5108C41.8609 124.909 43.0836 125.713 43.6127 126.954L53.7404 150.586C54.4772 152.298 53.6798 154.282 51.9688 155.018C51.5361 155.207 51.0836 155.292 50.6385 155.292Z" fill="white"/>
<path d="M64.1428 155.292C62.7285 155.292 61.4119 154.397 60.9384 152.983L49.7437 119.395C48.8264 116.638 46.25 114.781 43.3397 114.781H30.3834C28.5203 114.781 27.0071 113.272 27.0071 111.405V97.901C27.0071 96.0342 28.5203 94.5259 30.3834 94.5259C32.2465 94.5259 33.7597 96.0342 33.7597 97.901V108.029H43.3397C49.1639 108.029 54.3118 111.739 56.1514 117.259L67.3461 150.845C67.937 152.614 66.9814 154.529 65.2122 155.117C64.8549 155.234 64.4939 155.292 64.1428 155.292Z" fill="white"/>
<path d="M30.3867 101.277C29.3605 101.277 28.3468 100.811 27.6817 99.9272L17.554 86.4232C16.4339 84.9347 16.738 82.8182 18.2302 81.7006C19.7286 80.583 21.8414 80.8834 22.9566 82.3756L33.0843 95.8796C34.2043 97.3681 33.9002 99.4846 32.408 100.602C31.801 101.058 31.0889 101.277 30.3867 101.277Z" fill="white"/>
<path d="M108.029 87.773C106.162 87.773 104.654 86.2647 104.654 84.3979V60.7662C104.654 53.3187 98.5969 47.2621 91.1495 47.2621H70.8941C63.4467 47.2621 57.3901 53.3187 57.3901 60.7662V70.8939C57.3901 72.757 55.8781 74.2702 54.015 74.2702C52.1507 74.2702 50.6387 72.757 50.6387 70.8939V60.7662C50.6387 49.595 59.7229 40.5107 70.8941 40.5107H91.1495C102.321 40.5107 111.405 49.595 111.405 60.7662V84.3979C111.405 86.2647 109.895 87.773 108.029 87.773Z" fill="white"/>
<path d="M81.0217 33.7594C71.7149 33.7594 64.1426 26.1871 64.1426 16.8791C64.1426 7.57229 71.7149 0 81.0217 0C90.3285 0 97.9008 7.57229 97.9008 16.8791C97.9008 26.1871 90.3285 33.7594 81.0217 33.7594ZM81.0217 6.75139C75.4373 6.75139 70.894 11.296 70.894 16.8791C70.894 22.4634 75.4373 27.0068 81.0217 27.0068C86.606 27.0068 91.1494 22.4634 91.1494 16.8791C91.1494 11.296 86.606 6.75139 81.0217 6.75139Z" fill="white"/>
<path d="M77.6455 54.0151H84.3981V60.7665H77.6455V54.0151Z" fill="white"/>
</svg>
