<svg width="163" height="166" viewBox="0 0 163 166" fill="none" xmlns="http://www.w3.org/2000/svg">
<path d="M0 106.987C5.67293 94.7712 13.7984 84.436 23.6455 75.4763C34.7436 65.3808 47.3281 57.9607 61.8077 54.137C81.7497 48.8747 100.763 51.7267 118.797 61.4436C137.166 71.3371 151.15 85.8115 161.035 104.387C161.48 105.233 161.84 106.129 162.248 106.999V109.574C161.852 110.444 161.493 111.34 161.035 112.186C150.94 130.673 136.894 145.223 118.549 155.205C100.626 164.96 81.663 167.66 61.8449 162.423C46.9813 158.499 34.1119 150.814 22.828 140.34C13.3525 131.531 5.51191 121.436 0 109.574V106.999L0 106.987ZM83.7191 64.4596C71.6301 64.4344 61.4733 66.7689 52.7781 71.009C36.2176 79.0854 23.8561 91.7678 14.2319 107.416C13.9594 107.845 13.9965 108.766 14.269 109.22C21.9733 121.84 31.5727 132.667 44.0086 140.592C65.152 154.069 87.2616 156.126 110.028 145.223C126.427 137.361 138.516 124.603 148.103 109.182C148.623 108.35 148.363 107.832 147.967 107.176C141.96 97.4717 134.776 88.8023 125.969 81.584C112.914 70.8955 98.2111 64.611 83.7315 64.4596H83.7191Z" fill="#00C6EF"/>
<path d="M82.3935 0C86.1094 1.27455 87.571 3.92461 87.5091 7.87446C87.3728 15.9761 87.4843 24.0903 87.4595 32.1919C87.4471 35.3215 85.4901 37.7444 82.5421 38.4889C79.8295 39.1704 76.8444 37.8706 75.6058 35.2584C75.098 34.1857 74.8379 32.8986 74.8255 31.7124C74.7635 23.7622 74.8874 15.812 74.7511 7.87446C74.6892 3.92461 76.1508 1.27455 79.8667 0H82.4059L82.3935 0Z" fill="#00C6EF"/>
<path d="M56.5805 37.3534C56.407 40.4325 54.4128 42.9437 51.4525 43.663C48.6284 44.3445 45.6681 42.9311 44.3799 40.1044C42.5344 36.0788 40.8003 31.9902 39.0167 27.9267C37.6046 24.6962 36.1802 21.4657 34.7929 18.2225C33.2322 14.5881 34.4956 10.9033 37.7656 9.37634C41.1099 7.82416 44.7144 9.31325 46.3494 13.0107C49.4831 20.0901 52.5921 27.1948 55.6763 34.2995C56.0974 35.2586 56.2832 36.3312 56.5805 37.3408V37.3534Z" fill="#00C6EF"/>
<path d="M128.335 15.3202C128.05 16.2919 127.877 17.3014 127.48 18.21C124.384 25.3652 121.275 32.5203 118.116 39.6629C116.518 43.272 112.963 44.7485 109.632 43.272C106.324 41.7955 104.962 38.0855 106.51 34.489C109.644 27.2328 112.815 19.9893 116.023 12.7585C117.373 9.72984 120.234 8.29124 123.269 8.9853C126.167 9.65412 128.199 12.2537 128.335 15.3202Z" fill="#00C6EF"/>
<path d="M161.914 40.0787C161.815 41.9969 161.208 43.6122 159.845 44.8615C155.114 49.2151 150.407 53.594 145.613 57.872C142.876 60.3075 139.024 59.992 136.683 57.3167C134.354 54.6541 134.552 50.7421 137.252 48.2308C141.922 43.8898 146.629 39.5992 151.361 35.3339C153.417 33.4788 155.82 33.2138 158.284 34.3622C160.663 35.4727 161.74 37.5423 161.914 40.0787Z" fill="#00C6EF"/>
<path d="M6.92408 33.3652C8.2618 34.0341 9.81009 34.4379 10.9001 35.3969C15.6936 39.6118 20.388 43.9402 25.0576 48.2939C27.7455 50.8051 27.8693 54.7676 25.5036 57.3924C23.1749 59.9794 19.3476 60.2822 16.6721 57.8846C11.8291 53.5562 7.06033 49.1646 2.31637 44.7226C0.297397 42.8297 -0.148511 40.1292 0.89194 37.6306C1.90762 35.195 4.12477 33.7186 6.92408 33.3652Z" fill="#00C6EF"/>
<path d="M81.1799 76.6494C98.3845 76.6746 112.257 90.8209 112.232 108.324C112.208 125.814 98.273 139.935 81.0684 139.897C63.8638 139.872 49.9911 125.713 50.0159 108.21C50.0407 90.7073 63.9629 76.6115 81.1675 76.6368L81.1799 76.6494ZM81.1303 127.013C91.3119 127.013 99.5364 118.659 99.5488 108.311C99.5612 97.9508 91.3614 89.5716 81.1923 89.5463C70.9364 89.5211 62.6747 97.9003 62.6871 108.336C62.7119 118.684 70.9364 127.038 81.1179 127.026L81.1303 127.013Z" fill="#00C6EF"/>
</svg>
