<svg width="65" height="66" viewBox="0 0 65 66" fill="none" xmlns="http://www.w3.org/2000/svg">
<g clip-path="url(#clip0_1049_2056)">
<path d="M38.9167 36.8255C43.0767 37.5086 50.9339 40.5454 50.6193 45.8383C50.2618 51.8539 40.3493 54.3382 35.6264 54.7325C29.9428 55.2085 18.7342 54.0626 15.3516 48.6035C11.2566 41.9945 21.0209 37.5626 26.0675 36.8137C25.2225 30.6517 21.3888 19.1599 28.7247 15.6615C32.3335 13.9407 37.1838 14.8743 39.3067 18.4438C42.3799 23.6102 39.6252 31.2556 38.9167 36.8242V36.8255ZM31.8226 17.3415C25.6359 17.9243 26.5927 24.942 27.2284 29.3937C27.9252 34.274 29.2044 39.0751 29.6802 44.0002C30.2093 45.6814 34.8412 45.8397 35.3144 43.8367C35.9917 38.3499 37.4828 32.7496 38.0938 27.2839C38.6307 22.4762 38.0262 16.7573 31.8213 17.3415H31.8226ZM26.5589 39.2703C22.7603 39.7357 13.0051 43.6362 18.5327 48.4703C24.371 53.5761 40.8043 53.6552 46.5451 48.3912C50.5192 44.7465 46.016 41.7532 42.649 40.4517C41.3321 39.9428 39.9606 39.621 38.5982 39.2703C38.3668 39.443 37.8338 44.2085 37.5868 45.0037C36.4844 48.556 28.7988 48.6655 27.4871 45.2489C27.1062 44.256 26.7513 39.5023 26.5576 39.2716L26.5589 39.2703Z" fill="#A0DCDD"/>
<path d="M28.0617 10.8864C21.8971 4.63347 32.1268 -4.5033 37.4737 2.56059C42.1342 8.71726 33.5399 16.4444 28.0617 10.8864ZM31.4924 2.67795C30.7423 2.83223 29.5944 3.76581 29.2213 4.44359C27.3805 7.78236 30.7371 11.5009 34.2133 9.83282C38.0444 7.99597 36.2348 1.70216 31.4924 2.67795Z" fill="#A0DCDD"/>
<path d="M1.478 44.3506C3.7088 44.5286 6.6767 43.9853 8.8165 44.3255C10.2049 44.5457 10.1828 46.5237 8.9829 46.7544C8.0469 46.9351 2.6155 46.9061 1.6132 46.7478C0.289796 46.5395 0.285896 44.6183 1.478 44.3506Z" fill="#A0DCDD"/>
<path d="M56.0456 44.3506C58.2803 44.5273 61.2378 43.988 63.3841 44.3256C64.7374 44.5379 64.7348 46.5369 63.3841 46.7479C61.2105 47.0881 58.2751 46.5184 56.0144 46.7545C54.7807 46.3035 54.8262 44.7779 56.0456 44.3506Z" fill="#A0DCDD"/>
<path d="M50.107 52.9787C50.4749 52.8944 50.7622 52.9273 51.121 53.0209C51.7515 53.1871 55.7282 55.1598 56.3054 55.5751C57.6015 56.5114 57.0477 57.8339 55.6021 57.921C54.6297 57.3381 49.7729 55.4881 49.4336 54.7325C49.1489 54.0983 49.3751 53.1462 50.107 52.9787Z" fill="#A0DCDD"/>
<path d="M13.9986 52.9799C15.5963 52.6423 16.2749 54.2536 15.1556 55.1305C14.6434 55.5314 10.1051 57.7507 9.511 57.8838C8.2786 58.1607 7.3088 56.6325 8.5945 55.6382C9.0157 55.3125 13.5579 53.0722 13.9986 52.9785V52.9799Z" fill="#A0DCDD"/>
<path d="M32.1345 58.1859C33.1771 57.9577 33.6724 58.5524 33.7829 59.5375C33.8999 60.5897 33.9246 63.7267 33.7725 64.7368C33.5151 66.4392 31.4312 66.4537 31.2115 64.5878C31.0854 63.521 31.0841 60.442 31.2297 59.3898C31.3064 58.8307 31.5456 58.3151 32.1345 58.1859Z" fill="#A0DCDD"/>
<path d="M54.283 33.7713C55.7156 33.468 56.5294 34.8077 55.6194 35.7795C54.7939 36.6617 52.073 37.3197 50.9992 38.095C49.6524 38.4761 48.7996 37.1812 49.6628 36.0868L54.283 33.7713Z" fill="#A0DCDD"/>
<path d="M9.82411 33.7688C10.192 33.6844 10.4793 33.7174 10.8381 33.811C11.3373 33.9428 14.7368 35.6149 15.1554 35.9419C16.276 36.8188 15.5948 38.4301 13.9984 38.0926C13.6279 38.0135 9.89951 36.1885 9.55891 35.9208C8.78281 35.3103 8.87641 33.9864 9.82411 33.7688Z" fill="#A0DCDD"/>
</g>
<defs>
<clipPath id="clip0_1049_2056">
<rect width="65" height="66" fill="white"/>
</clipPath>
</defs>
</svg>
