<svg width="58" height="60" viewBox="0 0 58 60" fill="none" xmlns="http://www.w3.org/2000/svg">
<g clip-path="url(#clip0_1049_2073)">
<path d="M29.2262 51.9637L22.598 52.0056L16.2609 59.5631L15.7482 59.9071C13.6068 59.7992 11.1464 60.1588 9.0422 59.8987C6.3394 59.5643 4.44744 56.9261 4.85344 54.1428L8.85776 38.0593C9.2336 36.8043 10.9713 37.2251 10.7486 38.5124L6.82776 54.1872C6.22108 59.3581 12.0188 57.7244 15.1102 57.8766L21.5783 50.1969C20.3731 48.4241 20.3197 46.9198 20.9055 44.8904C21.569 42.5926 22.5887 40.3655 23.3241 38.0905L16.813 37.7285L10.9075 55.4038C10.3066 56.5233 8.7174 55.7946 9.12456 54.5611L14.8677 37.6518C11.7148 37.0021 9.57232 34.0139 10.0526 30.678L11.7276 20.7388L7.37992 22.1736C7.11544 22.4062 6.04012 27.7306 5.75012 28.6032C4.55764 32.1871 -0.00463646 31.2402 3.53673e-06 27.9151C0.00232354 26.5415 1.48364 21.138 1.95228 19.5618C2.28056 18.4578 2.52068 17.9376 3.5264 17.3191C5.14576 16.323 10.5409 13.8861 12.3308 13.4343C16.24 12.4466 21.6711 14.0743 25.7462 14.0528C27.8493 14.9278 29.3735 17.0014 31.2353 18.3295C31.5323 18.3547 35.1689 16.0749 35.844 15.762C39.099 14.2541 41.5686 18.0503 39.3936 20.4284C38.7521 21.1296 33.4208 24.1574 32.3454 24.6296C31.7074 24.9101 31.2492 25.0492 30.5428 24.9485C29.9071 24.8574 26.629 22.9012 26.1104 22.4145C25.2451 21.6007 25.9596 20.3157 27.0744 20.6693C28.1462 21.2291 29.2854 22.2779 30.3433 22.7837C30.6136 22.9132 30.8978 23.0462 31.2063 22.9611L37.8241 19.1806C38.5793 18.5621 38.28 17.5972 37.3868 17.367L31.1356 20.5758C30.8931 20.5231 30.6681 20.4284 30.4581 20.2941C28.8179 19.2501 27.1869 17.1573 25.5072 16.0485L15.4118 15.1208C11.5339 14.9877 8.02488 17.7578 4.47412 19.0451L4.11452 19.2981L1.94996 27.8073C1.88848 28.9616 3.3408 29.3763 3.8512 28.1381C4.66088 26.1723 4.78384 23.1769 5.57032 21.1775C5.75012 20.7196 6.04476 20.5327 6.467 20.3565C7.69892 19.8434 11.3204 18.5968 12.5408 18.3955C13.55 18.2289 13.9618 18.6292 13.8864 19.6588C13.6161 23.3063 12.2264 27.3937 11.9712 31.0364C11.7926 33.5824 13.13 35.4822 15.6554 35.7136C18.5507 35.9773 21.7152 35.7591 24.5955 36.0863C25.3193 36.1691 25.6778 36.6161 25.5954 37.3665L22.533 46.1946C21.9982 50.7051 26.2369 49.9415 29.1682 49.9523C29.9326 47.9973 31.9847 47.386 33.7119 48.5128L40.6046 43.7613C40.6116 42.9822 40.5385 42.4164 40.8738 41.678C41.4027 40.513 42.5186 40.0347 43.681 39.8357L53.1454 15.4L53.1071 15.1244C50.1259 12.1433 54.948 7.82457 57.3875 11.1916C58.8874 13.2616 57.449 15.9155 55.0536 16.0138L45.4488 40.5537L45.4871 40.8294C47.6006 42.8527 45.7678 46.3768 42.9838 45.9213C42.507 45.8434 42.1277 45.5125 41.6858 45.3903L34.7954 50.1381C34.7884 50.9184 34.8626 51.483 34.5262 52.2214C33.4393 54.6127 30.0498 54.476 29.2262 51.9625V51.9637ZM54.8204 12.0246C53.708 12.2752 53.9539 14.2913 55.3691 13.9724C56.4816 13.7219 56.2356 11.7058 54.8204 12.0246ZM43.2239 41.9825C42.1115 42.233 42.3574 44.2492 43.7726 43.9303C44.885 43.6798 44.6391 41.6637 43.2239 41.9825ZM31.6274 49.9715C30.515 50.222 30.7609 52.2382 32.1761 51.9193C33.2885 51.6688 33.0426 49.6527 31.6274 49.9715Z" fill="#A0DCDD"/>
<path d="M24.0176 18.1381C24.7576 17.9799 25.3307 18.6691 25.1242 19.4134L22.2474 29.7722C22.2984 29.9328 22.4075 29.9412 22.5444 29.9712C24.7333 30.4302 29.4116 30.5022 30.923 32.0484C33.4124 34.5955 31.0309 37.9158 29.7909 40.4629C28.6645 42.7763 27.421 45.0358 26.326 47.3672C25.5812 48.5394 24.1579 47.7819 24.5918 46.4478C26.0661 42.9753 28.4476 39.4693 29.8315 36.0112C30.2978 34.8461 30.1644 33.5192 28.8791 33.0373C26.6577 32.203 23.1197 32.3876 20.7823 31.6672C19.8566 31.382 19.9332 30.8761 20.1002 30.0742C20.8647 26.3836 22.4434 22.5947 23.2902 18.892C23.3668 18.5636 23.6962 18.2088 24.0187 18.1393L24.0176 18.1381Z" fill="#A0DCDD"/>
<path d="M54.8206 24.0079C55.3043 23.8988 55.7335 24.0606 55.9702 24.5137L56.0641 58.9989C55.9737 60.1016 54.6037 60.2862 54.1826 59.3153L54.1223 25.0387C54.0921 24.5808 54.3763 24.1086 54.8195 24.0079H54.8206Z" fill="#A0DCDD"/>
<path d="M20.5188 0.0515065C27.596 -0.829501 29.648 9.74979 22.905 11.7539C14.8673 14.144 12.4998 1.05118 20.5188 0.0515065ZM20.7613 2.04966C15.9682 2.6334 16.5099 10.3251 21.571 10.0003C26.6193 9.67667 26.1019 1.39879 20.7613 2.04966Z" fill="#A0DCDD"/>
<path d="M49.023 39.9859C49.5067 39.8768 49.9359 40.0386 50.1725 40.4917L50.2665 59.0001C50.176 60.1028 48.806 60.2874 48.385 59.3165L48.3281 40.8957C48.3351 40.4833 48.6262 40.0758 49.023 39.9871V39.9859Z" fill="#A0DCDD"/>
<path d="M43.2242 47.9747C43.8715 47.8285 44.4202 48.1953 44.4677 48.8833C44.1986 52.0789 44.8169 55.8774 44.4677 58.9999C44.3262 60.2693 42.6721 60.2705 42.5294 58.9999C42.1791 55.8786 42.7985 52.0789 42.5294 48.8833C42.5363 48.471 42.8275 48.0634 43.2242 47.9747Z" fill="#A0DCDD"/>
<path d="M37.425 51.9688C38.0966 51.8178 38.5896 52.1833 38.6685 52.8774C38.7996 54.0305 38.8251 58.0124 38.6592 59.1139C38.4933 60.2155 36.874 60.2682 36.7313 58.9989C36.6002 57.8374 36.5735 53.8698 36.7406 52.7623C36.7962 52.3931 37.063 52.0503 37.425 51.9676V51.9688Z" fill="#A0DCDD"/>
<path d="M25.829 53.9668C26.5006 53.8158 26.9936 54.1814 27.0725 54.8754C27.1514 55.5694 27.178 58.6008 27.0435 59.2205C26.83 60.2058 25.2733 60.2394 25.1341 59C25.0413 58.1765 25.0251 55.5491 25.1434 54.7603C25.1991 54.3912 25.4659 54.0483 25.8278 53.9656L25.829 53.9668Z" fill="#A0DCDD"/>
<path d="M31.6275 55.9639C32.0428 55.8704 32.5149 55.9879 32.7342 56.3906C32.9267 56.7442 32.9395 58.7723 32.8432 59.2206C32.6321 60.1999 31.1079 60.1963 30.9431 59.1152C30.826 58.3408 30.7042 56.1725 31.6275 55.9639Z" fill="#A0DCDD"/>
<path d="M20.0292 57.9609C21.4456 57.642 21.6904 59.6581 20.5779 59.9087C19.1616 60.2275 18.9168 58.2114 20.0292 57.9609Z" fill="#A0DCDD"/>
</g>
<defs>
<clipPath id="clip0_1049_2073">
<rect width="58" height="59.9948" fill="white"/>
</clipPath>
</defs>
</svg>
