<svg width="58" height="58" viewBox="0 0 58 58" fill="none" xmlns="http://www.w3.org/2000/svg">
<g clip-path="url(#clip0_1049_2066)">
<path d="M15.4725 58.0427C14.2069 57.8701 11.6387 55.4494 10.8684 54.4146C10.0959 53.3763 10.9659 52.0854 12.1491 52.5698C12.714 52.8015 14.2232 54.7332 14.9145 55.2535C15.6395 55.7993 16.1928 56.0044 17.0072 55.4343C17.2844 55.2408 19.2309 53.2998 19.3875 53.046C19.7355 52.4852 19.7192 51.8304 19.3388 51.2881C15.0317 47.1188 10.916 42.6516 6.46739 38.6132C6.00803 38.4695 5.43963 38.4417 5.02435 38.7025C4.71811 38.8948 2.87835 40.7477 2.63359 41.0803C2.10463 41.7988 2.20323 42.3608 2.69971 43.056C3.23331 43.8046 5.24591 45.3087 5.50111 45.931C5.96047 47.0493 4.75987 47.9334 3.77503 47.3158C3.35627 47.0539 1.18011 44.8313 0.81819 44.3678C-0.32673 42.9031 -0.23741 41.005 0.88199 39.5576C1.87379 38.2749 3.98151 36.2319 5.66235 36.1519C6.20755 36.1265 7.34203 36.561 7.62855 36.4289L11.2176 32.8517C11.3545 32.5863 10.8127 32.292 10.6503 32.051C9.17019 29.8632 10.0912 26.8468 12.6316 26.0426C11.0447 23.6903 12.279 20.5859 15.0038 19.9045C14.5189 17.697 15.7752 15.3296 18.0848 14.924C17.347 12.4198 19.2738 9.8079 21.8896 9.80906C22.291 9.80906 22.9661 10.0779 23.2271 10.0234C23.3964 9.98867 23.792 9.61786 24.0716 9.50314C25.0169 9.1161 25.7802 9.2679 26.7419 9.39885C29.563 9.78241 32.3551 10.4615 35.1809 10.8427C37.8686 11.2054 39.2536 13.3005 38.7722 15.9368C41.0226 16.4327 42.2998 18.7121 41.7151 20.9381C43.998 21.324 45.3228 23.7517 44.6685 25.9302C47.2228 26.3682 48.5336 29.1563 47.4525 31.4901C47.2994 31.8215 46.5373 32.6281 46.6498 32.8494L50.24 36.4301C50.5045 36.5483 50.972 36.2249 51.3269 36.1543C52.6215 35.897 53.7896 36.2852 54.7826 37.1056C56.9773 38.9203 59.3657 41.5797 57.0561 44.3713L44.3878 57.0218C41.6328 60.0625 36.153 55.0403 36.0335 52.3055C36.001 51.55 36.3478 50.9277 36.4371 50.2151L31.8285 45.6135C30.2497 45.9878 26.9159 45.0063 25.6387 45.8997L21.3978 50.2475C21.9743 51.3322 22.1088 52.36 21.6947 53.5339C21.2922 54.6741 18.7704 57.1771 17.6695 57.6835C17.3447 57.833 17.0106 57.8631 16.7206 58.0404C16.3239 58.0033 15.8541 58.0926 15.4713 58.0404L15.4725 58.0427ZM31.3772 12.545L25.3035 11.5194C24.5066 11.6504 25.8266 13.3631 26.0934 13.6806C26.4032 14.0502 28.0851 15.61 28.483 15.5764C29.2684 14.6853 30.5026 13.8046 31.209 12.8857C31.296 12.7721 31.4294 12.742 31.3784 12.545H31.3772ZM21.6936 12.1116C20.3398 12.268 19.8062 13.8127 20.5846 14.8695C21.9325 16.7004 24.5576 18.4861 26.0424 20.3112C27.1305 21.0401 28.664 20.3668 28.7359 19.04C28.8009 17.8557 27.7812 17.8395 26.9553 17.3574C25.438 16.4721 24.0194 14.9553 23.1772 13.4152C22.7979 12.7211 22.9 11.9725 21.6936 12.1116ZM45.0861 28.5804C43.3682 26.8596 42.2116 29.5515 41.2674 29.8539C40.2246 30.1876 39.4798 29.1841 39.8708 28.2304C40.1213 27.6174 41.8207 26.4586 42.265 25.7437C43.2452 24.1654 41.4785 22.3588 39.9032 23.3855C39.4207 23.6995 38.6748 24.8259 38.2004 24.9742C37.1738 25.2952 36.2956 24.5084 36.6924 23.4678C36.9244 22.8583 38.5611 21.6925 39.0831 20.9775C40.4032 19.1675 38.5135 17.3737 36.9499 18.3923C36.4383 18.7248 35.711 19.8593 35.1565 20.0041C34.0348 20.2962 33.2518 19.31 33.7784 18.288C34.1577 17.551 35.8398 16.486 36.3165 15.7166C37.0728 14.4952 36.0381 12.932 34.6461 13.136C33.4212 13.3156 31.5593 15.9611 30.5223 16.7468C30.4005 17.0179 30.7949 17.5962 30.89 17.9681C31.5292 20.4468 29.6407 22.9289 27.0725 22.8814C26.9263 25.1017 25.3615 26.8688 23.0774 26.8897C22.8988 27.0125 22.9974 27.5351 22.9452 27.7785C22.5311 29.6905 20.8943 30.7751 19.0105 30.9408C19.0128 33.4914 16.5698 35.3871 14.0863 34.7498C13.7139 34.6536 13.1351 34.2608 12.8636 34.3825L9.44395 37.7847L9.34883 38.108L19.8457 48.5105L24.3302 44.0283C26.786 42.1394 30.8726 44.406 33.188 42.7756C33.8156 42.3341 34.3619 41.2379 35.1843 41.2402C36.1646 41.2437 36.7736 42.3086 36.095 43.0688L34.3341 44.822L38.1226 48.5047L48.5255 38.1161L44.9388 34.452C44.6279 34.3975 43.7915 36.1125 42.5851 35.2214C42.0898 34.8553 42.0295 34.1588 42.3462 33.6547C42.9262 32.7312 44.9307 31.46 45.3761 30.5538C45.6835 29.9269 45.5896 29.0868 45.0861 28.5827V28.5804ZM18.7425 17.106C17.5176 17.201 16.7879 18.6449 17.4642 19.6878C18.9606 20.8431 20.5765 23.2858 22.0694 24.2801C23.4301 25.1863 24.9357 24.1121 24.6678 22.4782C24.4799 21.3333 20.6356 18.558 19.8468 17.4223C19.5545 17.208 19.1068 17.0782 18.7425 17.1072V17.106ZM20.2041 28.1621C20.7679 27.6313 20.8549 26.7448 20.4941 26.0797C20.2969 25.7158 17.3726 22.776 16.9515 22.4689C15.505 21.4132 13.6814 22.8316 14.3879 24.462C14.6523 25.0727 17.0617 27.4598 17.6846 27.9766C18.4154 28.5839 19.4281 28.8909 20.2041 28.1609V28.1621ZM13.6257 28.1145C12.4843 28.2953 11.9623 29.49 12.4159 30.5167C12.5725 30.8702 13.7928 32.117 14.142 32.3094C15.8588 33.2584 17.5581 31.38 16.2114 29.6754C15.6233 28.9303 14.6396 27.9535 13.6257 28.1145ZM51.683 38.4394C51.4348 38.4904 51.1576 38.6909 50.9731 38.8635L38.531 51.3982C38.2676 51.8594 38.2943 52.404 38.5507 52.8641C38.6899 53.1144 40.8359 55.2431 41.1108 55.4134C41.6212 55.7298 41.9831 55.7391 42.5387 55.5166C46.9827 51.4098 51.2492 47.0203 55.467 42.6713C55.8115 42.0212 55.7825 41.5554 55.3498 40.9667C55.1468 40.6909 53.104 38.6491 52.8929 38.5414C52.5554 38.3687 52.0519 38.3629 51.683 38.4394Z" fill="#A0DCDD"/>
<path d="M15.3177 6.37785C14.9767 6.72665 14.254 6.75793 13.8619 6.49257C12.5743 5.15184 10.8413 3.80764 9.67431 2.39159C9.46783 2.14129 9.25439 1.93619 9.21495 1.59782C9.08503 0.462201 10.1464 -0.0638915 11.0768 0.536364C11.6382 0.899067 14.8723 4.12631 15.3026 4.71266C15.6727 5.21674 15.8038 5.87957 15.3166 6.37785H15.3177Z" fill="#A0DCDD"/>
<path d="M47.1364 0.314072C48.2141 0.0718843 48.8567 1.08815 48.4043 2.03488L43.9824 6.46959C42.8978 7.11272 41.7691 6.15672 42.2749 4.99097C43.5764 3.69891 44.9185 2.01518 46.314 0.856388C46.5193 0.686046 46.8882 0.370853 47.1364 0.315231V0.314072Z" fill="#A0DCDD"/>
<path d="M28.6199 -0.0276765C29.3449 -0.18759 29.9713 0.300262 30.0177 1.02567C30.1221 2.65493 30.0815 4.77669 30.0096 6.46853C29.592 7.69453 27.9019 7.59719 27.7406 6.24952C27.6246 5.27613 27.6026 1.84957 27.7499 0.920218C27.8079 0.556356 28.2626 0.0511215 28.6211 -0.0288353L28.6199 -0.0276765Z" fill="#A0DCDD"/>
<path d="M7.71873 48.7599C9.07941 48.593 9.50397 50.6939 8.23261 50.9836C6.38705 51.4054 6.26409 48.9372 7.71873 48.7599Z" fill="#A0DCDD"/>
<path d="M38.6208 37.64C40.0708 37.3874 40.4791 39.5601 39.1359 39.8649C37.5327 40.2288 37.1963 37.8892 38.6208 37.64Z" fill="#A0DCDD"/>
</g>
<defs>
<clipPath id="clip0_1049_2066">
<rect width="58" height="58" fill="white"/>
</clipPath>
</defs>
</svg>
