<svg width="363" height="363" viewBox="0 0 363 363" fill="none" xmlns="http://www.w3.org/2000/svg">
<path d="M363 174.255H188.793V0H174.207V174.255H0V188.745H174.207V363H188.793V188.745H363V174.255Z" fill="white"/>
<path d="M362.962 133.394C360.74 90.3875 338.706 50.1005 303.987 25.5881C282.644 10.5243 257.312 1.80064 230.62 0.303266L227.758 0.165851L223.09 0V140.099H357.39C357.513 140.099 357.631 140.085 357.75 140.076C357.892 140.08 358.034 140.09 358.176 140.095L363 140.27V134.034C363 133.821 362.986 133.608 362.958 133.394H362.962ZM301.541 35.3305C301.631 35.3968 301.717 35.4679 301.807 35.5342C302.679 36.1929 303.546 36.8563 304.399 37.5386C304.65 37.7377 304.887 37.9414 305.138 38.1452C305.825 38.6996 306.512 39.254 307.19 39.8273C307.531 40.1164 307.863 40.4149 308.204 40.7087C308.772 41.2015 309.346 41.6896 309.91 42.1871C310.298 42.5331 310.673 42.8932 311.056 43.2438C311.559 43.7035 312.061 44.1536 312.554 44.6228C312.98 45.0255 313.397 45.4425 313.824 45.8548C314.26 46.2765 314.7 46.6982 315.132 47.1247C315.577 47.5701 316.013 48.0298 316.454 48.4847C316.847 48.8922 317.25 49.2902 317.638 49.7024C318.112 50.2047 318.572 50.7165 319.041 51.2235C319.382 51.5979 319.733 51.9627 320.069 52.3418C320.557 52.8867 321.026 53.4412 321.505 53.9908C321.813 54.3462 322.121 54.6921 322.424 55.0475C322.922 55.6351 323.405 56.2321 323.893 56.8292C324.163 57.1562 324.438 57.4831 324.703 57.8148C325.196 58.4308 325.675 59.0563 326.153 59.6771C326.405 59.9993 326.66 60.3168 326.907 60.6437C327.4 61.2976 327.883 61.961 328.366 62.6244C328.589 62.9277 328.812 63.2262 329.03 63.5295C329.532 64.2308 330.02 64.9416 330.508 65.6523C330.698 65.9272 330.892 66.1973 331.077 66.4721C331.565 67.1971 332.039 67.9316 332.512 68.6613C332.688 68.9314 332.868 69.2015 333.043 69.4716C333.522 70.225 333.986 70.9879 334.451 71.7508C334.607 72.0067 334.773 72.2626 334.924 72.5232C335.389 73.3003 335.839 74.0869 336.289 74.8735C336.436 75.1247 336.583 75.3758 336.73 75.6317C337.17 76.4183 337.597 77.2096 338.023 78.0057C338.166 78.2663 338.308 78.5222 338.45 78.7876C338.872 79.5884 339.284 80.3987 339.687 81.2137C339.815 81.4743 339.952 81.7302 340.08 81.9908C340.473 82.7916 340.857 83.5972 341.236 84.4075C341.369 84.687 341.501 84.9619 341.634 85.2414C342.009 86.0517 342.364 86.8667 342.724 87.6865C342.847 87.9661 342.975 88.2457 343.098 88.53C343.444 89.3403 343.781 90.16 344.112 90.9798C344.231 91.2736 344.359 91.5626 344.473 91.8612C344.79 92.6667 345.093 93.477 345.401 94.2873C345.52 94.6048 345.643 94.9175 345.761 95.235C346.05 96.0311 346.325 96.8319 346.605 97.6327C346.723 97.9691 346.847 98.3056 346.96 98.642C347.221 99.4239 347.467 100.21 347.718 100.997C347.832 101.362 347.955 101.722 348.064 102.087C348.297 102.85 348.515 103.622 348.737 104.39C348.851 104.783 348.969 105.172 349.078 105.565C349.287 106.318 349.476 107.072 349.671 107.83C349.78 108.242 349.893 108.659 349.993 109.072C350.173 109.806 350.339 110.545 350.509 111.284C350.609 111.725 350.718 112.166 350.817 112.611C350.974 113.327 351.116 114.047 351.258 114.762C351.353 115.232 351.452 115.701 351.542 116.17C351.675 116.862 351.789 117.563 351.912 118.26C351.997 118.762 352.092 119.259 352.173 119.762C352.282 120.435 352.376 121.112 352.471 121.785C352.547 122.316 352.632 122.842 352.703 123.372C352.789 124.026 352.86 124.68 352.94 125.334C353.007 125.889 353.078 126.448 353.135 127.002C353.201 127.632 353.253 128.263 353.31 128.893C353.357 129.433 353.414 129.973 353.457 130.513C329.466 128.717 306.744 120.662 287.501 107.086C256.018 84.8481 235.714 48.7121 232.672 9.84667L233.269 9.88931V9.84193C233.923 9.89406 234.577 9.96039 235.23 10.022C235.965 10.0931 236.704 10.1499 237.434 10.2305C238.187 10.311 238.936 10.4153 239.685 10.5101C240.41 10.6001 241.139 10.6854 241.864 10.7896C242.618 10.8986 243.362 11.0266 244.11 11.145C244.826 11.2588 245.546 11.3677 246.257 11.4957C247.01 11.6284 247.759 11.7847 248.508 11.9316C249.209 12.069 249.915 12.197 250.612 12.3439C251.36 12.505 252.109 12.6803 252.853 12.8556C253.545 13.0167 254.237 13.1636 254.924 13.3342C255.672 13.519 256.416 13.7228 257.16 13.9218C257.838 14.1019 258.516 14.2725 259.188 14.462C259.937 14.6752 260.681 14.9074 261.43 15.1301C262.088 15.3291 262.752 15.5187 263.406 15.7272C264.159 15.9689 264.903 16.2295 265.647 16.4806C266.287 16.6986 266.931 16.9023 267.566 17.1298C268.32 17.3999 269.068 17.6889 269.817 17.9732C270.438 18.2054 271.058 18.4282 271.674 18.6746C272.428 18.9731 273.177 19.2906 273.925 19.6033C274.527 19.8544 275.129 20.0914 275.726 20.352C276.484 20.679 277.228 21.0296 277.977 21.3755C278.555 21.6409 279.138 21.892 279.716 22.1668C280.474 22.527 281.223 22.9108 281.971 23.2851C282.526 23.5647 283.09 23.8301 283.639 24.1144C284.402 24.5077 285.156 24.9294 285.914 25.3369C286.44 25.6212 286.975 25.8961 287.496 26.1899C288.293 26.64 289.079 27.1091 289.866 27.5735C290.335 27.8531 290.813 28.1184 291.278 28.398C292.135 28.9193 292.979 29.4642 293.827 30.0044C294.216 30.2508 294.609 30.4877 294.993 30.7388C296.215 31.5397 297.428 32.3642 298.623 33.2076C299.608 33.9042 300.584 34.615 301.546 35.3352L301.541 35.3305ZM232.406 50.3659C242.296 76.0771 259.511 98.7131 282.109 114.677C291.496 121.302 301.655 126.689 312.355 130.783H232.406V50.3659Z" fill="white"/>
<path d="M296.14 95.4009C309.513 95.4009 320.354 84.56 320.354 71.187C320.354 57.8141 309.513 46.9731 296.14 46.9731C282.767 46.9731 271.926 57.8141 271.926 71.187C271.926 84.56 282.767 95.4009 296.14 95.4009Z" fill="white"/>
<path d="M139.9 227.53V223.095H0V231.965H79.0908L0.9714 244.342L2.35979 253.104L80.4792 240.732L5.25503 265.173L7.99864 273.612L83.2181 249.176L12.7514 285.079L16.7791 292.988L87.2458 257.084L23.2614 303.569L28.4786 310.748L92.463 264.263L36.5388 320.187L42.8126 326.461L98.7368 270.537L52.2518 334.521L59.4307 339.738L105.916 275.754L70.0118 346.221L77.9204 350.248L113.829 279.782L89.3877 355.001L97.827 357.745L122.268 282.525L109.896 360.64L118.658 362.028L131.035 283.909V363H139.905V227.53H139.9Z" fill="white"/>
<path d="M109.095 139.905H94.5479V86.1749H28.9003V71.6276H94.5479V14.5473H50.7734C44.1773 14.5473 38.1167 16.1726 32.5869 19.4232C27.057 22.6739 22.6691 27.0617 19.4185 32.5869C16.1679 38.1167 14.5473 44.2247 14.5473 50.9155V139.905H0V50.9155C0 43.9309 1.30783 37.3633 3.92824 31.2032C6.54865 25.0479 10.1831 19.6128 14.8411 14.9122C19.4943 10.2068 24.901 6.54865 31.0611 3.92824C37.2164 1.30783 43.7888 0 50.7734 0H109.095V139.91V139.905Z" fill="white"/>
<path d="M139.905 139.777H125.481V30.4878H139.905V139.777Z" fill="white"/>
<path d="M139.905 14.4241V0L125.481 0V14.4241H139.905Z" fill="white"/>
<path d="M362.934 362.815H348.51V253.526H362.934V362.815Z" fill="white"/>
<path d="M362.934 237.462V223.038H348.51V237.462H362.934Z" fill="white"/>
<path d="M237.704 363H223.161V223.223H258.477C299.281 223.223 332.479 254.573 332.479 293.111C332.479 331.65 299.281 363 258.477 363H252.085V349.429H258.477C291.799 349.429 318.908 324.168 318.908 293.111C318.908 262.055 291.799 236.794 258.477 236.794H237.704V363Z" fill="white"/>
</svg>
