<svg width="1440" height="585" viewBox="0 0 1440 585" fill="none" xmlns="http://www.w3.org/2000/svg">
<g opacity="0.6">
<path d="M1439.93 584.949C864.9 584.784 420.825 584.784 0.225098 584.949V583.382C420.9 583.218 864.9 583.218 1439.93 583.382V584.949Z" fill="#EEEEEE"/>
<path d="M1439.93 578.022C904.95 574.724 434.025 574.724 0.225098 578.022V576.456C434.025 573.157 904.95 573.157 1440 576.456L1439.93 578.022Z" fill="#EEEEEE"/>
<path d="M693.9 569.693C614.925 569.693 535.125 569.281 457.725 568.868C307.8 568.043 152.7 567.301 0.299805 569.445V567.879C152.775 565.652 307.8 566.477 457.725 567.301C543.45 567.714 632.025 568.208 719.175 568.126C793.2 568.044 868.425 567.714 941.175 567.384C1104.67 566.642 1273.72 565.817 1440 567.961V569.528C1273.8 567.384 1104.75 568.208 941.175 568.951C868.425 569.281 793.125 569.61 719.1 569.693C710.7 569.693 702.3 569.693 693.9 569.693Z" fill="#EEEEEE"/>
<path d="M697.95 560.374C616.275 560.374 533.55 559.714 453.375 559.054C304.8 557.817 151.2 556.58 0.225098 559.632V558.065C151.2 555.013 304.875 556.333 453.45 557.487C540.225 558.23 630 558.972 718.275 558.807C796.95 558.724 876.975 558.065 954.375 557.487C1113.6 556.25 1278.23 554.931 1440 558.065V559.632C1278.23 556.58 1113.6 557.817 954.375 559.054C876.975 559.632 796.95 560.291 718.275 560.374C711.45 560.374 704.7 560.374 697.95 560.374Z" fill="#EEEEEE"/>
<path d="M701.55 550.56C615.675 550.56 528.75 549.571 444.45 548.581C298.8 546.932 148.2 545.2 0.299805 548.581V547.014C148.275 543.633 298.875 545.365 444.525 547.014C533.925 548.004 626.4 549.076 717.3 548.993C801.3 548.911 886.725 547.921 969.375 546.932C1123.65 545.2 1283.25 543.303 1440 547.014V548.581C1283.25 544.952 1123.65 546.767 969.375 548.498C886.725 549.406 801.3 550.395 717.225 550.56C711.975 550.56 706.8 550.56 701.55 550.56Z" fill="#EEEEEE"/>
<path d="M713.175 540.499C664.8 540.499 615.75 539.015 568.275 537.613C502.725 535.633 434.85 533.654 368.025 535.469C303.825 537.2 238.65 536.706 175.65 536.211C118.125 535.716 58.7251 535.304 0.225098 536.541V534.974C58.7251 533.737 118.2 534.231 175.65 534.644C238.65 535.139 303.825 535.716 368.025 533.902C434.85 532.087 502.725 534.149 568.35 536.046C616.8 537.53 666.825 539.015 716.25 538.932C806.775 538.85 898.95 537.365 988.05 535.963C1136.25 533.654 1289.48 531.263 1440 534.891V536.458C1289.48 532.83 1136.25 535.221 988.05 537.53C898.95 538.932 806.775 540.334 716.25 540.499C715.2 540.499 714.15 540.499 713.175 540.499Z" fill="#EEEEEE"/>
<path d="M713.7 530.851C664.8 530.851 615.225 528.789 567.3 526.81C500.925 524.088 432.375 521.284 364.65 523.841C350.625 524.336 336.6 524.913 322.575 525.49C277.875 527.304 231.6 529.201 186.075 529.449C156.075 529.614 125.625 528.047 96.2251 526.48C64.8001 524.83 32.2501 523.181 0.225098 523.593V522.026C32.3251 521.614 64.8001 523.263 96.3001 524.913C125.7 526.48 156.15 528.047 186.075 527.882C231.6 527.634 277.8 525.738 322.5 523.923C336.525 523.346 350.55 522.769 364.575 522.274C432.3 519.717 500.925 522.521 567.3 525.243C615.75 527.222 665.85 529.284 715.275 529.284C771 529.201 827.7 527.964 882.45 526.81C945.375 525.408 1010.4 524.006 1074.45 524.336C1128.23 524.665 1182.9 523.841 1235.85 523.016C1302.83 521.944 1371.98 520.872 1439.93 522.191V523.758C1372.05 522.521 1302.83 523.593 1235.93 524.583C1182.98 525.408 1128.3 526.232 1074.53 525.902C1010.55 525.49 945.45 526.975 882.525 528.377C827.7 529.614 771.075 530.851 715.275 530.933C714.75 530.851 714.225 530.851 713.7 530.851Z" fill="#EEEEEE"/>
<path d="M714.225 521.861C665.025 521.861 615.3 519.14 567.15 516.501C500.475 512.872 431.55 509.078 363.375 512.542C347.55 513.367 331.425 514.274 315.825 515.099C272.4 517.573 227.55 520.129 183.225 520.294C152.1 520.377 120.75 517.82 90.3749 515.264C60.8249 512.789 30.2999 510.233 0.149902 510.233V508.666C30.3749 508.666 60.8999 511.223 90.4499 513.697C120.75 516.253 152.175 518.892 183.15 518.727C227.4 518.562 272.25 516.006 315.675 513.532C331.275 512.625 347.325 511.717 363.225 510.975C431.475 507.594 500.475 511.305 567.15 514.934C615.3 517.573 665.025 520.294 714.15 520.294C714.3 520.294 714.45 520.294 714.6 520.294C770.1 520.294 826.5 518.562 881.025 516.995C945.225 515.099 1011.6 513.119 1077 513.862C1098.9 514.109 1121.25 514.521 1142.85 514.851C1192.2 515.676 1243.2 516.583 1293.3 515.758C1315.65 515.429 1338.3 513.779 1360.2 512.212C1386.3 510.398 1413.22 508.419 1439.92 508.666V510.233C1413.38 510.068 1386.37 511.965 1360.27 513.779C1338.37 515.346 1315.65 516.913 1293.3 517.325C1243.12 518.15 1192.12 517.243 1142.77 516.418C1121.17 516.006 1098.9 515.676 1076.92 515.429C1011.6 514.686 945.225 516.666 881.025 518.562C826.5 520.212 770.1 521.861 714.525 521.861C714.525 521.861 714.375 521.861 714.225 521.861Z" fill="#EEEEEE"/>
<path d="M714.525 513.944C714.45 513.944 714.45 513.944 714.375 513.944C665.325 513.944 615.75 510.481 567.9 507.099C501.6 502.481 433.05 497.698 364.875 502.069C347.775 503.141 330.45 504.46 313.65 505.78C270.675 508.996 226.275 512.377 182.475 512.377H182.4C150.3 512.377 117.9 508.254 86.6248 504.295C58.4248 500.749 29.2498 497.038 0.299805 496.296V494.729C29.3248 495.389 58.4998 499.1 86.7748 502.728C117.975 506.687 150.3 510.81 182.325 510.81H182.4C226.125 510.81 270.525 507.429 313.5 504.213C330.3 502.976 347.7 501.656 364.8 500.502C433.05 496.131 501.675 500.914 567.975 505.532C615.825 508.914 665.325 512.377 714.375 512.377C714.45 512.377 714.45 512.377 714.525 512.377C768.975 512.377 824.325 510.233 877.8 508.171C942.75 505.697 1009.87 503.058 1076.1 504.295C1097.85 504.708 1119.97 505.367 1141.35 506.027C1191.82 507.594 1243.95 509.243 1295.02 507.099C1317.45 506.192 1340.1 503.553 1362 501.079C1387.42 498.11 1413.75 495.141 1439.92 494.729V496.296C1413.82 496.708 1387.5 499.76 1362.15 502.646C1340.25 505.202 1317.6 507.759 1295.1 508.666C1243.95 510.728 1191.75 509.161 1141.27 507.594C1119.9 506.934 1097.7 506.275 1076.02 505.862C1009.87 504.625 942.75 507.264 877.8 509.738C824.325 511.8 768.975 513.944 714.525 513.944Z" fill="#EEEEEE"/>
<path d="M713.1 507.264C664.2 507.264 615.225 502.893 567.825 498.688C503.025 492.915 436.05 486.977 368.925 492.173C351.375 493.492 333.525 495.224 316.2 496.791C273.9 500.749 230.1 504.79 186.975 504.79C186.525 504.79 186.15 504.79 185.7 504.79C152.25 504.708 118.8 499.017 86.3999 493.41C58.2749 488.544 29.0999 483.596 0.149902 482.359L0.224902 480.792C29.3249 482.029 58.4249 487.06 86.6249 491.925C118.95 497.451 152.4 503.223 185.7 503.306C186.15 503.306 186.525 503.306 186.975 503.306C230.025 503.306 273.75 499.265 316.05 495.306C333.3 493.739 351.225 492.008 368.775 490.688C436.05 485.493 503.1 491.43 567.9 497.286C615.825 501.327 665.325 505.78 714.6 505.697C768.375 505.615 822.975 503.306 875.775 500.997C940.125 498.275 1006.65 495.389 1072.28 496.626C1094.47 497.038 1117.2 497.863 1139.1 498.688C1189.42 500.584 1241.47 502.481 1292.1 499.265C1315.2 497.78 1338.38 493.987 1360.72 490.193C1386.45 485.905 1413 481.452 1439.78 480.627L1439.85 482.194C1413.15 483.019 1386.68 487.472 1360.95 491.678C1338.53 495.389 1315.35 499.265 1292.18 500.749C1241.48 503.966 1189.43 501.986 1139.03 500.172C1117.05 499.347 1094.4 498.523 1072.2 498.11C1006.58 496.956 940.05 499.76 875.775 502.481C822.975 504.708 768.375 507.017 714.525 507.182C714.15 507.264 713.625 507.264 713.1 507.264Z" fill="#EEEEEE"/>
<path d="M715.05 501.409C672.075 501.409 628.8 495.224 587.025 489.286C572.925 487.307 558.3 485.163 543.975 483.349C492.525 476.834 438.9 476.504 375.075 482.112C357.6 483.678 339.75 485.575 322.5 487.472C280.35 492.008 236.7 496.708 193.725 496.544C158.4 496.379 123.225 489.121 89.1751 482.112C60.1501 476.091 30.1501 469.906 0.225098 468.174L0.300098 466.607C30.3001 468.339 60.3751 474.607 89.4751 480.545C123.45 487.554 158.625 494.812 193.725 494.977C236.625 495.142 280.2 490.441 322.35 485.905C339.6 484.008 357.45 482.112 375 480.545C438.9 474.854 492.6 475.267 544.2 481.782C558.6 483.596 573.15 485.658 587.25 487.719C629.025 493.657 672.15 499.842 715.125 499.842C715.2 499.842 715.2 499.842 715.275 499.842C771 499.842 827.55 497.368 882.3 495.059C942.675 492.42 1005.23 489.781 1066.8 490.358C1089.38 490.523 1112.55 491.266 1134.98 492.008C1185.38 493.575 1237.43 495.306 1287.75 491.101C1311.75 489.121 1335.6 484.091 1358.63 479.225C1385.03 473.617 1412.33 467.927 1440.15 466.69L1440.23 468.257C1412.55 469.494 1385.33 475.267 1358.93 480.792C1335.83 485.658 1311.98 490.688 1287.9 492.668C1237.5 496.873 1185.38 495.224 1134.98 493.575C1112.55 492.832 1089.38 492.09 1066.8 491.925C1005.23 491.348 942.825 494.069 882.375 496.626C827.625 499.018 771.075 501.409 715.35 501.409C715.125 501.409 715.05 501.409 715.05 501.409Z" fill="#EEEEEE"/>
<path d="M723.45 496.131C720.9 496.131 718.425 496.131 715.875 496.131C673.575 495.966 631.275 488.544 590.4 481.451C576.75 479.06 562.65 476.586 548.775 474.442C499.125 466.69 446.325 466.03 382.65 472.297C365.475 474.029 348 476.091 331.125 478.153C289.8 483.101 247.05 488.214 204.975 487.966C167.4 487.719 129.975 479.06 93.7501 470.73C63.2251 463.721 31.7251 456.463 0.225098 454.237L0.300098 452.67C31.8751 454.897 63.4501 462.154 94.0501 469.246C130.2 477.575 167.55 486.235 204.975 486.4C246.975 486.647 289.65 481.534 330.975 476.586C347.925 474.524 365.4 472.462 382.5 470.73C446.25 464.463 499.125 465.123 548.925 472.875C562.875 475.019 576.975 477.493 590.625 479.885C631.425 487.059 673.65 494.399 715.875 494.564C776.55 494.811 838.275 492.255 897.975 489.698C950.925 487.472 1005.68 485.245 1059.53 484.915C1082.63 484.75 1106.4 485.245 1129.43 485.74C1179.75 486.812 1231.8 487.884 1281.68 482.524C1306.35 479.885 1330.73 473.864 1354.35 468.092C1382.03 461.247 1410.68 454.237 1440 452.587L1440.08 454.154C1410.83 455.804 1382.25 462.814 1354.65 469.576C1331.03 475.349 1306.65 481.369 1281.83 484.008C1231.88 489.368 1179.75 488.214 1129.43 487.224C1106.4 486.729 1082.63 486.235 1059.6 486.4C1005.75 486.729 951.075 489.039 898.125 491.183C840.75 493.657 781.65 496.131 723.45 496.131Z" fill="#EEEEEE"/>
<path d="M737.325 491.266C730.425 491.266 723.525 491.266 716.7 491.183C675 490.771 633.75 482.194 593.775 473.782C580.65 471.061 567 468.174 553.575 465.7C504.9 456.629 454.725 455.639 390.825 462.484C374.25 464.298 357.375 466.525 341.025 468.669C300.75 473.947 259.125 479.473 218.1 479.143C177.9 478.813 138 468.999 99.3749 459.433C67.0499 451.433 33.5999 443.186 0.149902 440.63L0.224902 439.063C33.7499 441.702 67.2749 449.949 99.6749 457.948C138.225 467.432 178.125 477.246 218.1 477.576C259.05 477.906 300.6 472.463 340.8 467.185C357.15 465.041 374.1 462.814 390.675 461C454.65 454.072 504.975 455.062 553.8 464.216C567.225 466.69 580.875 469.576 594 472.298C633.9 480.627 675.075 489.286 716.625 489.616C788.025 490.276 861 487.307 931.575 484.421C970.95 482.854 1011.67 481.122 1051.57 480.132C1075.2 479.555 1099.57 479.638 1123.2 479.638C1173.37 479.72 1225.27 479.885 1274.85 473.865C1300.65 470.731 1326 463.804 1350.45 457.041C1379.25 449.124 1409.02 440.96 1439.85 438.98L1439.92 440.547C1409.25 442.527 1379.55 450.691 1350.82 458.608C1326.3 465.37 1300.95 472.298 1275 475.432C1225.35 481.452 1173.37 481.287 1123.2 481.204C1099.57 481.122 1075.2 481.122 1051.57 481.699C1011.67 482.689 970.95 484.338 931.575 485.988C867.9 488.544 802.125 491.266 737.325 491.266Z" fill="#EEEEEE"/>
<path d="M756.6 486.565C743.55 486.565 730.5 486.482 717.525 486.235C676.35 485.575 636.075 475.761 597.075 466.277C584.4 463.226 571.275 460.01 558.375 457.206C511.2 446.897 462.15 445.578 399.225 452.835C383.325 454.649 367.125 456.958 351.45 459.185C312.375 464.71 271.95 470.401 232.125 470.071C189.375 469.741 146.85 458.855 105.75 448.299C71.3249 439.558 35.6999 430.486 0.149902 427.517L0.224902 425.95C35.9249 428.837 71.5499 437.991 105.975 446.815C147 457.288 189.45 468.174 231.975 468.504C271.725 468.834 312.075 463.144 351.15 457.701C366.825 455.474 383.025 453.247 398.925 451.351C461.925 444.011 511.125 445.33 558.45 455.721C571.425 458.525 584.55 461.742 597.225 464.793C636.15 474.277 676.425 484.091 717.45 484.668C817.125 486.235 919.425 481.452 1018.27 476.833L1043.55 475.679C1067.92 474.524 1093.12 474.029 1117.5 473.617C1167.3 472.627 1218.75 471.638 1267.95 465.205C1294.87 461.659 1321.12 453.907 1346.62 446.32C1376.62 437.413 1407.6 428.177 1439.85 425.95L1439.92 427.517C1407.82 429.744 1376.92 438.98 1347 447.804C1321.5 455.391 1295.17 463.226 1268.17 466.772C1218.9 473.205 1167.37 474.194 1117.57 475.184C1093.2 475.679 1068.07 476.174 1043.7 477.246L1018.42 478.4C932.475 482.441 843.825 486.565 756.6 486.565Z" fill="#EEEEEE"/>
<path d="M780.225 481.864C759.225 481.864 738.6 481.617 718.35 481.204C677.55 480.38 638.1 469.494 599.925 458.938C587.7 455.557 575.1 452.093 562.575 448.959C516.75 437.578 468.75 435.847 406.875 443.516C391.725 445.413 376.275 447.722 361.275 449.949C323.325 455.557 284.1 461.412 245.325 461.082C200.175 460.67 155.4 448.959 112.05 437.661C75.5999 428.177 37.8749 418.363 0.149902 415.229L0.224902 413.663C38.0249 416.714 75.8249 426.61 112.35 436.176C155.625 447.475 200.4 459.185 245.325 459.515C284.025 459.845 323.175 453.99 361.05 448.382C376.05 446.155 391.5 443.846 406.65 441.949C468.675 434.28 516.9 435.929 562.875 447.392C575.4 450.526 588.075 453.99 600.3 457.371C638.4 467.844 677.775 478.73 718.35 479.555C815.4 481.534 922.275 478.73 1036.2 471.143C1061.62 469.411 1087.87 468.339 1113.22 467.267C1162.27 465.205 1212.97 463.144 1261.57 456.546C1289.55 452.753 1316.85 444.176 1343.17 435.847C1374.22 426.115 1406.32 415.972 1439.85 413.58L1439.92 415.147C1406.55 417.539 1374.52 427.6 1343.55 437.331C1317.15 445.66 1289.85 454.237 1261.72 458.031C1213.05 464.628 1162.35 466.772 1113.3 468.834C1087.95 469.906 1061.7 470.978 1036.27 472.71C946.125 478.813 860.25 481.864 780.225 481.864Z" fill="#EEEEEE"/>
<path d="M804.45 476.751C776.625 476.751 748.2 476.421 719.175 475.679C678.525 474.689 639.825 462.896 602.4 451.433C590.625 447.804 578.4 444.093 566.25 440.795C521.025 428.259 475.275 426.445 413.325 434.444C398.85 436.341 384.075 438.65 369.825 440.877C332.925 446.567 294.675 452.505 256.8 452.258C209.775 451.845 163.05 439.557 117.9 427.6C79.5749 417.456 39.8999 406.982 0.149902 403.849L0.224902 402.282C40.0499 405.415 79.7999 415.889 118.2 426.033C163.275 437.908 209.85 450.278 256.725 450.608C294.45 450.856 332.625 445 369.525 439.31C383.775 437.083 398.55 434.774 413.1 432.878C475.2 424.796 521.1 426.692 566.55 439.228C578.7 442.609 590.925 446.32 602.7 449.866C641.775 461.824 678.75 473.04 719.175 474.029C832.2 476.751 936.75 474.194 1029.97 466.195C1056.82 463.886 1084.42 462.236 1111.12 460.587C1158.97 457.701 1208.47 454.649 1256.1 448.052C1284.97 444.011 1313.02 434.857 1340.17 425.95C1372.2 415.477 1405.27 404.673 1440 402.199L1440.07 403.766C1405.5 406.24 1372.5 417.044 1340.62 427.435C1313.47 436.341 1285.35 445.495 1256.32 449.536C1208.7 456.134 1159.12 459.185 1111.27 462.071C1084.57 463.721 1056.97 465.37 1030.2 467.679C960.75 473.782 885.075 476.751 804.45 476.751Z" fill="#EEEEEE"/>
<path d="M825 470.978C788.325 470.978 753 470.318 719.7 469.494C678.975 468.504 642.45 456.464 603.825 443.846C592.425 440.135 580.575 436.259 568.8 432.713C524.55 419.518 479.4 417.456 417.75 425.785C403.8 427.682 389.7 429.909 375.975 432.135C339.75 437.908 302.325 443.928 264.975 443.598C216.75 443.269 168.9 430.486 122.7 418.198C82.8001 407.56 41.5501 396.591 0.225098 393.623L0.300098 392.056C41.7751 395.107 83.1001 406.075 123 416.714C169.125 429.002 216.9 441.702 264.975 442.032C302.175 442.279 339.6 436.341 375.75 430.568C389.475 428.342 403.575 426.115 417.525 424.218C479.325 415.807 524.7 417.951 569.175 431.146C581.025 434.692 592.8 438.568 604.275 442.279C642.825 454.897 679.275 466.855 719.775 467.844C811.65 470.153 919.875 471.06 1025.63 460.587C1054.2 457.783 1083.53 455.556 1111.95 453.33C1158.15 449.866 1205.93 446.237 1252.12 439.805C1281.68 435.681 1310.25 426.033 1337.93 416.714C1370.62 405.663 1404.38 394.282 1440.08 391.973L1440.15 393.54C1404.68 395.849 1371 407.23 1338.38 418.198C1310.7 427.517 1281.97 437.248 1252.35 441.372C1206.15 447.804 1158.38 451.351 1112.1 454.897C1083.75 457.041 1054.43 459.267 1025.85 462.071C958.125 468.916 889.575 470.978 825 470.978Z" fill="#EEEEEE"/>
<path d="M838.5 463.886C800.175 463.886 760.875 463.144 720 462.319C678.975 461.412 642.675 449.041 604.2 435.846C593.1 432.053 581.625 428.094 570 424.548C515.025 407.395 460.65 411.766 419.4 417.538C405.9 419.435 392.175 421.662 378.975 423.806C342.975 429.661 305.775 435.681 268.575 435.434C220.05 435.187 172.05 422.239 125.625 409.786C84.8252 398.818 42.6002 387.52 0.0751953 384.798L0.150195 383.231C42.7502 385.953 85.0502 397.334 125.925 408.302C172.275 420.755 220.2 433.62 268.5 433.867C305.55 434.115 342.75 428.094 378.675 422.239C391.95 420.095 405.6 417.868 419.175 415.971C460.575 410.199 515.1 405.828 570.375 423.064C581.925 426.692 593.475 430.568 604.575 434.444C642.9 447.557 679.125 459.927 719.925 460.834C828.975 463.226 927.075 464.298 1023.45 453.989C1053.98 450.691 1085.33 448.134 1115.55 445.578C1159.8 441.867 1205.55 438.073 1249.88 432.135C1279.8 428.094 1308.6 418.116 1336.5 408.467C1369.5 397.004 1403.7 385.211 1439.85 383.231L1439.93 384.798C1403.93 386.778 1369.88 398.571 1336.95 409.951C1308.98 419.6 1280.1 429.579 1250.1 433.62C1205.7 439.557 1159.95 443.351 1115.7 447.062C1085.4 449.619 1054.13 452.175 1023.6 455.474C963.375 461.906 902.4 463.886 838.5 463.886Z" fill="#EEEEEE"/>
<path d="M826.725 456.299C790.725 456.299 755.1 455.639 720.3 454.814C679.05 453.825 642.675 441.372 604.125 428.177C593.025 424.383 581.55 420.425 570 416.796C515.7 399.808 463.425 403.766 419.475 409.786C406.05 411.601 392.4 413.827 379.2 415.889C342.9 421.662 305.4 427.6 267.9 427.682C267.825 427.682 267.75 427.682 267.675 427.682C219.825 427.682 172.725 414.57 127.2 401.787C85.9501 390.241 43.3501 378.366 0.225098 376.222L0.300098 374.655C43.5751 376.799 86.2501 388.757 127.575 400.22C173.025 412.92 220.05 426.033 267.75 426.033C267.825 426.033 267.9 426.033 267.975 426.033C305.4 426.033 342.825 420.013 379.05 414.24C392.25 412.178 405.9 409.951 419.325 408.137C463.425 402.034 515.925 398.158 570.45 415.147C582 418.775 593.475 422.734 604.65 426.528C643.125 439.722 679.425 452.093 720.45 453.082C818.625 455.474 923.4 456.216 1023.9 445.66C1054.5 442.444 1085.85 439.887 1116.15 437.413C1160.33 433.785 1205.93 430.074 1250.25 424.301C1280.18 420.342 1308.98 410.199 1336.8 400.385C1369.73 388.757 1403.85 376.716 1440.08 374.985L1440.15 376.552C1404.07 378.283 1370.1 390.324 1337.25 401.869C1309.35 411.683 1280.55 421.909 1250.47 425.785C1206.15 431.558 1160.48 435.269 1116.3 438.898C1086 441.372 1054.65 443.928 1024.05 447.145C958.95 454.237 892.275 456.299 826.725 456.299Z" fill="#EEEEEE"/>
<path d="M799.8 449.536C774.15 449.536 747.975 449.207 721.275 448.547C679.8 447.475 643.2 434.939 604.35 421.744C593.1 417.868 581.475 413.91 569.775 410.281C515.625 393.375 462.975 397.251 418.65 403.189C405 405.003 391.2 407.148 377.85 409.209C341.1 414.9 303 420.837 265.05 421.002C264.675 421.002 264.375 421.002 264 421.002C217.05 421.002 171.225 407.23 126.9 393.87C85.8748 381.5 43.4998 368.717 0.299805 366.903L0.374805 365.336C43.7248 367.15 86.2498 380.015 127.35 392.386C171.9 405.828 217.95 419.683 265.125 419.518C303 419.353 341.025 413.498 377.775 407.807C391.125 405.746 405 403.601 418.65 401.787C463.125 395.767 516 391.973 570.375 408.879C582.075 412.508 593.775 416.549 605.025 420.342C643.725 433.537 680.325 446.073 721.575 447.145C832.575 449.949 934.65 446.897 1025.02 437.991C1054.5 435.104 1084.72 432.795 1113.9 430.651C1159.05 427.27 1205.77 423.806 1251 417.786C1280.92 413.827 1309.5 403.436 1337.17 393.375C1369.95 381.5 1403.85 369.129 1440.15 367.48L1440.22 369.047C1404.15 370.696 1370.32 382.984 1337.7 394.86C1309.95 404.921 1281.22 415.394 1251.22 419.353C1206 425.291 1159.2 428.837 1114.05 432.218C1084.8 434.445 1054.65 436.671 1025.17 439.558C956.175 446.155 880.725 449.536 799.8 449.536Z" fill="#EEEEEE"/>
<path d="M740.1 443.434C734.325 443.434 728.55 443.351 722.775 443.186C681.075 442.114 644.1 429.496 604.875 416.136C593.4 412.178 581.475 408.137 569.55 404.426C515.325 387.602 462 391.313 417 397.169C402.975 398.983 388.8 401.127 375 403.189C337.575 408.797 298.875 414.652 260.25 414.817C259.875 414.817 259.575 414.817 259.2 414.817C212.925 414.817 168.15 399.89 124.875 385.458C84.6751 372.098 43.0501 358.243 0.225098 356.347L0.300098 354.78C43.3501 356.677 85.0501 370.614 125.4 384.056C168.525 398.488 213.225 413.332 259.275 413.332C259.65 413.332 259.95 413.332 260.325 413.332C298.8 413.168 337.5 407.312 374.85 401.704C388.575 399.643 402.825 397.499 416.85 395.684C462 389.746 515.475 386.035 569.925 402.941C581.925 406.653 593.775 410.693 605.325 414.652C644.4 428.012 681.3 440.547 722.775 441.619C759.075 442.526 795.975 440.3 831.675 438.156C841.275 437.578 850.95 437.001 860.55 436.506C882.9 435.269 905.625 434.774 927.675 434.28C960 433.537 993.375 432.795 1026.23 429.826C1054.2 427.352 1082.93 425.455 1110.68 423.641C1157.18 420.672 1205.33 417.538 1251.68 411.271C1281.53 407.23 1309.95 396.509 1337.4 386.118C1369.95 373.83 1403.63 361.13 1439.85 359.398L1439.93 360.965C1403.93 362.614 1370.33 375.314 1337.85 387.602C1310.33 397.993 1281.83 408.797 1251.83 412.838C1205.4 419.105 1157.25 422.239 1110.75 425.208C1083 427.022 1054.28 428.837 1026.3 431.393C993.375 434.362 960 435.104 927.675 435.846C905.7 436.341 882.975 436.836 860.625 438.073C851.025 438.568 841.35 439.145 831.75 439.722C801.75 441.537 770.85 443.434 740.1 443.434Z" fill="#EEEEEE"/>
<path d="M736.725 438.816C732.75 438.816 728.775 438.733 724.8 438.651C682.725 437.744 645.3 424.961 605.7 411.436C593.85 407.395 581.625 403.189 569.325 399.396C515.025 382.572 462.9 385.871 414.75 391.974C400.2 393.788 385.425 395.932 371.175 398.076C333 403.684 293.475 409.457 254.175 409.539C254.025 409.539 253.875 409.539 253.725 409.539C207.9 409.539 164.25 393.128 122.025 377.212C82.8751 362.532 42.3751 347.276 0.225098 345.131L0.300098 343.564C42.6751 345.709 83.2501 360.965 122.55 375.727C164.7 391.561 208.2 407.89 253.8 407.89C253.95 407.89 254.1 407.89 254.25 407.89C293.475 407.807 332.925 402.035 371.1 396.427C385.425 394.365 400.2 392.138 414.75 390.324C463.05 384.221 515.325 380.923 569.85 397.829C582.15 401.622 594.375 405.828 606.225 409.869C645.75 423.394 683.1 436.094 724.95 437.001C761.7 437.826 798.975 434.61 834.975 431.558C844.275 430.734 853.5 429.992 862.8 429.249C890.325 427.105 918.3 426.363 945.375 425.621C972.6 424.879 1000.73 424.136 1028.33 421.91C1054.8 419.848 1082.1 418.446 1108.5 417.044C1156.28 414.57 1205.7 412.096 1253.03 405.416C1282.73 401.21 1310.93 390.077 1338.15 379.273C1370.4 366.491 1403.78 353.296 1440 351.564L1440.08 353.131C1404.08 354.863 1370.85 368.058 1338.68 380.758C1311.38 391.561 1283.18 402.694 1253.25 406.983C1205.85 413.663 1156.43 416.219 1108.58 418.693C1082.18 420.013 1054.88 421.415 1028.4 423.559C1000.73 425.703 972.6 426.528 945.375 427.27C918.3 428.012 890.325 428.755 862.875 430.899C853.575 431.641 844.35 432.383 835.05 433.208C802.8 436.012 769.65 438.816 736.725 438.816Z" fill="#EEEEEE"/>
<path d="M734.925 434.939C732.375 434.939 729.825 434.939 727.275 434.857C684.825 434.114 646.95 421.167 606.75 407.395C594.525 403.189 581.85 398.9 569.175 394.942C514.425 378.118 461.325 381.252 412.05 387.19C396.825 389.004 381.375 391.231 366.45 393.375C327.375 398.9 286.95 404.673 246.825 404.591C201.6 404.508 159.225 386.365 118.275 368.799C80.5499 352.635 41.4749 335.894 0.149902 333.255L0.224902 331.688C41.7749 334.327 80.9249 351.151 118.725 367.315C159.6 384.798 201.825 402.859 246.825 403.024C247.125 403.024 247.5 403.024 247.8 403.024C287.475 403.024 327.525 397.333 366.225 391.808C381.225 389.664 396.675 387.52 411.9 385.623C461.325 379.685 514.575 376.469 569.625 393.457C582.3 397.333 594.975 401.704 607.2 405.91C647.25 419.6 685.05 432.548 727.275 433.29C764.25 433.95 801.525 429.661 837.675 425.538C846.675 424.466 855.975 423.476 865.2 422.486C897.825 419.023 930.975 418.033 963.15 417.126C985.275 416.466 1008.15 415.806 1030.57 414.322C1055.78 412.673 1081.88 411.765 1107.15 410.858C1155.97 409.126 1206.45 407.312 1254.53 400.22C1284.15 395.767 1311.97 384.221 1338.9 373.005C1370.78 359.728 1403.78 345.956 1439.93 344.059L1440 345.626C1404.08 347.522 1371.15 361.212 1339.35 374.407C1312.35 385.623 1284.45 397.251 1254.6 401.704C1206.53 408.879 1155.97 410.693 1107.15 412.425C1081.95 413.332 1055.85 414.24 1030.65 415.889C1008.15 417.373 985.275 418.033 963.15 418.693C931.05 419.6 897.9 420.59 865.35 424.053C856.2 425.043 846.9 426.115 837.825 427.105C804.225 430.981 769.5 434.939 734.925 434.939Z" fill="#EEEEEE"/>
<path d="M734.4 431.558C732.975 431.558 731.475 431.558 730.05 431.558C687.225 431.063 646.875 417.209 607.95 403.849C595.275 399.478 582.15 395.024 569.1 390.984C513.825 374.077 459.525 377.046 409.05 382.902C393.075 384.716 376.8 387.025 361.125 389.169C321.075 394.695 279.675 400.385 238.725 400.055C194.25 399.643 153.525 379.685 114.075 360.305C77.9251 342.575 40.5001 324.184 0.225098 320.885L0.300098 319.318C40.8751 322.617 78.3751 341.09 114.675 358.903C153.975 378.201 194.55 398.076 238.725 398.488C279.6 398.818 320.925 393.128 360.9 387.602C376.65 385.458 392.925 383.149 408.9 381.335C459.525 375.479 513.975 372.428 569.55 389.499C582.675 393.54 595.8 397.993 608.475 402.364C649.125 416.301 687.525 429.496 730.2 429.991C767.25 430.404 804.525 424.961 840.6 419.683C849.6 418.363 858.975 416.961 868.2 415.724C905.7 410.611 943.95 409.539 980.925 408.467C998.1 407.972 1015.88 407.477 1033.43 406.57C1057.58 405.333 1082.7 404.921 1106.93 404.508C1156.58 403.601 1207.88 402.777 1256.25 395.107C1285.73 390.406 1313.25 378.366 1339.88 366.655C1371.38 352.801 1404 338.451 1440.08 336.389L1440.15 337.956C1404.3 340.018 1371.82 354.285 1340.4 368.14C1313.7 379.85 1286.1 391.973 1256.47 396.674C1208.03 404.343 1156.65 405.251 1106.93 406.158C1082.63 406.57 1057.58 406.982 1033.43 408.219C1015.95 409.127 998.1 409.621 980.925 410.116C943.95 411.188 905.775 412.26 868.35 417.373C859.125 418.611 849.825 420.012 840.825 421.332C805.95 426.28 770.1 431.558 734.4 431.558Z" fill="#EEEEEE"/>
<path d="M734.775 428.589C734.175 428.589 733.575 428.589 732.975 428.589C689.7 428.342 648.75 414.24 609.15 400.632C596.025 396.097 582.45 391.478 568.95 387.355C516.15 371.274 465.525 372.346 405.675 378.943C388.95 380.757 371.85 383.067 355.275 385.293C314.175 390.819 271.725 396.591 229.875 395.849C186.15 395.107 147.15 373.088 109.5 351.893C75.0749 332.431 39.4499 312.309 0.149902 308.268L0.299902 306.701C39.8999 310.824 75.5999 330.946 110.175 350.409C147.75 371.603 186.525 393.458 229.95 394.2C271.725 394.942 314.1 389.169 355.125 383.644C371.625 381.417 388.725 379.108 405.525 377.294C465.525 370.696 516.3 369.624 569.325 385.788C582.9 389.911 596.475 394.612 609.6 399.065C649.125 412.673 689.925 426.692 733.05 426.94C770.175 427.187 807.375 420.425 843.3 413.91C852.375 412.26 861.825 410.529 871.05 408.962C913.275 401.869 956.25 400.88 997.875 399.89C1010.4 399.643 1023.3 399.313 1036.05 398.818C1059.3 397.993 1083.6 397.993 1107.15 398.076C1157.4 398.158 1209.38 398.241 1257.9 390.076C1287.22 385.128 1314.38 372.511 1340.62 360.305C1371.75 345.873 1403.93 330.864 1439.93 328.555L1440 330.122C1404.23 332.431 1372.12 347.275 1341.15 361.707C1314.82 373.913 1287.6 386.613 1258.05 391.561C1209.45 399.808 1157.4 399.725 1107.07 399.56C1083.6 399.478 1059.23 399.478 1036.05 400.303C1023.3 400.797 1010.4 401.045 997.875 401.375C956.325 402.364 913.35 403.354 871.2 410.446C861.975 412.013 852.525 413.745 843.45 415.394C808.05 421.909 771.45 428.589 734.775 428.589Z" fill="#EEEEEE"/>
<path d="M735.825 425.785C692.1 425.785 650.55 411.436 610.35 397.581C596.775 392.88 582.75 388.097 568.8 383.809C515.325 367.562 463.575 368.552 402.225 374.985C384.675 376.799 366.75 379.191 349.425 381.5C307.275 387.108 263.7 392.798 220.875 391.726C177.9 390.571 140.775 366.573 104.925 343.399C72.3001 322.287 38.5501 300.433 0.225098 295.567L0.375098 294C39.0001 298.949 72.9001 320.803 105.675 342.08C141.375 365.171 178.35 389.087 220.95 390.241C263.625 391.396 307.2 385.623 349.275 380.015C366.6 377.706 384.6 375.315 402.15 373.5C463.65 367.068 515.625 366.078 569.25 382.407C583.2 386.613 597.3 391.478 610.875 396.179C651 410.034 692.475 424.301 735.975 424.301C736.05 424.301 736.05 424.301 736.125 424.301C773.325 424.301 810.375 416.301 846.225 408.549C855.375 406.57 864.9 404.508 874.2 402.612C920.85 393.21 966.225 392.55 1014.23 391.891C1022.48 391.808 1030.73 391.643 1038.98 391.478C1061.48 391.066 1085.18 391.561 1108.05 392.056C1158.83 393.128 1211.33 394.282 1259.78 385.541C1288.95 380.263 1315.73 367.15 1341.6 354.45C1372.28 339.358 1404 323.772 1440 321.215L1440.08 322.782C1404.38 325.339 1372.73 340.843 1342.2 355.852C1316.25 368.635 1289.4 381.83 1260 387.108C1211.48 395.849 1158.9 394.695 1108.05 393.623C1085.18 393.128 1061.48 392.633 1039.05 393.045C1030.8 393.21 1022.55 393.293 1014.3 393.458C966.375 394.117 921.075 394.777 874.5 404.179C865.2 406.075 855.675 408.137 846.525 410.116C810.675 417.868 773.55 425.868 736.125 425.95C735.975 425.785 735.9 425.785 735.825 425.785Z" fill="#EEEEEE"/>
<path d="M737.55 423.064C693.525 423.064 651.225 408.467 610.35 394.282C596.7 389.582 582.525 384.633 568.575 380.345C514.725 363.934 463.65 364.594 398.625 371.109C380.325 372.923 361.575 375.397 343.425 377.706C300.15 383.314 255.45 389.169 211.725 387.602C169.35 386.118 134.25 360.058 100.275 334.905C69.4499 312.144 37.5749 288.558 0.149902 282.867L0.374902 281.3C38.1749 287.073 70.1999 310.742 101.175 333.668C135 358.738 169.95 384.551 211.875 386.118C255.525 387.685 300.15 381.83 343.35 376.222C361.5 373.83 380.325 371.438 398.625 369.624C463.8 363.109 515.025 362.367 569.025 378.861C583.05 383.149 597.15 388.015 610.875 392.798C652.125 407.065 694.8 421.827 739.05 421.497C776.4 421.249 813.3 411.931 849 402.941C858.225 400.632 867.825 398.241 877.2 396.014C927.975 384.139 977.175 383.974 1029.3 383.891C1033.43 383.891 1037.62 383.891 1041.75 383.891C1061.4 383.809 1080.97 383.726 1100.62 383.561C1119.6 383.479 1138.5 383.314 1157.47 383.231C1167.15 383.231 1177.2 383.479 1186.95 383.809C1211.78 384.551 1237.5 385.376 1261.5 380.757C1290.53 375.15 1316.93 361.542 1342.43 348.265C1372.65 332.596 1404 316.349 1439.93 313.546L1440 315.112C1404.38 317.916 1373.18 334.08 1343.03 349.667C1317.45 362.944 1290.97 376.634 1261.72 382.242C1237.57 386.86 1211.78 386.118 1186.88 385.376C1177.12 385.046 1167.07 384.798 1157.47 384.798C1138.5 384.881 1119.6 384.963 1100.62 385.128C1080.97 385.211 1061.4 385.376 1041.75 385.458C1037.55 385.458 1033.43 385.458 1029.3 385.458C977.25 385.623 928.125 385.706 877.5 397.581C868.125 399.808 858.525 402.199 849.3 404.508C813.525 413.497 776.55 422.816 739.05 423.064C738.525 423.064 738.075 423.064 737.55 423.064Z" fill="#EEEEEE"/>
<path d="M739.275 420.26C695.175 420.26 652.65 405.498 611.475 391.149C597.375 386.283 582.825 381.17 568.425 376.799C508.05 358.491 449.85 362.037 395.325 367.233C376.275 369.047 356.775 371.521 337.8 373.995C293.475 379.685 247.575 385.541 202.95 383.561C161.175 381.665 127.95 353.708 95.8502 326.741C66.9002 302.165 36.8252 276.847 0.0751953 270.415L0.300195 268.848C37.3502 275.363 67.5752 300.845 96.7502 325.421C128.7 352.306 161.7 380.098 203.025 381.912C247.575 383.891 293.4 378.036 337.65 372.346C356.55 369.954 376.125 367.398 395.175 365.583C449.775 360.305 508.2 356.759 568.8 375.232C583.2 379.603 597.75 384.634 611.85 389.582C653.775 404.179 697.05 419.27 741.9 418.611C779.4 418.116 816.225 407.56 851.775 397.416C861.075 394.777 870.675 392.056 880.125 389.499C934.5 374.985 987.15 375.644 1042.88 376.304L1159.5 377.706C1168.58 377.789 1177.95 378.201 1187.1 378.613C1212.45 379.768 1238.7 380.922 1263.08 375.974C1292.03 370.119 1317.98 355.935 1343.18 342.162C1373.03 325.833 1403.85 309.01 1439.78 306.041L1439.85 307.608C1404.23 310.577 1373.47 327.4 1343.78 343.564C1318.5 357.336 1292.4 371.604 1263.3 377.459C1238.7 382.407 1212.45 381.252 1186.95 380.098C1177.88 379.685 1168.43 379.273 1159.43 379.191L1042.8 377.789C987.15 377.129 934.65 376.469 880.425 390.901C870.975 393.375 861.375 396.179 852.075 398.818C816.375 408.962 779.55 419.518 741.825 420.013C741.075 420.178 740.175 420.26 739.275 420.26Z" fill="#EEEEEE"/>
<path d="M741 417.126C696.825 417.126 654 402.199 612.525 387.767C598.05 382.737 583.05 377.541 568.35 373.088C507.375 354.615 447.975 358.079 392.325 363.192C372.675 365.006 352.425 367.562 332.775 370.036C287.325 375.727 240.375 381.665 194.85 379.273C153.45 377.129 122.175 347.358 91.9502 318.576C64.5752 292.434 36.2252 265.466 0.0751953 258.374L0.300195 256.807C36.8252 263.982 65.3252 291.114 92.8502 317.339C122.925 345.956 153.975 375.479 194.85 377.624C240.225 380.015 287.175 374.077 332.55 368.387C352.125 365.913 372.45 363.357 392.1 361.542C447.825 356.429 507.45 352.965 568.65 371.521C583.35 375.974 598.35 381.17 612.9 386.283C655.425 401.127 699.45 416.384 744.675 415.559C782.4 414.817 819.075 403.189 854.55 391.891C863.85 388.922 873.45 385.87 882.975 383.067C936.075 367.315 986.625 367.315 1047.15 368.964C1066.58 369.459 1086.08 370.037 1105.5 370.614C1124.18 371.191 1142.93 371.686 1161.6 372.181C1170.08 372.428 1179 372.923 1187.55 373.418C1213.35 374.902 1240.05 376.469 1264.8 371.191C1293.6 365.088 1319.25 350.409 1344.08 336.142C1373.55 319.318 1403.93 301.835 1439.85 298.619L1440 300.186C1404.38 303.402 1374.08 320.72 1344.75 337.544C1319.85 351.811 1294.12 366.573 1265.1 372.675C1240.2 377.953 1213.43 376.469 1187.48 374.902C1178.93 374.407 1170.08 373.913 1161.6 373.665C1142.93 373.17 1124.18 372.593 1105.5 372.098C1086.08 371.521 1066.58 370.944 1047.15 370.449C986.7 368.799 936.3 368.799 883.35 384.468C873.9 387.272 864.3 390.324 855 393.293C819.375 404.591 782.625 416.301 744.75 417.044C743.475 417.126 742.2 417.126 741 417.126Z" fill="#EEEEEE"/>
<path d="M742.575 413.58C698.325 413.58 655.125 398.488 613.275 383.891C598.425 378.696 583.125 373.335 568.125 368.882C506.625 350.327 446.175 353.708 389.625 358.738C369.375 360.553 348.525 363.109 328.35 365.666C282 371.439 234 377.376 187.65 374.655C146.55 372.263 117.075 340.925 88.5752 310.577C62.6252 283.032 35.8502 254.498 0.0751953 246.829L0.375195 245.262C36.5252 253.014 63.5252 281.63 89.5502 309.34C119.175 340.843 147.15 370.614 187.725 373.006C233.925 375.727 281.85 369.789 328.125 364.016C348.3 361.542 369.225 358.903 389.475 357.089C446.25 352.059 506.775 348.677 568.5 367.315C583.5 371.851 598.875 377.211 613.725 382.407C656.85 397.416 701.475 413.003 747.075 411.931C785.025 411.024 821.625 398.323 857.025 386.036C866.325 382.819 875.925 379.438 885.45 376.387C940.2 358.656 992.175 359.151 1049.48 361.46C1068.83 362.285 1088.48 363.109 1107.45 363.934C1125.83 364.759 1144.73 365.583 1163.4 366.326C1171.43 366.655 1179.75 367.233 1187.85 367.81C1214.1 369.624 1241.25 371.521 1266.23 365.996C1294.95 359.646 1320.3 344.471 1344.75 329.874C1373.85 312.474 1403.85 294.578 1439.78 291.197L1439.93 292.764C1404.3 296.145 1374.38 313.958 1345.43 331.276C1320.83 345.956 1295.4 361.13 1266.45 367.563C1241.25 373.17 1214.03 371.274 1187.7 369.459C1179.6 368.882 1171.28 368.305 1163.25 367.975C1144.58 367.233 1125.6 366.326 1107.3 365.583C1088.33 364.759 1068.68 363.852 1049.33 363.109C992.1 360.8 940.35 360.305 885.75 377.954C876.3 381.005 866.7 384.386 857.4 387.602C821.85 399.973 785.175 412.673 747 413.58C745.575 413.58 744.075 413.58 742.575 413.58Z" fill="#EEEEEE"/>
<path d="M744.075 409.456C699.6 409.456 656.1 394.282 613.95 379.52C598.875 374.242 583.2 368.799 567.975 364.181C506.025 345.543 447.225 348.595 387.45 353.79C366.75 355.604 345.375 358.161 324.675 360.717C277.5 366.49 228.675 372.428 181.575 369.542C140.55 366.985 112.725 334.327 85.725 302.742C61.125 273.878 35.7 244.024 0 236.107L0.3 234.541C36.375 242.622 62.025 272.641 86.775 301.67C114.825 334.492 141.3 365.501 181.725 367.975C228.675 370.861 277.425 364.923 324.525 359.151C345.225 356.594 366.6 354.037 387.375 352.223C447.3 347.028 506.25 343.976 568.35 362.697C583.65 367.315 599.25 372.758 614.4 378.036C658.05 393.293 703.125 409.044 749.1 407.807C787.275 406.817 823.875 393.21 859.2 380.015C868.5 376.551 878.025 373.005 887.475 369.707C943.35 350.326 996.9 351.234 1051.35 354.12C1070.55 355.11 1090.12 356.264 1109.02 357.419C1127.32 358.491 1146.22 359.563 1164.82 360.552C1172.4 360.965 1180.28 361.542 1188 362.202C1214.62 364.346 1242.15 366.49 1267.5 360.717C1296.15 354.202 1321.2 338.698 1345.43 323.689C1374.15 305.876 1403.92 287.403 1439.85 284.022L1440 285.589C1404.38 289.052 1374.75 307.36 1346.18 325.091C1321.88 340.183 1296.75 355.769 1267.88 362.284C1242.38 368.057 1214.7 365.913 1188 363.769C1179.97 363.109 1172.47 362.532 1164.9 362.119C1146.3 361.13 1127.4 360.058 1109.1 358.986C1090.2 357.914 1070.62 356.759 1051.43 355.687C997.05 352.8 943.65 351.893 888 371.191C878.55 374.49 869.025 378.036 859.725 381.499C824.25 394.694 787.575 408.384 749.175 409.374C747.45 409.456 745.8 409.456 744.075 409.456Z" fill="#EEEEEE"/>
<path d="M745.5 404.591C700.8 404.591 656.925 389.252 614.475 374.408C599.175 369.047 583.35 363.522 567.825 358.903C505.725 340.266 446.4 343.234 385.95 348.347C364.875 350.079 343.125 352.718 322.125 355.192C274.275 360.883 224.85 366.82 177.15 363.934C136.05 361.46 109.575 327.73 83.8502 295.073C60.3002 265.302 35.9252 234.293 0.0751953 226.294L0.375195 224.727C36.6752 232.891 61.2002 264.065 84.9002 294.166C111.525 327.978 136.725 359.976 177.15 362.45C224.7 365.336 274.125 359.398 321.9 353.708C342.975 351.151 364.725 348.595 385.8 346.781C446.325 341.667 505.8 338.699 568.125 357.419C583.575 362.037 599.475 367.563 614.775 372.923C658.8 388.262 704.25 404.179 750.525 402.942C789 401.87 825.525 387.52 860.85 373.583C870.075 369.954 879.6 366.243 888.975 362.779C945.525 342.08 998.7 343.317 1052.78 346.698C1071.98 347.853 1091.48 349.255 1110.3 350.574C1128.53 351.894 1147.35 353.213 1165.88 354.368C1173.08 354.78 1180.2 355.44 1187.78 356.1C1214.78 358.409 1242.75 360.883 1268.4 354.945C1297.05 348.347 1321.88 332.513 1345.8 317.174C1374.3 298.949 1403.7 280.146 1439.78 276.682L1439.93 278.249C1404.23 281.713 1374.9 300.433 1346.55 318.494C1322.48 333.915 1297.58 349.749 1268.7 356.429C1242.83 362.367 1214.78 359.976 1187.7 357.666C1180.13 357.007 1173 356.429 1165.8 355.935C1147.28 354.78 1128.45 353.461 1110.23 352.141C1091.4 350.822 1071.9 349.42 1052.7 348.265C998.775 344.966 945.675 343.647 889.425 364.264C880.05 367.728 870.525 371.439 861.375 375.067C825.9 389.004 789.3 403.436 750.6 404.509C748.875 404.591 747.15 404.591 745.5 404.591Z" fill="#EEEEEE"/>
<path d="M746.625 398.818C701.55 398.818 657.375 383.397 614.55 368.47C599.1 363.109 583.125 357.501 567.525 352.883C505.5 334.328 445.875 337.214 385.125 342.245C363.825 343.977 341.85 346.533 320.625 349.007C272.4 354.615 222.525 360.47 174.3 357.749C132.975 355.44 107.475 321.05 82.7252 287.815C60.0002 257.055 36.3752 225.304 0.0751953 217.47L0.375195 215.903C37.2002 223.82 60.9752 255.818 84.0002 286.826C109.575 321.38 133.8 353.955 174.525 356.182C222.6 358.821 272.4 353.048 320.625 347.44C341.85 344.966 363.825 342.41 385.2 340.678C446.025 335.647 505.8 332.678 568.05 351.316C583.65 356.017 599.625 361.542 615.075 366.985C659.325 382.407 705.075 398.323 751.5 397.169C790.275 396.179 826.8 381.252 862.2 366.82C871.275 363.109 880.725 359.233 890.025 355.687C946.8 334.08 999.9 335.565 1053.83 339.276C1072.95 340.595 1092.38 342.162 1111.2 343.647C1129.35 345.131 1148.1 346.616 1166.63 347.853C1173.38 348.347 1180.13 348.925 1187.33 349.584C1214.78 352.058 1243.13 354.615 1269.15 348.595C1297.8 341.915 1322.48 325.833 1346.25 310.329C1374.53 291.856 1403.78 272.724 1439.93 269.425L1440.08 270.992C1404.23 274.291 1375.13 293.341 1347 311.731C1323.08 327.318 1298.33 343.482 1269.45 350.162C1243.2 356.264 1214.78 353.708 1187.25 351.151C1180.13 350.492 1173.38 349.914 1166.55 349.419C1148.1 348.1 1129.28 346.616 1111.13 345.214C1092.3 343.729 1072.88 342.162 1053.75 340.843C999.975 337.132 946.95 335.647 890.475 357.172C881.175 360.718 871.8 364.511 862.725 368.305C827.25 382.819 790.575 397.746 751.575 398.736C749.925 398.818 748.275 398.818 746.625 398.818Z" fill="#EEEEEE"/>
<path d="M747.225 392.056C701.85 392.056 657.45 376.552 614.475 361.543C599.025 356.182 583.125 350.574 567.525 345.874C505.8 327.318 446.025 330.287 385.2 335.235C363.9 336.967 341.925 339.523 320.7 341.915C272.325 347.44 222.3 353.213 173.775 350.822C132.15 348.76 107.1 314.123 82.8752 280.641C60.2252 249.55 36.9002 217.388 0.0751953 209.965L0.300195 208.398C37.6502 215.903 61.2002 248.313 83.9252 279.734C109.05 314.453 132.825 347.276 173.775 349.337C222.15 351.729 272.1 346.039 320.475 340.513C341.7 338.039 363.675 335.565 385.05 333.751C446.025 328.72 505.95 325.751 567.9 344.389C583.5 349.09 599.475 354.615 614.925 360.058C659.175 375.48 704.925 391.479 751.65 390.489C790.725 389.582 827.325 374.408 862.725 359.728C871.725 356.017 881.1 352.141 890.325 348.513C947.025 326.493 1002.3 328.308 1054.13 332.019C1073.85 333.421 1094.18 336.06 1115.7 338.946C1167.75 345.791 1221.6 352.801 1269.3 341.915C1298.03 335.4 1322.55 319.071 1346.25 303.402C1374.45 284.764 1403.55 265.384 1439.93 262.333L1440 263.9C1404 266.951 1375.05 286.166 1347 304.804C1323.15 320.556 1298.55 336.884 1269.6 343.564C1221.68 354.45 1167.75 347.44 1115.55 340.596C1094.03 337.792 1073.7 335.153 1054.05 333.751C1000.28 329.875 947.325 328.225 890.85 350.162C881.625 353.708 872.325 357.584 863.325 361.378C827.775 376.14 791.1 391.396 751.725 392.303C750.15 392.056 748.65 392.056 747.225 392.056Z" fill="#EEEEEE"/>
<path d="M744.375 385.046C699.225 385.046 655.35 369.294 612.825 353.955C597.75 348.512 582.15 342.904 566.85 338.204C505.575 319.153 445.725 322.287 384.75 327.565C363.6 329.38 341.85 332.019 320.775 334.575C272.4 340.43 222.45 346.451 174.075 343.729C132.6 341.42 107.325 307.031 82.8002 273.713C60.1502 242.87 36.6752 210.955 0.0751953 203.285L0.375195 201.718C37.4252 209.47 61.1252 241.633 84.0002 272.724C109.425 307.278 133.425 339.853 174.225 342.162C222.45 344.884 272.4 338.863 320.7 333.008C341.775 330.452 363.6 327.813 384.75 325.998C445.875 320.72 505.875 317.587 567.375 336.719C582.675 341.502 598.275 347.11 613.425 352.553C657.3 368.305 702.525 384.634 749.175 383.479C788.55 382.489 825.525 367.068 861.225 352.141C870.525 348.265 880.125 344.224 889.65 340.595C942 320.308 991.275 319.154 1053.9 324.019C1073.63 325.504 1093.95 328.308 1115.55 331.276C1167.6 338.451 1221.45 345.791 1269.15 335.07C1298.03 328.555 1322.48 311.979 1346.18 295.897C1374.3 276.847 1403.4 257.055 1440.08 254.251L1440.15 255.818C1403.85 258.622 1374.9 278.249 1346.93 297.217C1323.15 313.381 1298.63 330.039 1269.45 336.554C1221.53 347.358 1167.6 339.936 1115.4 332.761C1093.88 329.792 1073.55 326.988 1053.83 325.504C991.35 320.72 942.225 321.792 890.1 341.997C880.65 345.708 871.05 349.667 861.75 353.543C825.9 368.47 788.85 383.974 749.25 384.963C747.525 385.046 745.95 385.046 744.375 385.046Z" fill="#EEEEEE"/>
<path d="M738.9 378.284C694.275 378.284 651.375 362.037 609.75 346.368C595.125 340.843 579.9 335.07 565.05 330.204C504.6 310.412 444.975 313.876 384.225 319.484C363.375 321.38 341.85 324.184 321 326.823C272.85 333.008 223.05 339.441 174.975 336.637C133.65 334.245 108 300.103 83.1752 267.116C60.1502 236.603 36.3752 205.017 0.0751953 197.265L0.375195 195.698C37.2002 203.615 61.1252 235.366 84.2252 266.126C109.95 300.351 134.325 332.679 174.975 335.07C222.975 337.874 272.7 331.441 320.775 325.339C341.625 322.7 363.15 319.896 384.075 317.917C444.975 312.226 504.75 308.845 565.425 328.72C580.35 333.586 595.5 339.358 610.2 344.884C653.25 361.13 697.725 377.954 743.85 376.634C783.75 375.562 821.325 359.646 857.775 344.307C867.525 340.183 877.65 335.977 887.625 332.019C941.925 310.824 993.075 310 1053.3 315.278C1072.88 317.01 1093.2 320.061 1114.73 323.277C1167 331.112 1221 339.194 1268.63 328.39C1297.73 321.793 1322.18 304.639 1345.73 288.146C1373.85 268.436 1402.88 248.148 1439.93 245.427L1440 246.994C1403.33 249.715 1374.38 269.92 1346.48 289.465C1322.78 306.041 1298.25 323.277 1268.85 329.957C1221 340.843 1166.85 332.761 1114.43 324.926C1092.98 321.71 1072.65 318.659 1053.08 316.927C993.075 311.649 942 312.474 888 333.586C878.025 337.462 867.975 341.75 858.225 345.791C821.7 361.213 783.975 377.047 743.85 378.201C742.2 378.201 740.55 378.284 738.9 378.284Z" fill="#EEEEEE"/>
<path d="M731.4 371.603C687.6 371.603 645.825 354.78 605.4 338.451C591.225 332.761 576.6 326.823 562.2 321.875C502.875 301.175 443.775 304.886 383.475 310.989C362.925 313.051 341.7 316.019 321.15 318.823C273.3 325.421 223.875 332.266 176.1 329.462C134.925 327.07 108.825 293.341 83.6249 260.766C60.3749 230.664 36.2249 199.574 0.149902 191.822L0.449902 190.255C37.0499 198.172 61.3499 229.427 84.7499 259.776C110.925 293.588 135.675 325.586 176.25 327.895C223.875 330.699 273.3 323.854 321.075 317.257C341.625 314.37 362.85 311.484 383.475 309.422C444 303.319 503.175 299.526 562.8 320.308C577.2 325.338 591.9 331.276 606 336.966C647.925 353.873 691.2 371.273 736.65 369.871C777.225 368.634 815.85 352.141 853.125 336.224C863.475 331.771 874.2 327.235 884.775 323.112C941.85 300.68 993.15 300.021 1052.62 306.041C1071.75 307.938 1091.17 310.247 1110 312.391C1128.15 314.535 1146.9 316.679 1165.42 318.576C1171.65 319.236 1177.95 319.978 1184.55 320.803C1212.6 324.184 1241.62 327.73 1268.02 321.545C1297.42 314.7 1321.8 296.969 1345.35 279.816C1373.4 259.364 1402.5 238.334 1440 235.53L1440.07 237.097C1402.87 239.818 1374 260.848 1346.1 281.135C1322.4 298.371 1297.87 316.184 1268.25 323.112C1241.62 329.297 1212.45 325.833 1184.25 322.37C1177.65 321.545 1171.35 320.803 1165.12 320.143C1146.6 318.246 1127.85 316.102 1109.7 313.958C1090.87 311.731 1071.45 309.504 1052.32 307.608C993.075 301.67 941.925 302.247 885.15 324.596C874.65 328.72 863.925 333.338 853.575 337.709C816.15 353.708 777.45 370.201 736.575 371.438C734.85 371.603 733.125 371.603 731.4 371.603Z" fill="#EEEEEE"/>
<path d="M722.55 365.088C679.65 365.088 639.225 347.522 600.075 330.616C586.5 324.761 572.475 318.658 558.675 313.463C500.7 291.609 444.675 295.567 382.65 302.495C362.4 304.721 341.55 307.855 321.3 310.906C273.9 317.999 224.925 325.338 177.525 322.617C136.5 320.308 109.875 287.073 84.1502 254.993C60.5252 225.304 36.0752 194.791 0.0751953 187.039L0.375195 185.472C36.8252 193.306 61.5002 224.067 85.3502 253.838C112.05 287.155 137.25 318.658 177.75 320.968C225 323.689 273.975 316.349 321.3 309.257C341.55 306.206 362.4 303.072 382.65 300.845C444.825 293.918 501 290.042 559.275 311.896C573.15 317.092 587.175 323.194 600.75 329.132C641.25 346.698 683.175 364.923 727.725 363.439C769.2 362.037 808.95 344.883 847.425 328.307C858.45 323.524 869.925 318.576 881.1 314.123C941.4 290.289 992.85 289.959 1051.58 296.722C1070.78 298.948 1090.2 301.505 1109.03 303.979C1127.18 306.371 1145.93 308.845 1164.45 310.989C1170.6 311.731 1176.83 312.556 1183.35 313.463C1211.55 317.339 1240.73 321.297 1267.13 314.865C1296.75 307.608 1321.13 289.217 1344.68 271.321C1372.73 250.045 1401.83 228.025 1439.85 225.057L1439.93 226.624C1402.2 229.592 1373.33 251.447 1345.43 272.558C1321.73 290.454 1297.28 309.01 1267.35 316.349C1240.73 322.864 1211.4 318.823 1183.05 314.947C1176.53 314.04 1170.3 313.216 1164.15 312.473C1145.63 310.329 1126.88 307.855 1108.73 305.463C1089.9 302.989 1070.48 300.433 1051.28 298.206C992.7 291.444 941.475 291.774 881.4 315.525C870.225 319.978 858.825 324.844 847.725 329.627C809.175 346.285 769.35 363.521 727.575 364.841C726 365.088 724.275 365.088 722.55 365.088Z" fill="#EEEEEE"/>
<path d="M713.025 358.656C671.25 358.656 632.775 340.513 595.425 323.03C582.15 316.762 568.425 310.329 554.775 304.804C498 281.878 442.875 286.166 381.975 293.588C362.1 295.98 341.625 299.361 321.75 302.577C274.875 310.164 226.35 318.081 179.4 315.525C138.45 313.298 111.225 280.723 84.9752 249.138C60.9002 220.274 36.0002 190.338 0.0751953 182.75L0.375195 181.184C36.7502 188.853 61.8752 218.954 86.1002 248.148C113.4 280.888 139.125 311.814 179.55 313.958C226.35 316.432 274.8 308.598 321.6 301.01C341.475 297.794 361.95 294.413 381.825 292.021C442.95 284.517 498.225 280.228 555.3 303.32C568.95 308.845 582.675 315.278 596.025 321.545C634.65 339.688 674.55 358.491 717.9 357.007C760.425 355.522 801.45 337.626 841.2 320.391C852.975 315.278 865.2 309.917 877.05 305.216C931.5 283.61 981.75 278.497 1050.53 287.403C1069.73 289.877 1089.23 292.764 1108.05 295.485C1126.2 298.124 1144.95 300.928 1163.48 303.32C1169.55 304.144 1175.7 305.051 1182.15 306.041C1210.5 310.329 1239.83 314.783 1266.3 308.02C1296.3 300.351 1320.6 281.053 1344.15 262.415C1372.28 240.231 1401.3 217.222 1439.93 213.924L1440 215.491C1401.75 218.789 1372.88 241.633 1344.9 263.652C1321.2 282.373 1296.75 301.753 1266.53 309.505C1239.83 316.35 1210.35 311.896 1181.85 307.525C1175.4 306.536 1169.25 305.629 1163.18 304.804C1144.65 302.412 1125.9 299.608 1107.75 296.969C1088.93 294.248 1069.43 291.362 1050.3 288.888C992.4 281.383 940.875 281.548 877.5 306.618C865.65 311.319 853.425 316.597 841.65 321.793C801.825 339.111 760.65 357.089 717.9 358.574C716.25 358.656 714.6 358.656 713.025 358.656Z" fill="#EEEEEE"/>
<path d="M703.2 352.388C662.25 352.388 625.275 333.503 589.425 315.195C576.825 308.762 563.775 302.082 550.725 296.309C495.75 272.146 441.45 276.847 381.225 284.929C361.8 287.568 341.625 291.114 322.2 294.495C276 302.659 228.075 311.071 181.575 308.762C140.7 306.783 112.875 274.785 86.0252 243.942C61.4252 215.655 35.9252 186.296 0.0751953 179.039L0.300195 177.472C36.6002 184.812 62.2502 214.336 87.0002 242.87C114.9 274.95 141.225 305.216 181.575 307.195C227.925 309.422 275.7 301.093 321.975 292.928C341.4 289.547 361.575 286.001 381 283.362C441.375 275.197 495.9 270.497 551.175 294.825C564.225 300.598 577.275 307.278 589.95 313.71C626.925 332.596 665.175 352.223 707.625 350.739C751.2 349.254 793.65 330.699 834.675 312.721C847.2 307.195 860.175 301.587 872.775 296.557C930.075 273.878 981.225 268.6 1049.33 278.249C1068.53 280.97 1088.03 284.104 1106.85 287.073C1125 289.959 1143.83 292.928 1162.28 295.567C1168.28 296.392 1174.28 297.381 1180.65 298.454C1209.15 303.154 1238.7 308.02 1265.18 300.845C1295.48 292.681 1319.85 272.558 1343.4 253.096C1371.53 229.84 1400.62 205.841 1439.85 202.213L1440 203.78C1401.15 207.408 1372.28 231.324 1344.3 254.415C1320.6 273.96 1296.15 294.165 1265.55 302.412C1238.85 309.669 1207.88 304.556 1180.5 300.02C1174.13 298.948 1168.13 297.959 1162.13 297.134C1143.6 294.495 1124.85 291.526 1106.63 288.64C1087.8 285.671 1068.3 282.537 1049.1 279.816C981.225 270.167 930.3 275.445 873.225 298.041C860.7 302.989 847.725 308.68 835.2 314.123C794.025 332.101 751.5 350.739 707.7 352.223C706.275 352.388 704.7 352.388 703.2 352.388Z" fill="#EEEEEE"/>
<path d="M693.825 346.121C653.475 346.121 618 326.411 583.65 307.361C571.65 300.681 559.275 293.836 546.9 287.898C493.725 262.415 442.425 267.363 380.85 276.435C361.8 279.239 342.075 282.95 323.1 286.579C277.35 295.238 230.1 304.144 184.05 302.165C143.175 300.351 114.75 269.178 87.2252 238.994C62.0252 211.367 35.9252 182.751 0.0751953 175.823L0.300195 174.256C36.6002 181.349 62.7752 210.048 88.1252 237.84C116.7 269.178 143.7 298.784 183.975 300.516C229.8 302.495 277.05 293.588 322.725 284.929C341.775 281.301 361.5 277.589 380.55 274.786C442.35 265.714 493.875 260.766 547.425 286.414C559.875 292.351 572.25 299.279 584.25 305.959C619.575 325.586 656.1 345.873 697.725 344.471C742.425 342.987 786.15 323.854 828.525 305.381C841.725 299.609 855.45 293.588 868.65 288.475C928.5 264.972 980.55 259.529 1048.13 269.672C1067.33 272.559 1086.83 275.858 1105.65 278.991C1123.8 282.043 1142.63 285.177 1161.08 287.981C1166.93 288.888 1172.85 289.877 1179.15 290.949C1206.53 295.65 1237.58 301.093 1264.05 293.506C1294.73 284.764 1319.03 263.735 1342.65 243.447C1370.78 219.202 1399.95 194.131 1439.78 190.008L1439.93 191.575C1400.48 195.616 1371.53 220.604 1343.55 244.685C1319.85 265.054 1295.4 286.166 1264.43 294.99C1237.65 302.66 1206.45 297.217 1179 292.434C1172.7 291.362 1166.85 290.29 1161 289.465C1142.48 286.661 1123.73 283.527 1105.5 280.476C1086.68 277.342 1067.18 274.043 1048.05 271.157C980.625 261.096 928.875 266.456 869.25 289.877C856.05 295.073 842.4 301.011 829.2 306.783C786.75 325.339 742.8 344.554 697.875 345.956C696.525 346.121 695.175 346.121 693.825 346.121Z" fill="#EEEEEE"/>
<path d="M685.425 340.018C645.525 340.018 611.475 319.566 578.55 299.773C567.15 292.928 555.375 285.836 543.525 279.733C492.15 253.096 441.45 258.374 380.55 268.105C361.875 271.074 342.675 274.95 324 278.744C278.85 287.898 232.2 297.299 186.6 295.567C145.725 294 116.625 263.652 88.4252 234.293C62.6252 207.408 35.9252 179.617 0.0751953 173.019L0.300195 171.452C36.6002 178.132 63.4502 206.089 89.4002 233.139C118.65 263.652 146.325 292.434 186.6 294C231.975 295.732 278.625 286.331 323.7 277.177C342.3 273.383 361.575 269.507 380.25 266.538C441.375 256.807 492.225 251.447 544.05 278.249C555.975 284.434 567.75 291.526 579.15 298.371C612.9 318.659 647.775 339.606 688.8 338.369C734.475 337.049 779.55 317.504 823.2 298.701C837.075 292.681 851.325 286.496 865.125 281.218C927.15 257.219 979.95 251.612 1047.3 261.92C1066.5 264.807 1085.93 268.188 1104.75 271.404C1122.9 274.538 1141.65 277.754 1160.18 280.558C1165.88 281.465 1171.65 282.455 1177.8 283.527C1205.33 288.393 1236.53 293.836 1263.08 285.836C1294.05 276.517 1318.43 254.663 1341.98 233.469C1370.18 208.151 1399.28 182.008 1439.78 177.472L1439.93 179.039C1399.88 183.575 1370.93 209.553 1342.88 234.706C1319.18 255.982 1294.73 277.919 1263.45 287.321C1236.68 295.402 1205.25 289.877 1177.58 285.011C1171.43 283.939 1165.65 282.95 1159.95 282.043C1141.43 279.156 1122.68 275.94 1104.45 272.889C1085.63 269.672 1066.2 266.291 1047 263.405C979.875 253.179 927.3 258.786 865.5 282.62C851.7 287.98 838.05 293.836 823.575 300.103C779.85 318.988 734.625 338.533 688.725 339.935C687.75 340.018 686.55 340.018 685.425 340.018Z" fill="#EEEEEE"/>
<path d="M678.375 333.915C638.7 333.915 607.35 313.711 574.2 292.434C563.325 285.424 552.15 278.249 540.675 271.817C490.875 244.107 440.775 249.798 380.475 260.106C362.175 263.24 343.425 267.281 325.2 271.157C280.65 280.723 234.6 290.537 189.375 289.135C148.5 287.816 118.65 258.374 89.7752 229.84C63.4502 203.863 36.1502 176.895 0.0751953 170.628L0.300195 169.061C36.7502 175.328 64.2002 202.461 90.8252 228.686C120.825 258.292 149.175 286.249 189.45 287.568C234.45 288.97 280.425 279.156 324.9 269.59C343.125 265.714 361.95 261.673 380.25 258.539C440.85 248.148 491.175 242.458 541.35 270.332C552.825 276.765 564.075 283.94 574.95 290.949C608.7 312.639 640.575 333.173 681.225 332.184C727.875 331.029 774.075 311.402 818.775 292.516C833.775 286.166 847.95 280.146 862.2 274.786C925.8 250.787 979.2 245.014 1046.48 254.993C1065.6 257.797 1085.03 261.096 1103.85 264.23C1122 267.281 1140.75 270.415 1159.2 273.219C1164.75 274.043 1170.38 275.033 1176.3 276.023C1204.05 280.723 1235.48 286.084 1262.03 277.754C1293.3 267.941 1317.75 245.179 1341.3 223.16C1369.5 196.853 1398.68 169.638 1439.78 164.69L1439.93 166.257C1399.28 171.205 1370.25 198.255 1342.2 224.397C1318.5 246.499 1293.98 269.343 1262.4 279.239C1235.55 287.651 1203.9 282.29 1176.08 277.589C1170.15 276.6 1164.53 275.61 1158.98 274.786C1140.45 272.064 1121.7 268.848 1103.55 265.796C1084.8 262.663 1065.38 259.364 1046.18 256.56C979.125 246.664 925.95 252.354 862.575 276.27C848.325 281.63 834.15 287.651 819.225 294.001C774.375 312.968 728.1 332.678 681.225 333.833C680.325 333.915 679.35 333.915 678.375 333.915Z" fill="#EEEEEE"/>
<path d="M673.725 327.813C633.75 327.813 603.375 307.196 571.275 285.341C560.85 278.249 550.05 270.909 538.95 264.394C490.425 235.778 440.7 241.798 380.85 252.684C363 255.9 344.55 260.106 326.775 264.064C282.75 273.961 237.225 284.187 192.375 283.032C151.5 281.96 120.9 253.426 91.3499 225.882C64.2749 200.564 36.2999 174.504 0.149902 168.731L0.374902 167.164C36.9749 173.019 65.0999 199.244 92.3999 224.644C121.8 252.024 152.175 280.393 192.525 281.465C237.15 282.62 282.6 272.476 326.55 262.58C344.325 258.539 362.775 254.416 380.7 251.199C440.85 240.231 490.8 234.128 539.775 263.075C550.95 269.672 561.75 277.012 572.175 284.104C604.65 306.206 635.325 327.07 675.9 326.328C723.3 325.504 770.4 306.123 816 287.403C830.7 281.383 845.85 275.115 860.4 269.837C923.85 246.664 979.35 240.643 1046.02 249.55C1065.15 252.106 1084.5 255.158 1103.25 258.044C1121.32 260.848 1140.07 263.817 1158.52 266.291C1163.85 267.033 1169.25 267.858 1175.02 268.765C1203 273.054 1234.65 278.002 1261.27 269.26C1292.92 258.951 1317.3 235.365 1340.85 212.604C1369.12 185.307 1398.3 157.185 1439.92 151.825L1440.07 153.392C1398.9 158.67 1369.8 186.709 1341.75 213.841C1318.05 236.685 1293.52 260.353 1261.65 270.827C1234.72 279.651 1202.85 274.703 1174.8 270.415C1169.1 269.507 1163.7 268.683 1158.37 267.94C1139.92 265.466 1121.17 262.498 1103.1 259.694C1084.35 256.725 1065 253.756 1045.87 251.199C979.425 242.293 924.15 248.313 860.925 271.404C846.375 276.765 831.9 282.702 816.525 288.97C770.85 307.69 723.6 327.153 675.975 327.978C675.075 327.813 674.4 327.813 673.725 327.813Z" fill="#EEEEEE"/>
<path d="M672.075 321.793C631.425 321.793 601.425 300.846 569.7 278.662C559.5 271.569 549 264.23 538.05 257.55C490.125 228.356 440.925 234.706 381.6 245.922C364.05 249.22 345.975 253.426 328.5 257.467C285 267.528 239.925 278.002 195.45 277.095C154.575 276.27 123.225 248.725 92.85 222.088C65.025 197.677 36.3 172.524 0 167.164L0.225 165.597C36.9 171.04 65.775 196.358 93.75 220.851C123.9 247.323 155.025 274.621 195.45 275.445C239.775 276.352 284.7 265.961 328.125 255.9C345.6 251.859 363.675 247.653 381.3 244.272C440.925 232.974 490.35 226.706 538.65 256.065C549.6 262.745 560.175 270.085 570.375 277.26C602.1 299.444 632.1 320.391 672.6 320.143C720.675 319.896 768.375 300.928 814.575 282.62C829.275 276.765 844.425 270.745 859.05 265.632C921.075 243.777 978.6 237.345 1045.5 244.932C1064.55 247.076 1083.82 249.715 1102.5 252.272C1120.5 254.746 1139.1 257.302 1157.4 259.364C1162.5 259.941 1167.6 260.601 1173 261.343C1201.2 265.054 1233.22 269.178 1259.92 260.106C1291.8 249.303 1316.25 225.057 1339.95 201.553C1368.3 173.432 1397.62 144.32 1439.77 138.63L1439.92 140.197C1398.22 145.887 1369.05 174.751 1340.85 202.708C1317.07 226.294 1292.47 250.705 1260.3 261.591C1233.3 270.745 1201.12 266.539 1172.77 262.91C1167.37 262.168 1162.27 261.508 1157.17 260.931C1138.8 258.869 1120.2 256.313 1102.2 253.839C1083.52 251.282 1064.25 248.643 1045.27 246.499C978.525 238.994 921.225 245.344 859.35 267.116C844.725 272.229 829.575 278.249 814.875 284.104C768.6 302.495 720.75 321.463 672.45 321.71C672.45 321.793 672.225 321.793 672.075 321.793Z" fill="#EEEEEE"/>
<path d="M672.15 315.855C671.7 315.855 671.25 315.855 670.8 315.855C630 315.525 600.225 294.495 568.725 272.229C558.675 265.136 548.325 257.797 537.45 251.117C489.825 221.676 441.225 228.108 382.575 239.571C365.25 242.952 347.475 247.158 330.3 251.282C287.25 261.508 242.775 272.064 198.6 271.404C157.725 270.827 125.55 244.272 94.4252 218.707C65.9252 195.286 36.4502 170.957 0.0751953 166.092L0.225195 164.525C36.9752 169.555 66.6002 193.884 95.2502 217.47C126.15 242.952 158.175 269.26 198.6 269.837C242.55 270.497 287.025 259.941 329.925 249.715C347.1 245.591 364.95 241.386 382.275 238.004C441.15 226.541 490.05 220.026 538.125 249.797C549 256.477 559.35 263.899 569.475 270.992C600.825 293.176 630.375 314.123 670.725 314.37C671.175 314.37 671.625 314.37 672.075 314.37C720.225 314.37 767.85 295.815 813.975 277.837C828.525 272.146 843.525 266.291 858.075 261.26C918.975 240.149 976.65 233.633 1045.05 240.066C1063.88 241.88 1083 244.189 1101.45 246.416C1119.23 248.56 1137.68 250.787 1155.83 252.519C1160.55 253.014 1165.43 253.508 1170.38 254.086C1198.88 257.219 1231.13 260.766 1257.98 251.282C1290.23 239.984 1314.9 214.996 1338.83 190.832C1367.48 161.886 1397.18 131.867 1439.85 125.682L1440.08 127.249C1397.85 133.352 1368.38 163.123 1339.88 191.987C1315.88 216.233 1291.05 241.386 1258.5 252.766C1231.35 262.25 1198.95 258.704 1170.3 255.57C1165.35 254.993 1160.48 254.498 1155.75 254.003C1137.6 252.271 1119.15 250.045 1101.3 247.901C1082.85 245.674 1063.8 243.365 1044.98 241.55C976.8 235.118 919.35 241.633 858.6 262.662C844.125 267.693 829.05 273.548 814.575 279.156C768.3 297.217 720.525 315.855 672.15 315.855Z" fill="#EEEEEE"/>
<path d="M672.525 310C671.625 310 670.8 310 669.9 310C629.25 309.422 599.7 288.393 568.425 266.044C558.45 258.952 548.175 251.612 537.375 244.849C489.9 215.243 439.725 222.171 383.775 233.386C366.675 236.85 349.2 241.056 332.25 245.097C289.65 255.405 245.625 266.044 201.825 265.632C160.875 265.219 127.875 239.819 96.0002 215.243C66.8252 192.729 36.6002 169.391 0.0751953 164.855L0.225195 163.288C37.1252 167.906 67.5002 191.245 96.8252 213.924C128.55 238.417 161.325 263.652 201.825 264.065C245.475 264.477 289.425 253.839 331.95 243.53C348.9 239.407 366.375 235.201 383.55 231.737C439.8 220.439 490.275 213.594 538.125 243.448C548.925 250.21 559.275 257.55 569.25 264.642C600.375 286.826 629.7 307.773 669.975 308.35C719.025 309.092 767.325 290.372 814.125 272.312C828.45 266.786 843.3 261.096 857.625 256.148C916.65 235.86 975.975 228.933 1044.45 234.376C1062.45 235.86 1081.65 238.829 1102.05 241.963C1155.15 250.21 1210.05 258.787 1255.35 242.375C1288.05 230.582 1313.1 204.852 1337.33 180.029C1366.43 150.176 1396.58 119.332 1439.93 112.652L1440.15 114.219C1397.25 120.817 1367.33 151.495 1338.38 181.184C1314 206.172 1288.8 231.984 1255.88 243.86C1210.28 260.354 1155.15 251.777 1101.9 243.53C1081.58 240.396 1062.38 237.345 1044.45 235.943C976.2 230.5 917.025 237.345 858.15 257.632C843.825 262.58 828.975 268.271 814.65 273.796C768.525 291.692 720.9 310 672.525 310Z" fill="#EEEEEE"/>
<path d="M673.8 304.391C672.45 304.391 671.175 304.391 669.825 304.309C629.25 303.484 599.775 282.455 568.575 260.188C558.675 253.096 548.4 245.756 537.675 239.076C490.2 209.388 440.475 216.315 385.05 227.696C368.175 231.159 351 235.365 334.275 239.489C292.125 249.88 248.475 260.6 205.05 260.353C164.025 260.188 130.275 235.777 97.6499 212.274C67.7999 190.75 36.8249 168.401 0.149902 164.277L0.299902 162.71C37.3499 166.916 68.3999 189.348 98.4749 211.037C130.95 234.458 164.55 258.704 205.125 258.869C205.5 258.869 205.875 258.869 206.175 258.869C249.15 258.869 292.275 248.313 334.05 238.004C350.7 233.881 367.95 229.675 384.825 226.211C440.475 214.83 490.5 207.821 538.425 237.757C549.15 244.519 559.425 251.776 569.4 258.869C600.375 280.97 629.7 301.917 669.9 302.742C719.1 303.814 767.475 285.011 814.275 266.868C828.45 261.343 843.075 255.652 857.325 250.704C915.225 230.582 974.4 223.49 1043.47 228.355C1061.32 229.592 1080.3 232.314 1100.32 235.283C1152.75 242.87 1207.05 250.704 1251.97 233.963C1285.2 221.593 1310.7 195.203 1335.37 169.638C1365.07 138.959 1395.75 107.126 1439.85 100.034L1440.07 101.601C1396.42 108.611 1365.9 140.196 1336.35 170.792C1311.52 196.44 1285.87 222.995 1252.42 235.448C1207.12 252.271 1152.75 244.437 1100.1 236.85C1080.07 233.963 1061.1 231.242 1043.32 230.005C974.475 225.221 915.45 232.231 857.7 252.271C843.525 257.219 828.825 262.91 814.725 268.353C769.05 286.083 721.875 304.391 673.8 304.391Z" fill="#EEEEEE"/>
<path d="M675.225 298.949C673.65 298.949 672.075 298.949 670.5 298.866C629.925 297.794 600.45 276.847 569.25 254.745C559.35 247.736 549.075 240.396 538.35 233.716C490.65 203.945 441.375 211.037 386.475 222.418C369.9 225.881 352.875 230.087 336.525 234.211C294.75 244.602 251.55 255.323 208.35 255.323H208.275C167.175 255.323 132.675 232.067 99.2999 209.47C68.6999 188.853 37.0499 167.494 0.149902 163.7L0.299902 162.133C37.4999 165.927 69.2999 187.369 100.05 208.151C133.275 230.582 167.625 253.756 208.275 253.756C208.275 253.756 208.275 253.756 208.35 253.756C251.4 253.756 294.525 243.035 336.225 232.644C352.65 228.603 369.6 224.315 386.25 220.851C441.375 209.305 490.95 202.295 539.1 232.314C549.825 238.994 560.1 246.334 570.075 253.343C601.125 275.363 630.375 296.227 670.575 297.217C719.85 298.454 768.075 279.404 814.725 261.013C828.75 255.488 843.15 249.797 857.25 244.849C914.25 224.727 973.05 217.387 1042.28 221.84C1059.9 222.995 1078.58 225.552 1098.3 228.273C1150.05 235.365 1203.6 242.788 1248.22 225.799C1282.05 212.934 1308.07 185.802 1333.35 159.577C1363.72 127.991 1395.08 95.3337 1440 87.7466L1440.22 89.3135C1395.75 96.8181 1364.55 129.311 1334.33 160.731C1308.97 187.121 1282.8 214.336 1248.68 227.283C1203.75 244.354 1150.05 237.015 1098.07 229.84C1078.35 227.118 1059.75 224.562 1042.2 223.49C973.125 219.119 914.475 226.376 857.7 246.416C843.675 251.364 829.2 257.055 815.25 262.58C769.875 280.476 723.075 298.949 675.225 298.949Z" fill="#EEEEEE"/>
<path d="M676.725 293.753C675.075 293.753 673.425 293.753 671.7 293.671C631.05 292.516 601.5 271.652 570.225 249.632C560.325 242.623 550.05 235.365 539.25 228.768C491.25 198.997 442.275 206.089 387.9 217.635C371.55 221.098 354.825 225.304 338.625 229.345C297.225 239.736 254.4 250.457 211.425 250.704C211.275 250.704 211.05 250.704 210.9 250.704C169.95 250.704 134.85 228.52 100.875 207.161C69.5999 187.369 37.1999 166.999 0.149902 163.618L0.299902 162.051C37.7249 165.432 70.1999 185.967 101.625 205.759C135.45 227.036 170.4 249.138 210.975 249.138C211.125 249.138 211.35 249.138 211.5 249.138C254.25 248.973 297 238.169 338.325 227.861C354.525 223.82 371.25 219.614 387.6 216.15C442.275 204.605 491.475 197.43 539.925 227.448C550.725 234.128 561 241.386 570.975 248.395C602.1 270.332 631.5 291.032 671.7 292.186C720.9 293.588 768.825 274.126 815.25 255.323C829.05 249.715 843.3 243.942 857.175 238.911C913.425 218.459 971.775 210.955 1040.78 215.161C1058.1 216.233 1076.4 218.707 1095.75 221.263C1146.83 228.108 1199.7 235.2 1243.88 218.047C1278.3 204.687 1305 176.813 1330.8 149.928C1361.85 117.518 1394.03 83.953 1439.78 75.8711L1440 77.438C1394.62 85.4374 1362.68 118.837 1331.78 151.082C1305.9 178.132 1279.05 206.089 1244.33 219.614C1199.85 236.85 1146.82 229.757 1095.53 222.913C1076.18 220.356 1057.95 217.882 1040.62 216.81C971.85 212.604 913.65 220.109 857.55 240.478C843.675 245.509 829.425 251.282 815.625 256.89C770.85 274.95 724.425 293.753 676.725 293.753Z" fill="#EEEEEE"/>
<path d="M678.3 288.805C676.725 288.805 675.075 288.805 673.5 288.723C632.85 287.568 603.075 266.869 571.575 244.849C561.6 237.922 551.25 230.665 540.45 224.067C492.075 194.379 441.375 201.966 389.475 213.099C373.275 216.563 356.85 220.769 340.875 224.727C299.775 235.201 257.25 245.922 214.575 246.251C214.275 246.251 213.9 246.251 213.6 246.251C172.725 246.251 137.025 225.222 102.525 204.852C70.5751 186.049 37.5001 166.587 0.225098 163.535L0.300098 161.968C37.8751 165.02 71.1001 184.565 103.2 203.45C137.55 223.737 173.1 244.602 213.6 244.602C213.9 244.602 214.275 244.602 214.575 244.602C257.1 244.272 299.55 233.551 340.5 223.16C356.475 219.119 372.9 214.996 389.1 211.45C441.3 200.234 492.225 192.647 541.05 222.583C551.85 229.263 562.2 236.438 572.25 243.447C603.6 265.302 633.15 285.919 673.425 287.073C722.475 288.475 770.025 268.435 816 249.138C829.575 243.447 843.675 237.51 857.325 232.397C913.05 211.45 970.875 203.615 1039.2 207.903C1056.23 208.976 1074.15 211.367 1093.05 213.924C1143.45 220.769 1195.58 227.778 1239.38 210.542C1274.55 196.688 1301.85 168.154 1328.25 140.527C1360.13 107.209 1393.05 72.8199 1439.78 64.3257L1440 65.8926C1393.73 74.3044 1360.95 108.611 1329.23 141.681C1302.68 169.391 1275.23 198.09 1239.83 212.027C1195.73 229.428 1143.45 222.335 1092.83 215.491C1073.93 212.934 1056.08 210.542 1039.05 209.47C970.875 205.182 913.275 212.934 857.775 233.881C844.125 238.994 830.1 244.932 816.45 250.622C771.975 269.425 725.925 288.805 678.3 288.805Z" fill="#EEEEEE"/>
<path d="M679.575 284.187C678.225 284.187 676.875 284.187 675.525 284.104C634.8 283.115 604.8 262.497 573 240.561C562.95 233.633 552.525 226.459 541.65 219.861C492.825 190.255 442.425 197.925 390.825 209.058C374.85 212.521 358.65 216.645 342.9 220.603C302.1 230.994 259.95 241.715 217.5 242.128C217.05 242.128 216.6 242.128 216.075 242.128C175.275 242.128 138.975 222.17 103.95 202.873C71.3249 184.895 37.6499 166.339 0.149902 163.618L0.224902 162.051C38.0249 164.772 71.8499 183.41 104.55 201.471C139.875 220.933 176.4 241.056 217.425 240.561C259.725 240.066 301.875 229.428 342.525 219.036C358.275 215.078 374.475 210.872 390.45 207.408C442.275 196.193 492.975 188.523 542.25 218.377C553.125 224.974 563.625 232.149 573.675 239.159C605.25 260.931 635.1 281.465 675.45 282.455C724.35 283.609 771.375 262.992 816.9 243.117C830.25 237.262 844.05 231.242 857.55 225.964C912.9 204.192 970.125 196.193 1037.47 200.728C1054.12 201.883 1071.68 204.275 1090.12 206.914C1139.85 213.923 1191.3 221.098 1234.65 203.78C1270.5 189.43 1298.55 160.236 1325.62 131.95C1358.33 97.8077 1392.08 62.5936 1439.78 53.687L1440 55.2539C1392.75 64.0781 1359.15 99.2097 1326.6 133.104C1299.38 161.473 1271.33 190.832 1235.18 205.264C1191.45 222.748 1139.85 215.49 1089.97 208.481C1071.53 205.924 1054.05 203.45 1037.4 202.295C970.2 197.76 913.275 205.759 858.075 227.448C844.65 232.726 830.85 238.746 817.5 244.602C773.175 264.064 727.275 284.187 679.575 284.187Z" fill="#EEEEEE"/>
<path d="M681.075 279.816C680.025 279.816 678.975 279.816 677.925 279.816C637.125 278.991 606.825 258.456 574.8 236.685C564.6 229.757 554.1 222.665 543.15 216.068C493.725 186.626 443.55 194.213 392.325 205.429C376.575 208.893 360.525 212.934 345 216.892C304.5 227.201 262.65 237.922 220.35 238.499C178.8 239.076 141.525 219.779 105.45 201.223C72.2251 184.07 37.9501 166.422 0.225098 163.947L0.300098 162.381C38.2501 164.855 72.7501 182.585 106.05 199.739C141.975 218.294 179.1 237.427 220.35 236.85C262.5 236.272 304.275 225.634 344.7 215.325C360.225 211.367 376.275 207.243 392.025 203.78C443.55 192.482 493.95 184.895 543.825 214.583C554.85 221.098 565.35 228.273 575.55 235.2C607.425 256.89 637.575 277.342 678 278.084C726.6 279.074 773.1 257.714 818.025 237.015C831.15 230.994 844.725 224.727 858 219.284C913.2 196.523 969.675 188.193 1035.83 193.224C1052.18 194.461 1069.2 197.017 1087.28 199.739C1136.4 207.079 1187.18 214.583 1230.15 197.265C1266.75 182.503 1295.4 152.649 1323.15 123.703C1356.68 88.8186 1391.33 52.6974 1439.93 43.3784L1440.15 44.9453C1392 54.1818 1357.5 90.0556 1324.12 124.857C1296.3 153.886 1267.5 183.905 1230.6 198.749C1187.25 216.233 1136.33 208.645 1087.05 201.306C1068.98 198.584 1051.95 196.11 1035.68 194.873C969.75 189.843 913.425 198.089 858.45 220.768C845.25 226.211 831.675 232.479 818.55 238.499C774.45 258.869 728.85 279.816 681.075 279.816Z" fill="#EEEEEE"/>
<path d="M681.825 275.693C681.375 275.693 681 275.693 680.55 275.693C639.3 275.363 608.475 254.746 575.85 232.891C566.25 226.459 556.275 219.779 545.925 213.594C500.625 186.544 455.475 188.771 397.425 201.223C380.475 204.852 363.3 209.305 346.65 213.594C305.775 224.15 263.475 235.036 220.65 235.201C220.5 235.201 220.35 235.201 220.2 235.201C179.475 235.201 142.35 217.14 106.5 199.739C72.8249 183.328 38.0249 166.422 0.149902 164.278L0.224902 162.711C38.3249 164.855 73.2749 181.843 107.025 198.255C142.8 215.655 179.775 233.551 220.2 233.551C220.35 233.551 220.5 233.551 220.65 233.551C263.325 233.386 305.475 222.5 346.35 212.027C363 207.738 380.175 203.285 397.2 199.657C455.625 187.121 501 184.895 546.675 212.192C557.025 218.377 567 225.057 576.6 231.489C609.075 253.179 639.675 273.713 680.55 274.043C729.3 274.456 775.2 252.189 819.6 230.747C831.6 224.974 843.975 218.954 856.05 213.676C912.675 188.606 970.575 179.947 1038.15 186.379C1053.15 187.781 1068.75 190.338 1085.32 192.977C1134.38 200.894 1185 209.058 1227.75 190.503C1263.68 174.834 1292.33 145.145 1320 116.446C1354.5 80.7369 1390.12 43.791 1439.78 34.2246L1440 35.7915C1390.8 45.2754 1355.25 82.0564 1320.97 117.683C1293.15 146.464 1264.43 176.318 1228.28 192.069C1185.15 210.872 1134.3 202.625 1085.1 194.626C1068.6 191.987 1053 189.43 1038 188.029C970.65 181.596 912.975 190.255 856.575 215.161C844.5 220.521 832.125 226.459 820.2 232.232C776.025 253.591 730.35 275.693 681.825 275.693Z" fill="#EEEEEE"/>
<path d="M683.25 272.064C683.175 272.064 683.175 272.064 683.1 272.064C641.85 272.064 610.65 251.529 577.725 229.758C567.975 223.325 557.85 216.645 547.5 210.543C501.75 183.658 454.95 186.214 398.775 198.337C381.975 201.966 364.95 206.337 348.45 210.625C307.8 221.099 265.725 231.984 223.125 232.149C222.9 232.149 222.675 232.149 222.45 232.149C181.725 232.149 144.075 214.996 107.7 198.337C73.5751 182.751 38.2501 166.587 0.225098 164.608L0.300098 163.041C38.5501 165.02 73.9501 181.266 108.225 196.935C144.675 213.594 182.325 230.83 223.05 230.582C265.5 230.418 307.5 219.532 348.075 209.058C364.575 204.77 381.6 200.399 398.4 196.77C454.95 184.647 501.975 182.091 548.1 209.141C558.525 215.243 568.65 221.923 578.4 228.356C611.175 249.963 642.15 270.415 683.025 270.415C683.1 270.415 683.1 270.415 683.175 270.415C731.475 270.415 776.625 247.324 820.35 224.975C832.125 218.954 844.275 212.687 856.2 207.161C912.75 180.689 969.9 171.782 1036.13 179.122C1050.75 180.771 1065.98 183.493 1082.1 186.297C1130.63 194.956 1180.8 203.863 1223.33 185.225C1259.85 169.226 1289.1 138.96 1317.45 109.766C1352.7 73.3149 1389.23 35.6267 1439.78 25.813L1440 27.3799C1389.9 37.1112 1353.6 74.6344 1318.43 110.921C1290 140.279 1260.6 170.628 1223.85 186.709C1180.95 205.512 1130.55 196.523 1081.88 187.864C1065.75 184.977 1050.53 182.256 1035.98 180.689C970.05 173.349 913.05 182.173 856.725 208.646C844.875 214.171 832.725 220.439 820.95 226.459C777.15 248.891 731.85 272.064 683.25 272.064Z" fill="#EEEEEE"/>
<path d="M684.675 268.93C643.8 268.93 612.525 248.643 579.45 227.119C569.55 220.686 559.35 214.089 548.85 207.986C502.575 181.348 455.775 183.905 399.825 195.945C383.175 199.574 366.225 203.945 349.95 208.151C309.525 218.624 267.675 229.428 225.225 229.593C225 229.593 224.7 229.593 224.475 229.593C183.6 229.593 145.5 213.181 108.675 197.265C74.0249 182.421 38.2499 166.999 0.149902 165.102L0.224902 163.535C38.5499 165.432 74.3999 180.936 109.125 195.863C145.875 211.697 183.825 228.026 224.4 228.026C224.625 228.026 224.925 228.026 225.15 228.026C267.45 227.778 309.225 217.057 349.575 206.584C365.925 202.378 382.8 198.007 399.525 194.379C455.85 182.256 502.875 179.699 549.525 206.584C560.025 212.687 570.3 219.284 580.2 225.717C613.125 247.076 644.175 267.281 684.675 267.281C684.975 267.281 685.275 267.281 685.575 267.281C733.5 266.951 778.05 242.788 821.1 219.367C832.725 213.099 844.65 206.584 856.35 200.729C912.6 172.772 969.15 163.618 1034.25 171.947C1048.8 173.844 1063.87 176.813 1079.77 179.947C1127.62 189.43 1177.12 199.162 1219.35 180.606C1256.47 164.36 1286.32 133.517 1315.2 103.828C1351.2 66.7172 1388.47 28.3693 1439.85 18.3081L1440.07 19.875C1389.15 29.8537 1352.02 68.0367 1316.17 104.983C1287.22 134.836 1257.22 165.679 1219.87 182.091C1177.2 200.811 1127.55 190.997 1079.47 181.513C1063.57 178.38 1048.5 175.411 1034.02 173.514C969.225 165.185 912.9 174.256 856.875 202.131C845.25 207.903 833.25 214.418 821.625 220.686C778.425 244.107 733.8 268.353 685.5 268.765C685.275 268.93 684.975 268.93 684.675 268.93Z" fill="#EEEEEE"/>
<path d="M685.8 266.291C645.45 266.291 614.175 246.169 581.025 224.974C571.05 218.542 560.7 211.944 550.05 205.924C503.325 179.287 456.525 181.926 400.725 193.966C384.15 197.512 367.35 201.883 351.15 206.089C310.875 216.48 269.25 227.283 226.875 227.448C226.65 227.448 226.425 227.448 226.2 227.448C185.175 227.448 146.625 211.697 109.275 196.44C74.4749 182.173 38.3249 167.329 0.149902 165.514L0.224902 163.947C38.6249 165.844 74.8499 180.689 109.875 194.956C147.075 210.13 185.55 225.881 226.275 225.881C226.5 225.881 226.725 225.881 226.95 225.881C269.1 225.716 310.65 214.913 350.85 204.522C367.05 200.316 383.85 195.945 400.5 192.399C456.6 180.276 503.625 177.72 550.8 204.522C561.45 210.542 571.8 217.222 581.85 223.655C615.375 245.097 646.95 265.466 687.9 264.724C735.525 263.899 779.25 238.664 821.55 214.253C832.95 207.656 844.8 200.811 856.275 194.791C913.275 164.69 967.575 155.536 1032.3 165.349C1046.55 167.494 1061.32 170.792 1076.92 174.256C1124.4 184.812 1173.52 195.615 1215.75 177.142C1253.4 160.649 1283.77 129.393 1313.17 99.2095C1349.85 61.5214 1387.8 22.5138 1439.92 12.3701L1440.15 13.937C1388.47 23.9982 1350.67 62.8409 1314.15 100.364C1284.67 130.713 1254.15 162.051 1216.27 178.627C1173.67 197.347 1124.32 186.379 1076.62 175.823C1061.02 172.359 1046.25 169.143 1032.07 166.999C967.65 157.267 913.575 166.339 856.875 196.358C845.4 202.378 833.625 209.223 822.225 215.82C779.775 240.313 735.825 265.714 687.9 266.456C687.15 266.291 686.475 266.291 685.8 266.291Z" fill="#EEEEEE"/>
<path d="M686.625 264.147C646.875 264.147 615.6 244.272 582.45 223.243C572.325 216.81 561.825 210.13 551.175 204.192C501.075 176.153 449.625 181.926 401.475 192.317C384.975 195.863 368.325 200.234 352.2 204.44C312.075 214.831 270.6 225.634 228.375 225.717C228.225 225.717 228.075 225.717 228 225.717C186.75 225.717 147.675 210.46 109.875 195.698C74.6999 182.008 38.3249 167.824 0.149902 165.844L0.224902 164.278C38.5499 166.257 75.0749 180.441 110.325 194.214C148.05 208.893 186.975 224.15 228 224.15C228.15 224.15 228.225 224.15 228.375 224.15C270.45 224.067 311.85 213.346 351.825 202.955C367.95 198.749 384.675 194.461 401.175 190.832C449.55 180.359 501.3 174.586 551.775 202.79C562.5 208.811 573 215.408 583.125 221.923C616.95 243.365 648.825 263.652 689.7 262.58C736.95 261.343 779.925 234.953 821.55 209.388C832.8 202.46 844.425 195.368 855.75 189.018C913.275 156.69 965.475 147.701 1030.27 158.917C1044.52 161.391 1059.22 165.02 1074.9 168.896C1121.92 180.524 1170.45 192.564 1212.6 174.091C1250.62 157.433 1281.45 125.765 1311.3 95.1688C1348.57 56.9034 1387.05 17.401 1439.85 7.25732L1440.07 8.82423C1387.72 18.8854 1349.4 58.3054 1312.27 96.3234C1282.35 127.002 1251.45 158.752 1213.12 175.576C1170.6 194.214 1121.77 182.091 1074.6 170.463C1059 166.587 1044.3 162.958 1030.12 160.484C965.625 149.351 913.725 158.34 856.5 190.42C845.25 196.77 833.625 203.862 822.375 210.79C780.6 236.438 737.475 262.91 689.85 264.147C688.725 264.147 687.675 264.147 686.625 264.147Z" fill="#EEEEEE"/>
<path d="M687.075 262.58C647.925 262.58 616.65 242.87 583.65 222.088C573.45 215.655 562.8 208.975 552.075 203.038C501.525 174.998 450.075 180.854 402.075 191.245C385.65 194.791 369 199.162 352.95 203.368C312.975 213.759 271.725 224.48 229.65 224.48C229.575 224.48 229.575 224.48 229.5 224.48C187.95 224.48 148.35 209.553 110.025 195.203C74.6999 181.926 38.1749 168.236 0.149902 166.092L0.224902 164.525C38.4749 166.669 75.0749 180.359 110.55 193.719C148.725 208.068 188.25 222.913 229.5 222.913C229.575 222.913 229.575 222.913 229.65 222.913C271.5 222.913 312.75 212.192 352.575 201.801C368.7 197.595 385.275 193.306 401.775 189.678C450.075 179.204 501.75 173.432 552.675 201.636C563.475 207.574 574.05 214.253 584.325 220.769C618.375 242.21 650.625 262.498 691.35 261.013C738.3 259.281 780.6 231.654 821.55 204.935C833.175 197.347 844.125 190.255 855.225 183.575C912.75 149.268 964.575 140.114 1028.55 152.814C1042.57 155.618 1057.2 159.659 1072.57 163.948C1119.45 176.978 1167.97 190.42 1210.2 171.947C1248.6 155.124 1279.72 123.208 1309.87 92.2C1347.6 53.5222 1386.6 13.4425 1439.85 3.38135L1440.07 4.94825C1387.27 14.9269 1348.42 54.7593 1310.85 93.3546C1280.62 124.363 1249.35 156.443 1210.72 173.349C1168.05 191.987 1119.37 178.462 1072.2 165.432C1056.82 161.144 1042.2 157.103 1028.25 154.299C964.575 141.599 913.05 150.753 855.825 184.895C844.725 191.492 833.775 198.667 822.225 206.172C781.125 232.974 738.675 260.683 691.35 262.415C689.925 262.58 688.5 262.58 687.075 262.58Z" fill="#EEEEEE"/>
<path d="M687.225 261.59C648.525 261.59 615.975 241.138 584.4 221.428C574.05 214.996 563.4 208.233 552.6 202.378C501.675 174.421 450.3 180.194 402.375 190.585C385.95 194.131 369.375 198.502 353.325 202.708C313.425 213.181 272.175 223.902 230.25 223.737C188.55 223.572 148.575 208.976 109.95 194.873C74.6251 182.008 38.0251 168.731 0.225098 166.339L0.300098 164.772C38.3251 167.164 75.0001 180.524 110.4 193.389C148.95 207.409 188.775 221.923 230.25 222.171C272.1 222.335 313.2 211.615 353.025 201.141C369.075 196.935 385.725 192.564 402.15 189.018C450.375 178.545 501.975 172.772 553.275 200.894C564.075 206.831 574.8 213.511 585.15 220.026C619.425 241.551 651.825 261.838 692.4 259.859C739.05 257.632 780.75 228.768 821.025 200.894C832.5 192.977 843.3 185.472 854.175 178.545C912.45 141.681 962.475 132.692 1026.83 147.289C1040.7 150.423 1055.18 154.876 1070.55 159.659C1115.33 173.514 1166.1 189.183 1208.55 170.71C1247.18 153.887 1278.53 121.641 1308.9 90.4682C1346.85 51.2956 1386.23 10.886 1439.85 1.07227L1440.08 2.63917C1386.9 12.3705 1347.68 52.6151 1309.8 91.5403C1279.35 122.878 1247.85 155.206 1209 172.112C1166.18 190.75 1115.18 174.998 1070.1 161.144C1054.8 156.443 1040.33 151.99 1026.45 148.773C962.475 134.259 912.75 143.248 854.85 179.864C843.9 186.791 833.175 194.214 821.7 202.131C781.275 230.17 739.425 259.116 692.4 261.343C690.675 261.508 688.95 261.59 687.225 261.59Z" fill="#EEEEEE"/>
<path d="M686.625 261.178C648.525 261.178 616.125 240.891 584.7 221.181C574.35 214.666 563.55 207.986 552.825 202.048C501.675 174.091 450.3 179.864 402.45 190.255C386.1 193.801 369.45 198.172 353.4 202.46C313.575 212.934 272.4 223.82 230.55 223.407C188.7 222.995 148.425 208.563 109.425 194.708C74.1751 182.173 37.8001 169.143 0.225098 166.422L0.300098 164.855C38.0251 167.576 74.5501 180.606 109.8 193.224C148.65 207.079 188.925 221.428 230.475 221.84C272.175 222.253 313.275 211.449 353.025 200.893C369.075 196.688 385.725 192.234 402.15 188.688C450.3 178.215 501.9 172.359 553.425 200.564C564.225 206.501 575.025 213.181 585.375 219.696C618.3 240.313 652.275 261.673 692.7 259.281C739.2 256.56 780.225 226.459 819.975 197.265C831.3 188.936 841.95 181.101 852.75 173.926C911.25 134.754 961.2 125.6 1025.25 142.176C1038.83 145.722 1053.08 150.588 1068.15 155.701C1113.53 171.205 1164.9 188.688 1207.65 170.215C1246.35 153.474 1277.85 120.981 1308.3 89.6433C1346.48 50.2234 1386 9.56635 1439.85 0L1440.08 1.5669C1386.68 10.9683 1347.3 51.5429 1309.28 90.7979C1278.75 122.301 1247.1 154.876 1208.18 171.7C1164.98 190.42 1113.3 172.772 1067.7 157.185C1052.63 152.072 1038.38 147.206 1024.88 143.66C961.275 127.167 911.625 136.321 853.5 175.163C842.775 182.338 832.125 190.173 820.8 198.502C780.9 227.778 739.65 258.044 692.775 260.766C690.675 261.096 688.65 261.178 686.625 261.178Z" fill="#EEEEEE"/>
</g>
</svg>
